<?xml version="1.0" encoding="utf-8"?>
<!-- Generator: Adobe Illustrator 19.1.1, SVG Export Plug-In . SVG Version: 6.00 Build 0)  -->
<svg version="1.1" id="Layer_1" xmlns="http://www.w3.org/2000/svg" xmlns:xlink="http://www.w3.org/1999/xlink" x="0px" y="0px"
	 viewBox="0 0 205.4 170.7" style="enable-background:new 0 0 205.4 170.7;" xml:space="preserve">
<style type="text/css">
	.st0{fill:#5B7000;}
	.st1{fill:#082C00;}
	.st2{fill:#559400;}
	.st3{fill:#8EC708;}
	.st4{fill:#C1D767;}
	.st5{fill:#DAE7A5;}
	.st6{fill:#73AA26;}
	.st7{fill:#215F05;}
</style>
<path class="st0" d="M175.7,140.6c0,0,0.1,0,0.1,0c4.1-1.4,8-3.1,11.7-5.3c5.3-3.1,10.1-6.8,13.7-11.9c2.7-3.9,4.5-8.1,4.1-13
	c-0.1-1.2,0-2.5-0.1-3.7c-0.4-3-1.7-5.7-3-8.3c-1-2.2-2.2-4.3-3.8-6.2c-2.6-3.4-5.9-5.2-10.2-5.3c-3.6-0.1-6.9,0.9-10.3,1.8
	c-4.3,1.2-8.6,2.3-12.9,3.5c-0.2,0-0.3,0.1-0.3,0c1.6-1.4,3.2-3,4.9-4.5v0c0.5-0.7,1.1-1.4,1.6-2.1c1.4-2.2,2.3-4.5,2.4-7.1
	c0.3-2.2-0.1-4.4-0.9-6.5c-2.1-5.7-6.1-9.7-11.3-12.5c-6.8-3.7-13.9-4.4-21.3-2.2c-0.1,0-0.3,0.1-0.5,0c0.3-0.2,0.6-0.4,0.9-0.5
	c7.2-4.6,13.3-10.2,17.7-17.6c2.2-3.7,3.8-7.7,4.2-12.1c0.5-5.6-1-10.6-4.5-15c-5.3-6.7-12.2-10.9-20.9-11.8
	c-0.6-0.1-1.1-0.1-1.7-0.2c0,0,0-0.1,0-0.1c-0.5,0-0.9,0-1.4,0c-1.5,0-2.9,0-4.4,0c-0.4,0-0.7,0-1.1,0c0,0,0,0.1,0,0.1
	c-7,0.6-13.6,2.5-19.4,6.6c-4.3,3-7.3,7-8.4,12.3c-0.7,3.4-0.3,6.7,0.6,10c0.1,0.2,0.1,0.5,0.2,0.8c-0.9-0.9-1.8-1.8-2.7-2.6
	c-3.8-3.4-8.2-5.3-13.3-5.3c-5,0-9.5,1.7-13.4,4.9c-6.1,5.1-9,11.7-9.3,19.5c0,0.2,0,0.4,0,0.5c0,0,0,0.1,0,0.1
	c-0.7-1.9-1.2-3.9-2-5.7c-3.4-8-8.6-14.5-16.3-18.7c-9.7-5.4-20.5-4.1-29,3.1c-5,4.3-8.2,9.7-10.7,15.6C2,47.9,0.5,54.9,0.2,62.2
	c-0.1,3.5,0.1,7,1,10.4c0.2-2.9,0.6-5.7,1.2-8.5c-0.6,2.8-1,5.6-1.2,8.5C2.6,79,5.7,84.3,11.7,87.8c-3.1,0.2-5.9,0.9-8,3
	c-2.2,2-3.2,4.7-3.6,7.6c0,0.3-0.1,0.7-0.1,1c0,1.1,0,2.2,0,3.3c0,0.3,0.1,0.5,0.1,0.8c0.4,3.4,1.3,6.7,2.6,9.9
	c0.3,0.4,0.7,0.8,1,1.2c-0.3-0.4-0.7-0.8-1-1.2c0.1,0.3,0.2,0.5,0.3,0.8c2.3,5.3,5.3,10.1,9.1,14.4c3.9,4.4,8.4,8.1,13.9,10.5
	c1.4,0.6,2.9,1.2,4.4,1.5C11.7,143.6,0,148.1,0,153c0,9.8,46,17.7,102.7,17.7c56.7,0,102.7-7.9,102.7-17.7
	C205.4,148.1,194,143.8,175.7,140.6z M1.3,98.1c0.3-0.3,0.6-0.5,0.8-0.7C1.9,97.6,1.6,97.9,1.3,98.1z"/>
<ellipse class="st1" cx="102.7" cy="153" rx="102.7" ry="17.7"/>
<path class="st2" d="M0,102.6c0-1.1,0-2.2,0-3.3c0-0.1,0.1-0.1,0.1-0.2c0.7-0.6,1.3-1.2,2-1.7c5.1-3.9,10.7-4.5,16.6-2.5
	c0.6,0.2,1.2,0.5,1.9,0.8c-0.2-0.5-0.4-0.8-0.5-1.1c-0.7-1.8-0.5-3.6-0.1-5.5c0.8-4.2,2.8-7.6,6.8-9.5c3.6-1.8,7.4-2.6,11.4-2.2
	c4.2,0.5,7.2,2.6,8.8,6.5c1.2,2.8,1.5,5.8,1.7,8.8c0,0.4,0.1,0.7,0.1,1.1c0.3-0.2,0.6-0.4,0.9-0.6c3.5-2.8,7.7-3.8,12.1-4
	c2.9-0.1,5.9,0.4,8.7,1.2c5.1,1.5,9.5,4,12.7,8.4c0.5,0.6,0.7,0.4,1,0c0.1-0.2,0.3-0.4,0.4-0.6c1.1-2,2.2-3.9,3.3-5.9
	c0.9-1.7,1.8-3.4,3.3-4.7c2.1-1.8,4.3-3.5,6.6-5c3.2-2.1,6.6-3.7,10.5-4.1c3.4-0.3,6.6,0.1,9.5,1.7c2.9,1.6,4.7,4.1,5.5,7.3
	c0.2,0.6,0,0.8-0.6,0.9c-1.3,0.2-2.7,0.4-4,0.7c-3.6,0.7-7.1,1.6-10.3,3.5c-1.5,0.9-2.8,1.9-3.7,3.4c-0.2,0.3-0.2,0.6-0.3,0.9
	c0.3,0,0.7,0.1,1,0c4.3-0.6,8.7-1,13-0.9c3.3,0,6.5,0.3,9.6,1.3c4.6,1.4,8.5,3.9,11.1,7.9c1.1,1.6,1.9,3.4,2.9,5.1
	c0-0.3,0-0.6-0.1-0.9c-0.7-3.4-1.8-6.6-3.5-9.6c-2-3.7-4.6-6.8-8.3-9c-0.5-0.3-0.5-0.6-0.2-1c1.2-1.5,2.4-3.2,3.7-4.6
	c2.2-2.4,4.8-4.3,7.7-5.9c5.3-3,10.9-4.3,17-3.6c4.2,0.5,7.3,2.7,9.1,6.4c0.9,1.8,1.3,3.7,1.9,5.6c-1.7,1.5-3.3,3.1-4.9,4.5
	c0,0,0.1,0,0.3,0c4.3-1.1,8.6-2.3,12.9-3.5c3.4-0.9,6.8-1.9,10.3-1.8c4.3,0.1,7.6,1.9,10.2,5.3c0.7,2,1.4,4,2.1,6.1
	c1.3,4.2,2,8.4,1.4,12.8c-0.4,2.9-1.6,5.4-3.6,7.6c-2.7,3-6.3,4.5-10,5.6c-4.3,1.2-8.7,1.2-13.1,1.4c-1.4,0-2.8,0-4.2-0.1
	c-2.5-0.2-4.9-0.6-6.9-2.1c-1.5-1.2-2.9-2.6-4.3-3.8c-0.9-0.8-1.8-1.4-2.8-2.2c-0.4-0.3-0.6-0.3-0.8,0.3c-0.9,2.7-2.6,4.8-4.8,6.5
	c-4.5,3.3-9.6,4.7-15.1,5.1c-2.5,0.2-5,0-7.6-0.3c-3.6-0.3-6.9-1.4-10-3.2c-2.8-1.6-5-3.7-6.3-6.6c-0.4-1-0.7-2-1-2.9
	c-1.3,1.3-2.5,2.7-3.9,4c-2.2,2.1-4.8,3.7-7.7,4.9c-4.2,1.8-8.7,2.4-13.2,1.8c-3.7-0.5-7.1-1.9-10.1-4.3c-1.6-1.2-2.5-2.8-2.7-4.8
	c-0.1-0.8,0.1-1.4,0.7-2c0.5-0.4,0.9-0.9,1.2-1.4c1.4-2.5,2.7-5.1,2.9-8c0.1-1.5,0-3,0-4.5c-0.1,0-0.2,0-0.3,0
	c-0.1,0.5-0.3,1.1-0.4,1.6c-1.6,6.3-5.4,10.3-11.7,11.8c-2.3,0.6-4.7,0.9-7.1,1.1c-3,0.2-5.9,0.2-8.9,0.3c-0.2,0-0.3,0-0.7,0
	c0.9,1,1.6,1.8,2.4,2.6c2.7,2.7,6,3.6,9.7,2.9c1.5-0.3,2.9-0.7,4.3-1.1c0.5-0.1,0.7,0,0.8,0.5c0.1,1,0.3,2.1,0.3,3.1
	c0,1.3-0.6,2.3-1.7,3.1c-1.6,1.1-3.4,1.3-5.2,1.3c-2.7,0-5.4-0.1-8-0.5c-3-0.4-5.9-1.4-8.4-3.2c-2.3-1.7-4-3.9-5.5-6.3
	c-0.1-0.2-0.3-0.4-0.5-0.6c-0.1,0.2-0.3,0.4-0.4,0.6c-1.2,2.3-2.6,4.5-4.4,6.3c-3.6,3.5-7.8,4.5-12.5,3c-4.5-1.4-8.1-4.3-11.3-7.5
	c-1.9-1.9-3.5-4.1-5.2-6.2c-0.3-0.4-0.7-0.8-1-1.2c-1.4-3.2-2.3-6.4-2.6-9.9C0.1,103.1,0,102.8,0,102.6z"/>
<path class="st3" d="M129.6,0c1.5,0,2.9,0,4.4,0c0.5,0,1,0.1,1.4,0.1c0.6,0.1,1.1,0.1,1.7,0.2c8.7,0.8,15.5,5,20.9,11.8
	c3.5,4.4,5,9.4,4.5,15c-0.4,4.4-1.9,8.4-4.2,12.1c-4.4,7.4-10.5,13-17.7,17.6c-0.3,0.2-0.6,0.4-0.9,0.5c0.2,0.1,0.4,0,0.5,0
	c7.4-2.2,14.5-1.5,21.3,2.2c5.2,2.8,9.2,6.8,11.3,12.5c0.8,2.1,1.2,4.3,0.9,6.5c-0.2-0.3-0.4-0.5-0.6-0.8c-1-1.5-1.9-3.1-2.9-4.5
	c-2.4-3.5-5.5-6.3-9.4-8.1c-3.3-1.5-6.7-2.5-10.3-2.9c-3.4-0.4-6.9-0.4-10.3-0.1c-4,0.4-7.9,1.2-11.8,2.3c-0.8,0.2-1.5,0.4-2.3,0.7
	c0.4-0.6,0.8-1,1.2-1.5c2.6-3.2,4.9-6.7,6.4-10.6c1.3-3.4,2.3-6.9,1.8-10.6c-0.5-3.8-2.3-6.7-5.7-8.4c-4.3-2.2-8.9-2.7-13.6-2.1
	c-2.6,0.3-4.6,1.6-6,4c-1.1,2-1.3,4.2-1.6,6.4c0,0.2,0.2,0.4,0.4,0.5c2.4,0.6,4.5,1.9,6.6,2.9c1.7,0.8,3.4,1.7,5.1,2.6
	c0.6,0.4,1.2,0.9,1.6,1.8c-3.2-0.9-6.3-1.1-9.4-0.8c-3.4,0.3-6.7,1-9.9,2.2c-3,1.2-5.9,2.6-8,5.3c-0.3,0.4-0.5,0.8-0.9,1.2
	c0-0.2-0.1-0.3,0-0.4c0.6-2.8,1.3-5.5,2.8-8c1.3-2.1,3-3.8,5.4-4.6c0.1,0,0.2-0.1,0.3-0.2c-0.2-0.2-0.4-0.4-0.6-0.5
	c-3.1-2.2-6.5-3.4-10.2-3.7c-3.8-0.3-7.5,0.1-11.1,1.5c-5.7,2.2-9.9,6-12,11.8c-0.7,1.9-0.8,3.9,0.4,5.7c0.8,1.3,1.8,2.5,2.7,3.7
	c1.5,1.9,3,3.9,3.9,6.2c0.9,2.4,1.5,4.9,2.2,7.3c0.3,0.9,0.4,1.8,0.6,2.6c-3.4-6.4-8.5-10.4-15.5-12c-6.9-1.5-13.3,0-19.3,3.8
	c0.2-0.8,0.4-1.5,0.7-2.2c1.3-2.9,3.6-5,6.2-6.7c2.4-1.6,5-2.9,7.8-3.8c0.5-0.2,0.6-0.4,0.4-0.8c-0.4-0.8-0.7-1.6-1.1-2.4
	c-3.1-6.2-7.8-10.9-14-14.1c-4.5-2.3-9.3-3.4-14.4-3.1c-3.4,0.2-6.7,1-9.8,2.5c-3.7,1.8-6.9,4.3-9.6,7.4C7.9,50.3,6.3,53,5,56
	c-2.3,5.3-3.4,10.9-3.8,16.6c-0.9-3.4-1.1-6.9-1-10.4C0.5,54.9,2,47.9,4.8,41.1c2.5-6,5.7-11.4,10.7-15.6c8.4-7.3,19.3-8.5,29-3.1
	c7.7,4.2,12.9,10.7,16.3,18.7c0.8,1.9,1.4,3.9,2,5.7c0,0,0,0,0-0.1c0-0.2,0-0.4,0-0.5c0.3-7.8,3.2-14.5,9.3-19.5
	c3.9-3.2,8.3-4.9,13.4-4.9c5.1,0,9.5,2,13.3,5.3c0.9,0.8,1.8,1.7,2.7,2.6c-0.1-0.3-0.2-0.6-0.2-0.8c-0.9-3.3-1.3-6.6-0.6-10
	c1.1-5.3,4.1-9.2,8.4-12.3c5.8-4.1,12.4-5.9,19.4-6.6C128.9,0.1,129.3,0,129.6,0z"/>
<path class="st4" d="M135.4,0c0,0,0,0.1,0,0.1c-0.5,0-1-0.1-1.4-0.1C134.5,0,135,0,135.4,0z"/>
<path class="st5" d="M128.5,0.1c0,0,0-0.1,0-0.1c0.4,0,0.7,0,1.1,0C129.3,0,128.9,0.1,128.5,0.1z"/>
<path class="st6" d="M0,99.3c0-0.3,0.1-0.7,0.1-1c0.3-2.9,1.3-5.6,3.6-7.6c2.2-2,4.9-2.7,8-3c-6-3.5-9.1-8.8-10.5-15.2
	C1.6,66.9,2.7,61.3,5,56c1.3-3,3-5.7,5.1-8.2c2.7-3.1,5.9-5.5,9.6-7.4c3.1-1.5,6.3-2.3,9.8-2.5c5.1-0.3,9.9,0.8,14.4,3.1
	c6.2,3.1,10.9,7.8,14,14.1c0.4,0.8,0.7,1.6,1.1,2.4c0.2,0.4,0.2,0.7-0.4,0.8c-2.8,0.9-5.4,2.1-7.8,3.8c-2.6,1.8-4.9,3.8-6.2,6.7
	c-0.3,0.7-0.5,1.4-0.7,2.2c6-3.8,12.4-5.3,19.3-3.8c7,1.5,12.1,5.6,15.5,12c-0.2-0.9-0.4-1.8-0.6-2.6c-0.7-2.4-1.4-4.9-2.2-7.3
	c-0.8-2.3-2.3-4.3-3.9-6.2c-1-1.2-1.9-2.4-2.7-3.7c-1.2-1.8-1.1-3.8-0.4-5.7c2.1-5.8,6.3-9.6,12-11.8c3.6-1.4,7.3-1.8,11.1-1.5
	c3.7,0.3,7.2,1.5,10.2,3.7c0.2,0.1,0.4,0.3,0.6,0.5c-0.1,0.1-0.2,0.2-0.3,0.2c-2.4,0.8-4.1,2.5-5.4,4.6c-1.5,2.5-2.2,5.2-2.8,8
	c0,0.1,0,0.2,0,0.4c0.3-0.5,0.6-0.9,0.9-1.2c2.1-2.6,4.9-4.1,8-5.3c3.2-1.2,6.5-1.9,9.9-2.2c3.1-0.3,6.2-0.1,9.4,0.8
	c-0.4-0.8-0.9-1.4-1.6-1.8c-1.7-0.9-3.4-1.8-5.1-2.6c-2.2-1-4.3-2.3-6.6-2.9c-0.2,0-0.4-0.3-0.4-0.5c0.2-2.2,0.5-4.4,1.6-6.4
	c1.3-2.4,3.4-3.6,6-4c4.7-0.6,9.3-0.1,13.6,2.1c3.4,1.7,5.2,4.6,5.7,8.4c0.5,3.7-0.5,7.2-1.8,10.6c-1.5,3.9-3.8,7.3-6.4,10.6
	c-0.4,0.5-0.8,0.9-1.2,1.5c0.8-0.2,1.5-0.4,2.3-0.7c3.9-1.1,7.8-1.9,11.8-2.3c3.4-0.3,6.8-0.3,10.3,0.1c3.6,0.4,7,1.4,10.3,2.9
	c3.9,1.8,7,4.6,9.4,8.1c1,1.5,1.9,3,2.9,4.5c0.2,0.3,0.4,0.5,0.6,0.8c-0.1,2.6-1,5-2.4,7.1c-0.5,0.7-1.1,1.4-1.6,2.1
	c-0.6-1.9-1.1-3.8-1.9-5.6c-1.8-3.8-4.9-6-9.1-6.4c-6-0.7-11.7,0.5-17,3.6c-2.8,1.6-5.4,3.6-7.7,5.9c-1.3,1.4-2.5,3.1-3.7,4.6
	c-0.3,0.4-0.3,0.7,0.2,1c3.6,2.2,6.3,5.4,8.3,9c1.7,3,2.7,6.2,3.5,9.6c0.1,0.3,0.1,0.6,0.1,0.9c-1-1.7-1.8-3.5-2.9-5.1
	c-2.7-4.1-6.5-6.6-11.1-7.9c-3.1-0.9-6.4-1.2-9.6-1.3c-4.4,0-8.7,0.3-13,0.9c-0.3,0-0.7,0-1,0c0.1-0.3,0.2-0.6,0.3-0.9
	c0.8-1.5,2.2-2.5,3.7-3.4c3.2-1.9,6.7-2.8,10.3-3.5c1.3-0.3,2.7-0.5,4-0.7c0.6-0.1,0.7-0.3,0.6-0.9c-0.9-3.2-2.6-5.6-5.5-7.3
	c-3-1.7-6.2-2-9.5-1.7c-3.9,0.4-7.3,2-10.5,4.1c-2.3,1.5-4.5,3.3-6.6,5c-1.5,1.2-2.4,3-3.3,4.7c-1.1,2-2.2,3.9-3.3,5.9
	c-0.1,0.2-0.3,0.4-0.4,0.6c-0.3,0.4-0.6,0.7-1,0c-3.2-4.4-7.6-6.9-12.7-8.4c-2.8-0.8-5.7-1.3-8.7-1.2c-4.4,0.1-8.6,1.1-12.1,4
	c-0.3,0.2-0.6,0.4-0.9,0.6c0-0.4-0.1-0.7-0.1-1.1c-0.2-3-0.5-6-1.7-8.8c-1.7-3.9-4.6-6-8.8-6.5c-4-0.4-7.8,0.4-11.4,2.2
	c-4,2-6,5.3-6.8,9.5c-0.4,1.8-0.5,3.7,0.1,5.5c0.1,0.3,0.3,0.7,0.5,1.1c-0.7-0.3-1.3-0.6-1.9-0.8c-6-2-11.5-1.4-16.6,2.5
	C1.4,97.9,0.7,98.7,0,99.3z"/>
<path class="st7" d="M198.5,92.2c1.6,1.8,2.7,4,3.8,6.2c1.3,2.7,2.5,5.4,3,8.3c0.2,1.2,0,2.4,0.1,3.7c0.3,4.9-1.4,9.1-4.1,13
	c-3.6,5.1-8.4,8.8-13.7,11.9c-3.7,2.2-7.6,3.9-11.7,5.3c-0.4,0.1-0.9,0.2-1.3,0.2c-24.5,0-49,10.9-73.5,10.9
	c-22.7,0-45.4-10.9-68-10.9c-2.4,0-4.7-0.9-6.9-1.8c-5.5-2.3-10-6-13.9-10.5c-3.8-4.3-6.8-9.1-9.1-14.4c-0.1-0.3-0.2-0.5-0.3-0.8
	c0.3,0.4,0.7,0.8,1,1.2c1.7,2.1,3.3,4.3,5.2,6.2c3.2,3.3,6.8,6.1,11.3,7.5c4.7,1.5,8.9,0.5,12.5-3c1.9-1.8,3.3-4,4.4-6.3
	c0.1-0.2,0.2-0.4,0.4-0.6c0.2,0.2,0.4,0.4,0.5,0.6c1.5,2.4,3.2,4.6,5.5,6.3c2.5,1.9,5.3,2.9,8.4,3.2c2.6,0.3,5.3,0.5,8,0.5
	c1.8,0,3.6-0.2,5.2-1.3c1.1-0.7,1.7-1.8,1.7-3.1c0-1-0.2-2.1-0.3-3.1c-0.1-0.5-0.3-0.6-0.8-0.5c-1.4,0.4-2.9,0.8-4.3,1.1
	c-3.7,0.7-7-0.2-9.7-2.9c-0.8-0.8-1.5-1.6-2.4-2.6c0.4,0,0.6,0,0.7,0c3-0.1,5.9-0.1,8.9-0.3c2.4-0.2,4.8-0.5,7.1-1.1
	c6.2-1.6,10.1-5.6,11.7-11.8c0.1-0.5,0.3-1.1,0.4-1.6c0.1,0,0.2,0,0.3,0c0,1.5,0.1,3,0,4.5c-0.2,2.9-1.5,5.5-2.9,8
	c-0.3,0.5-0.7,1-1.2,1.4c-0.6,0.6-0.8,1.2-0.7,2c0.2,2,1.1,3.6,2.7,4.8c3,2.3,6.4,3.8,10.1,4.3c4.6,0.6,9,0,13.2-1.8
	c2.8-1.2,5.4-2.8,7.7-4.9c1.4-1.3,2.6-2.7,3.9-4c0.3,0.9,0.6,1.9,1,2.9c1.3,3,3.5,5,6.3,6.6c3.1,1.8,6.5,2.9,10,3.2
	c2.5,0.2,5,0.4,7.6,0.3c5.5-0.4,10.6-1.7,15.1-5.1c2.3-1.7,3.9-3.8,4.8-6.5c0.2-0.6,0.4-0.6,0.8-0.3c0.9,0.7,1.9,1.4,2.8,2.2
	c1.5,1.3,2.8,2.7,4.3,3.8c2,1.6,4.4,1.9,6.9,2.1c1.4,0.1,2.8,0.2,4.2,0.1c4.4-0.2,8.8-0.1,13.1-1.4c3.8-1.1,7.3-2.6,10-5.6
	c2-2.1,3.2-4.7,3.6-7.6c0.6-4.4,0-8.6-1.4-12.8C199.9,96.2,199.1,94.2,198.5,92.2z"/>
</svg>
