<?xml version="1.0" encoding="utf-8"?>
<!-- Generator: Adobe Illustrator 19.1.1, SVG Export Plug-In . SVG Version: 6.00 Build 0)  -->
<svg version="1.1" id="Layer_1" xmlns="http://www.w3.org/2000/svg" xmlns:xlink="http://www.w3.org/1999/xlink" x="0px" y="0px"
	 viewBox="0 0 107 71.1" style="enable-background:new 0 0 107 71.1;" xml:space="preserve">
<style type="text/css">
	.st0{fill:#B6A180;}
	.st1{fill:#8F7263;}
	.st2{fill:#9C7D6B;}
	.st3{fill:#C4B499;}
	.st4{fill:#B69D83;}
	.st5{fill:#AF9783;}
	.st6{fill:#8F7161;}
	.st7{fill:#C5B59B;}
	.st8{fill:#9A7F6E;}
	.st9{fill:#8C7163;}
	.st10{fill:#593B3B;}
	.st11{fill:#8E7469;}
	.st12{fill:#9B8576;}
	.st13{fill:#563B3C;}
	.st14{fill:#A9978B;}
	.st15{fill:#C7B39B;}
	.st16{fill:#9D7D68;}
	.st17{fill:#573531;}
	.st18{fill:#D1BEA2;}
	.st19{fill:#E4D7C1;}
	.st20{fill:#DDCDAF;}
	.st21{fill:#CEBAA3;}
	.st22{fill:#C0A990;}
	.st23{fill:#EDE0C7;}
	.st24{fill:#C8BCA6;}
</style>
<g>
	<g>
		<path class="st0" d="M19.7,23.3c-2.4-4.4-2.5-4.9,1.6-6.7c5.4-2.4,11-4.3,16.5-6.5c2.3-0.2,3.8,0.8,4.2,3.1
			c-2.4,3.6,0.4,7,0.5,10.5c0,0.5,2.1,1.2,3.3,1.3c3.6,0.2,7.3,0,10.9,0c5.6,3,11.1,5.9,16.7,9c0.7,0.4,1,1.5,1.5,2.2c0,0,0,0,0,0
			c-10,2.3-20,4.6-30.1,6.9c-2.7-1.3-5.4-2.6-8.1-3.9c-2.2-3-4.5-6.1-6.7-9.1c-2.6-2.3-5.1-4.7-7.7-6.9
			C21.8,22.8,20.6,23.2,19.7,23.3z"/>
		<path class="st1" d="M44.8,43.1c10-2.3,20-4.6,30.1-6.9c-1.7,1.3-3.3,2.7-5,4c-1.6,2-1.9,7.3,0.3,9.4c2,2,0.4,1.4-0.7,1.6
			c-0.6,0.1-1.1,0.6-1.6,1c-7.9,3-15.8,6.1-23.8,9.1c-2.3,0.1-3.5-0.8-3.3-3.2c0-1.9,0.1-3.8,0.1-5.7c0.3-2.1,0.8-4.2,0.8-6.3
			C41.8,43.8,42.8,43.1,44.8,43.1z"/>
		<path class="st2" d="M67.8,52.2c0.5-0.3,1-0.8,1.6-1c1.1-0.3,2.7,0.4,0.7-1.6c-2.1-2.1-1.9-7.4-0.3-9.4c0.7,3.4,3.3,1.5,5.1,1.9
			c4.5,0.1,9-0.1,13.5,0.2c7.3,0.4,7.3,0.5,7.6,7.5c0,0.1,0.3,0.3,0.4,0.3c0.5-1.4,1-2.7,1.4-4c0.4,1.4,0.7,2.7,1.1,4.1
			c0,0.3,0,0.7,0,1l0,0c-0.3,0.3-0.7,0.6-1,0.9c0,0,0,0,0,0c-0.7,0.3-1.4,0.6-2,0.9c-7.7-0.3-15.4-0.6-23.1-0.9
			C71.1,52.2,69.5,52.2,67.8,52.2z"/>
		<path class="st3" d="M41.9,13.2c-0.4-2.4-1.9-3.3-4.2-3.1c2.2-1.6,4.4-3.2,6.6-4.7c7-4.7,14.9-8.1,23-2.2c1.5,1.1,3,2.1,4.4,3.1
			c-4.3-0.3-7.3,2-10,5c-0.3,0-0.7,0-1,0c-0.3,0.3-0.7,0.7-1,1c-0.3,0.4-0.6,0.8-0.9,1.1c-2.3-3.7-5.2-2.5-8.2-1.1
			c0,0.3,0,0.5-0.1,0.8C47.8,13.1,44.9,13.2,41.9,13.2z"/>
		<path class="st4" d="M74.9,42.1c-1.8-0.4-4.4,1.4-5.1-1.9c1.7-1.3,3.3-2.7,5-4c0,0,0,0,0,0c2.3-0.7,4.7-1.3,7-2
			c2.2-0.3,4.5-0.6,6.7-1.1c5.5-1.3,10.9-2.7,16.4-4c2.9,2.1,2.1,4.6,1,7.3c-0.2-0.8-0.3-1.6-0.5-2.4c-0.7,0.3-1.4,0.5-1.9,1
			c-1.9,2-3.8,4.1-5.6,6.2c-6.1,0-12.3-0.1-18.4,0C78,41.2,76.5,41.8,74.9,42.1z"/>
		<path class="st5" d="M61.8,11.2c2.7-3,5.7-5.3,10-5c10.1,7,20.1,13.9,30.2,20.9c-4.7-1.3-9.5-2.6-14.2-3.8
			c0.1-0.1,0.3-0.2,0.4-0.3c0.1-0.1,0-0.4,0-0.5c-5.8-2.1-11.7-4.2-17.5-6.3C67.2,15.4,63.9,14.4,61.8,11.2z"/>
		<path class="st6" d="M87.8,23.2c4.7,1.3,9.5,2.6,14.2,3.8c0.6,0.4,1.2,0.7,1.9,1.1c0.4,0.3,0.7,0.6,1.1,0.9c0,0,0,0,0,0
			c-5.5,1.3-10.9,2.8-16.4,4c-2.2,0.5-4.5,0.7-6.7,1.1c-1.4-0.4-2.7-0.7-4.1-1.1c0.3-2.7,0.7-5.3,1-8c0-1,0.1-2,0.1-2.9
			C82.2,19.9,84.8,23.1,87.8,23.2z"/>
		<path class="st7" d="M1,59.3c10.4-8.8,22.6-7.7,30-0.3c-2.7,1.1-5.5,2.1-8.2,3.2c-4.3,0-8.7,0-13-0.1C6.9,61.2,4,60.3,1,59.3z"/>
		<path class="st8" d="M40.8,58c-0.2,2.4,1,3.3,3.3,3.2c-2,1.5-3.6,1.1-4.9-1c-4.1-6.7-8.1-13.4-12.2-20.2c1-3.3,2-6.7,3-10
			c2.2,3,4.5,6.1,6.7,9.1c1,3,2.1,6,3.1,8.9C40.2,51.5,40.5,54.8,40.8,58z"/>
		<path class="st9" d="M9.9,62.2c4.3,0,8.7,0,13,0.1c1.7,2.3,3.3,4.7,5,7c-2,0.4-3.9,0.7-5.9,1.1c-4.4,0.5-7.8-1.5-11-4.2
			c-0.3-0.6-0.6-1.1-1-1.7C10,63.6,9.9,62.9,9.9,62.2z"/>
		<path class="st10" d="M30,30.1c-1,3.3-2,6.7-3,10c-2.4-5.6-4.9-11.2-7.3-16.8c0.9,0,2.1-0.5,2.6,0C25,25.4,27.5,27.8,30,30.1z"/>
		<path class="st11" d="M98,41.2c1.9-2.1,3.7-4.2,5.6-6.2c0.5-0.5,1.3-0.7,1.9-1c0.2,0.8,0.3,1.6,0.5,2.4c0.4,5.7-2.2,10.1-6.1,13.9
			c-0.3,0-0.6,0-1,0c-0.4-1.4-0.7-2.7-1.1-4.1C97.9,44.5,97.9,42.8,98,41.2z"/>
		<path class="st12" d="M27.9,69.2c-1.7-2.3-3.3-4.7-5-7c2.7-1.1,5.5-2.1,8.2-3.2c1.2,2,3.9,5.1,3.3,5.9
			C33,66.9,30.1,67.9,27.9,69.2z"/>
		<path class="st13" d="M9.9,62.2c0.1,0.7,0.1,1.5,0.2,2.2c-0.7,0.7-1.3,1.4-2,2.1c-3,1.3-5.7,1-8-1.4c0.3-1.9,0.7-3.9,1-5.8
			C4,60.3,6.9,61.2,9.9,62.2z"/>
		<path class="st14" d="M0,65.1c2.3,2.4,5.1,2.6,8,1.4c1-0.1,2-0.2,3-0.4c3.2,2.7,6.6,4.8,11,4.2c-1.8,0.3-3.6,0.9-5.3,0.7
			c-4.3-0.6-8.5-1.5-12.7-2.4C2.1,68.2,0.1,67.7,0,65.1z"/>
		<path class="st15" d="M95.8,53.1c0.7-0.3,1.4-0.6,2-0.9C97.2,52.5,96.5,52.8,95.8,53.1z"/>
		<path class="st4" d="M104.9,29.1c-0.4-0.3-0.7-0.6-1.1-0.9C104.2,28.5,104.6,28.8,104.9,29.1z"/>
		<path class="st15" d="M98.9,50.2c0.3,0,0.6,0,1,0c-0.3,0.3-0.6,0.7-0.9,1C98.9,50.9,98.9,50.6,98.9,50.2z"/>
		<path class="st15" d="M97.9,52.2c0.3-0.3,0.7-0.6,1-0.9C98.6,51.6,98.2,51.9,97.9,52.2z"/>
		<path class="st16" d="M77.8,33.1c1.4,0.4,2.7,0.7,4.1,1.1c-2.3,0.7-4.7,1.3-7,2c-0.5-0.8-0.8-1.8-1.5-2.2c-5.5-3.1-11.1-6-16.7-9
			c0-4.2,0-8.4,0-12.5c0.6,1.9,1.2,3.9,2,6.3c0.1-2.2,0.3-3.8,0.4-5.4c0.3-0.4,0.6-0.8,0.9-1.1c0.3-0.3,0.7-0.7,1-1c0.3,0,0.7,0,1,0
			c2.1,3.2,5.4,4.2,8.8,5c1.4,0.8,2.9,1.5,4.2,2.5c1.2,1,2.1,2.3,3.1,3.5c0,1-0.1,2-0.1,3C77.8,27.8,77.8,30.5,77.8,33.1z"/>
		<path class="st17" d="M56.7,12.4c0,4.2,0,8.4,0,12.5c-3.6,0-7.3,0.1-10.9,0c-1.2,0-3.3-0.8-3.3-1.3c-0.1-3.5-2.9-6.9-0.5-10.5
			c3-0.1,5.9-0.1,8.9-0.2c1.4-0.2,2.8-0.4,4.2-0.6C55.5,12.4,56.1,12.4,56.7,12.4z"/>
		<path class="st18" d="M39.8,48.2c-1-3-2.1-6-3.1-8.9c2.7,1.3,5.4,2.6,8.1,3.9c-2,0-3,0.7-3,2.9c0,2.1-0.5,4.2-0.8,6.3
			C40.6,50.9,40.2,49.5,39.8,48.2z"/>
		<path class="st19" d="M39.8,48.2c0.4,1.4,0.7,2.8,1.1,4.1c0,1.9-0.1,3.8-0.1,5.7C40.5,54.8,40.2,51.5,39.8,48.2z"/>
		<path class="st15" d="M98,41.2c0,1.6-0.1,3.3-0.1,4.9c-0.5,1.3-1,2.7-1.4,4C96.3,50.1,96,50,96,49.8c-0.3-7-0.3-7.1-7.6-7.5
			c-4.5-0.3-9-0.2-13.5-0.2c1.5-0.3,3.1-0.9,4.6-0.9C85.7,41.1,91.8,41.2,98,41.2z"/>
		<path class="st20" d="M56.7,12.4c-0.6,0-1.1,0-1.7,0c-1.4-0.1-2.7-0.1-4.1-0.2c3-1.4,5.9-2.6,8.2,1.1c-0.1,1.6-0.2,3.3-0.4,5.4
			C57.9,16.3,57.3,14.4,56.7,12.4z"/>
		<path class="st16" d="M50.9,12.2c1.4,0.1,2.7,0.1,4.1,0.2c-1.4,0.2-2.8,0.4-4.2,0.6C50.8,12.8,50.9,12.5,50.9,12.2z"/>
		<path class="st5" d="M60.9,11.2c-0.3,0.3-0.7,0.7-1,1C60.2,11.9,60.5,11.5,60.9,11.2z"/>
		<path class="st21" d="M77.9,22.2c-1-1.2-1.9-2.5-3.1-3.5c-1.3-1-2.8-1.7-4.2-2.5c5.8,2.1,11.7,4.2,17.5,6.3c0.1,0,0.1,0.3,0,0.5
			c-0.1,0.1-0.2,0.2-0.4,0.3c-3-0.2-5.6-3.3-8.9-1C78.6,22.2,78.2,22.2,77.9,22.2z"/>
		<path class="st22" d="M77.8,33.1c0-2.6,0-5.3,0-7.9c0.3,0,0.7,0,1-0.1C78.5,27.8,78.1,30.4,77.8,33.1z"/>
		<path class="st23" d="M78.8,25.1c-0.3,0-0.7,0-1,0.1c0-1,0.1-2,0.1-3c0.3,0,0.7,0,1,0C78.9,23.2,78.8,24.1,78.8,25.1z"/>
		<path class="st24" d="M11,66.1c-1,0.1-2,0.2-3,0.4c0.7-0.7,1.3-1.4,2-2.1C10.3,64.9,10.7,65.5,11,66.1z"/>
	</g>
</g>
</svg>
