<?xml version="1.0" encoding="utf-8"?>
<!-- Generator: Adobe Illustrator 19.1.1, SVG Export Plug-In . SVG Version: 6.00 Build 0)  -->
<svg version="1.1" id="Layer_1" xmlns="http://www.w3.org/2000/svg" xmlns:xlink="http://www.w3.org/1999/xlink" x="0px" y="0px"
	 viewBox="0 0 218 158.5" style="enable-background:new 0 0 218 158.5;" xml:space="preserve">
<style type="text/css">
	.st0{fill:#A68E75;}
	.st1{fill:#A07C69;}
	.st2{fill:#C7B48E;}
	.st3{fill:#AE927C;}
	.st4{fill:#B1937E;}
	.st5{fill:#9D7D6C;}
	.st6{fill:#C6B492;}
	.st7{fill:#C5B594;}
	.st8{fill:#C5B497;}
	.st9{fill:#C6B394;}
	.st10{fill:#C6B395;}
	.st11{fill:#583534;}
	.st12{fill:#9C7D6C;}
	.st13{fill:#583537;}
	.st14{fill:#9E816F;}
	.st15{fill:#9C7D69;}
	.st16{fill:#AE9984;}
	.st17{fill:#5A3332;}
	.st18{fill:#9D7D6A;}
	.st19{fill:#583734;}
	.st20{fill:#C4AF98;}
	.st21{fill:#593C3B;}
	.st22{fill:#AD9684;}
	.st23{fill:#5B3F41;}
	.st24{fill:#B59F8A;}
	.st25{fill:#614546;}
	.st26{fill:#B29F8D;}
	.st27{fill:#C1AC91;}
	.st28{fill:#B4A490;}
	.st29{fill:#A37A68;}
	.st30{fill:#A78E73;}
	.st31{fill:#C7B291;}
	.st32{fill:#C7B38F;}
	.st33{fill:#553533;}
	.st34{fill:#9C826F;}
	.st35{fill:#5A3835;}
	.st36{fill:#60413C;}
	.st37{fill:#C8B28F;}
	.st38{fill:#9F7F6B;}
	.st39{fill:#C4AF90;}
	.st40{fill:#B0987B;}
	.st41{fill:#624139;}
	.st42{fill:#C8B38D;}
	.st43{fill:#A88E74;}
	.st44{fill:#C6B291;}
	.st45{fill:#563333;}
	.st46{fill:#57332F;}
	.st47{fill:#C6AC8E;}
	.st48{fill:#DCCCAD;}
	.st49{fill:#D7C3A3;}
	.st50{fill:#C1A68D;}
	.st51{fill:#9F7C6B;}
	.st52{fill:#5B3332;}
	.st53{fill:#DBCAAD;}
	.st54{fill:#DBCEB0;}
	.st55{fill:#AF9378;}
	.st56{fill:#9F8169;}
	.st57{fill:#E4D6B7;}
	.st58{fill:#5C3631;}
	.st59{fill:#C6B296;}
	.st60{fill:#F6F1D3;}
	.st61{fill:#56342F;}
	.st62{fill:#DDCCAC;}
	.st63{fill:#D0BF9E;}
	.st64{fill:#643834;}
	.st65{fill:#523230;}
	.st66{fill:#AF937A;}
</style>
<g>
	<g>
		<path class="st0" d="M0,110.2c1.5-0.7,1.2-2.3,1.7-3.4c2.4-5.2,6-8.7,12.1-8.8c-0.1,1.7-1.4,2.4-2.6,3.1c-0.7,0.4-1,0.7-0.2,1.3
			c-0.7,1-2.4,1.3-2.1,3c-1.9,1.1-0.8,2.9-0.9,4.3c-0.1,1.2,0.6,2.4,2,2.2c1.7-0.2,0.8-1.8,1.1-2.7c3,1.4,5,4.2,8,6.1
			c1.6-1.6,3.9-2.1,5.9-3c0.6-0.3,1.3-0.7,1.9-1c2.5,2.4,6.2,1.7,9.1,3.1c1.2,1.4,2.5,0.8,4,0.4c3.9-1,7.4-2.9,11-4.6
			c0.6,1.4,1.7,2.3,3,3c1.6,2-0.2,4,0,6c-0.8,0.1-2.2,0.1-2.3,0.4c-1,4.1-4.9,5.3-7.7,7.6c-2-0.3-3.8,0.7-5.5,1.4
			c-1.8,0.7-3,0.5-4.5-0.4c-0.5-0.6-1.1-1.2-1.5-1.9c-1.3-2-2.4-1.2-3.6,0.1c-3.3-1.6-6.9-1.4-10.3-2c-1.5-0.3-3.3,0.5-4.5-1.1
			c0.6-0.2,1.3-0.1,1.8-1.1c-1.4-1.6-3.4-2.1-5.3-3c-3.5-1.5-7.1-2.9-9.7-6l-0.4,0.1L0,113.2C0,112.2,0,111.2,0,110.2z"/>
		<path class="st1" d="M113.2,119.4c-1.7,1.8-3.9,1.8-6,1.5c-10.6-1.5-21.2-0.9-31.8,0c-3.2,0.3-6.7,1.3-9.4-1.6
			c0.9-0.2,1.9-0.1,2.2-1.2c2.8-2.6,6-4.3,9.8-4.9c3.2-0.3,6.4-1,9.5-2c7.5-2.4,7.5-2.4,7.5-10.1c-2.2-6.2-3-12.7-4.8-19
			c2.3,0,4.6,0,6.9,0c6.4,0,12.9,0.3,19.3,0c4.2-0.2,6.9,1.4,8.7,5c0.8,1.8,2.2,3.1,3.9,4.1c0.2,0.2,0,1,0.7,0.4
			c-0.2-0.1-0.4-0.3-0.7-0.4c-0.1-2.2-1.9-3.4-3-5c-1-2.7-0.5-4.7,2.2-6.2c1.6-0.8,2.9-2.2,3.8-3.8c2.5-0.3,3.7-2.2,4.9-4.1
			c2,1,3.3,3.2,5.9,3c0.3,0.7,0.7,1,1.4,0.4c1.5-1.4,2.4-3.3,3-5.1c0.9-2.8,2.8-4.1,5.4-4.1c4.2,0,8.2-0.9,12.3-1.3c1,0,2,0.1,3,0
			c5.7-1.1,11.3-2,17.1-1.9c1.2,0.2,2.5-0.3,3.1,1.6c1.4,4.9,1.8,10.1,4,15.4c-2.7-1.6-2.7-1.6-5.1-6l0,0c-0.1-0.6-0.4-0.9-1-1
			c-1.4-0.6-2.3-1.8-3.3-2.9c-5.3-5.4-11.3-4.3-17.6-1.5c4.3,2.1,8.7,4.3,13,6.4c0.2,7-1.7,13.9-1,21c-4.2,0.6-7.7-1.7-11.3-3.1
			c-6.9-2.7-14-4.3-21.5-3.3c-1.4,0.2-1,1-1.2,1.6c-0.4-0.2-0.9-0.4-1.3-0.6c-1.4,3.4-5.3,5.5-4,10.3c0.8,2.9,1.1,6.1,1.3,9.2
			c-2.4-0.5-4.7,0.4-7,1c2-4.2,0.9-8.4,0.8-12.8c-2,0.1-3.1,1.2-4.4,1.8c-2.5,0.2-4.6,1.2-6.4,3c-0.6,0.1-1,0.4-1,1l0.1,0
			c-3.7,1.3-7.4,0.2-11.1,0c-2-2-4.2-0.6-6.4-0.4c2.2,0.4,4.3,0.9,6.5,1.3c4.5,0.9,5.1,2.2,4,7.1l0-0.1c-1.2,0.4-1.1,1.4-1,2.4
			c0.2,0.9,0,1.8-0.5,2.6C111.9,118.2,112.1,119,113.2,119.4z"/>
		<path class="st2" d="M185,63.2c-5.8-0.1-11.4,0.8-17.1,1.9c-1,0.2-2,0-3,0c-3.3-1.8-6.6-1-10-0.4c-3.5,0.7-6.8,0.7-10.1-1
			c-1-0.5-2.2-2.5-3.8-0.8c-5.7-3.6-11.4-7.1-17.1-10.7c0.4-0.9,1.2-1.3,2-0.9c2.8,1.4,5.9,0.8,8.8,0.8c2.8,0,5.6,0,8.3,1
			c0.7,0.3,1.3,0.7,2,1c4.4,2.2,8.3,1.1,11.5-2.1c6.3-6.2,11-13.9,17.1-20.3c1.1-1.1,1.7-2.8,1.4-4.6c6.3,4.2,12.8,7.8,19.5,11.2
			c2.6,1.3,5.2,2.8,6.3,5.8c-2.6,1.7-4.3,4-5.8,6.6C192.4,55.6,190,60.5,185,63.2z"/>
		<path class="st3" d="M185,63.2c5-2.7,7.4-7.6,10.1-12.3c1.5-2.6,3.2-5,5.8-6.6c0.9,6,1.8,12.1,2.8,18.1c0.4,2.3-0.5,4.2-1.3,6.2
			c-2.3,5.3-4.5,10.7-7,15.9c-1.2,2.6-1.6,5-0.1,7.5c-1.1,2.2-3.3,3.5-4.8,5.4c-1.3,1.6-0.7,2.7,0.6,3.9c-3-0.8-4.6,0.6-5.6,3.3
			c-0.7,1.8-1.5,3.6-2.3,5.4c-0.5,1.1-0.8,2-0.1,3.2c1.8,2.9,2.5,6.4,4.9,8.9c0.1,0.2,0.2,0.3,0.3,0.5c-1.6,0.7-3.4,1.2-4.9,2.2
			c-5,3.1-10.2,3.3-15.6,1.4c-4.3-1.5-8.8-2.4-12.8-4.8c3.1,0.5,4.1-1.8,5.1-4.1c0.4-0.3,1-0.4,1.2-0.8c2.2-3.8,5.6-4.5,9.7-4.3
			c3.2,0.2,6.5,0.4,10.3-0.4c-2.7-5.1-5.7-9.8-4.3-15.5c-0.7-7,1.2-14,1-21c3-0.6,6.2,1.2,9-1c2.3,4.4,2.3,4.4,5.1,6
			c-2.2-5.3-2.6-10.4-4-15.4C187.5,62.9,186.2,63.4,185,63.2z"/>
		<path class="st4" d="M175,27.3c0.3,1.8-0.3,3.5-1.4,4.6c-6.1,6.4-10.8,14.1-17.1,20.3c-3.2,3.2-7.2,4.3-11.5,2.1
			c0.6-0.1,1.7-0.1,1.5-0.8c-1.3-3.3-0.4-6.7-1.1-10.2c-0.7-3.6-1.8-7.3-1.3-11.1c1.4-0.7,0.9-2,1-3c0.1-3.6,0-7.2,0.1-10.8
			c2.3,0.4,3.5-1.4,5.1-2.6c3.7-2.9,8.6-4.1,11.9-7.7c3.9,3.7,5.7,8.8,8.9,13C172.4,23,173.6,25.2,175,27.3z"/>
		<path class="st5" d="M215,98.2c0.3,0.6,0.7,1.2,0.8,1.8c0.3,3.5,3.9,7.1,1.2,10.3c-4.4,5.1-8.6,10.7-16.5,10.9
			c-4.1,0.1-8.3,0.8-12.4,1.3c-0.1-0.2-0.2-0.3-0.3-0.5c2.4-6.3,4.8-12.5,7.2-18.8c4.1,0,8.2-0.1,12.3,0.1c3.1,0.1,5.9,0.3,6.2-3.9
			C213.6,98.9,214.5,98.6,215,98.2z"/>
		<path class="st6" d="M117.2,132.3c-0.4-1.1,0.2-1.9,0.9-2.6c2.3-2.4,4.6-4.7,6.9-7.1c1.4-1.5,3-2.5,5.2-2.3
			c1.7,0.2,3.3-0.2,4.7-1.1c2.5-1.6,4.6-1.1,6.5,1.1c2.8,3.3,5.5,6.6,6.4,10.9c-1.7-1.2-3.1-1.2-3.9,1c-0.3,0-0.6,0-1,0.1
			c-0.6,0.1-0.9,0.4-1,0.9c-3.5,2.6-7.8,4-11,7c-0.7-1.3-2.1-1.6-3.4-1.9c-2.9-1.3-4.9-3.7-7-5.9
			C119.3,131.1,118.3,131.5,117.2,132.3z"/>
		<path class="st7" d="M162,8.1c-3.3,3.6-8.2,4.7-11.9,7.7c-1.5,1.2-2.7,3-5.1,2.6c0-0.3,0-0.7-0.1-1c0.5-0.1,1-0.1,1.4-0.3
			c0.2-0.1,0-0.5-0.4-0.5c-0.6,0-0.9,0.3-1,0.8c-1.2,0.1-2.1-0.6-2.9-1.3c-0.9-0.8-1.7-0.8-2.2,0.4c-2.5-1.6-4.2-4.1-6.3-6.1
			c-1.1-1-1.9-2.3-3.6-2.1c4-3.8,8.9-6.4,14.1-7.7C151.6-1.3,157.4,2.2,162,8.1z"/>
		<path class="st8" d="M60,137.2c0.4-1.8,2.1-2,3.4-2.6c1.5-0.7,3.2-0.9,4.7-1.5c7.6-3.5,14.9-1.5,21.9,1.4c3.4,1.4,6.1,4.3,8.1,7.7
			c-3.5,0.7-7,1.7-10.6,1.9c-1.9,0.1-2.3,1.6-3.6,2.2c-0.4,0-0.8,0.1-1.1,0.1c-0.6,0-1.2,0.1-1.8,0.1c0.4-1.2,1.1-2.5-0.8-3.2
			c-5.7-2.1-11.4-4.2-17-6.5C62,136.4,61.1,137.5,60,137.2z"/>
		<path class="st9" d="M85.2,12.3c1.5-1.4,3-2.9,4.6-4.3c3.2-2.8,7.2-2.8,11.1-2.8c5.5,1.4,10.7,3.3,15.1,7c-1.3,2-2.7,4-4,6
			c-1.3,0.2-2.9-0.7-3.9,0.9c-3.7,0-7.4,0-11,0.1c-1-0.7-2-1.3-3-2C90.7,16.3,88.9,12.5,85.2,12.3z"/>
		<path class="st10" d="M215,98.2c-0.5,0.4-1.4,0.8-1.5,1.2c-0.3,4.2-3.2,4-6.2,3.9c-4.1-0.2-8.2-0.1-12.3-0.1
			c-1.4-0.6-2.7-1.3-4.1-1.9c-1.3-1.1-1.9-2.3-0.6-3.9c1.5-1.9,3.7-3.2,4.8-5.4c2.7-0.8,5.3-2.1,8.4-1.9
			C210.2,90.3,212.4,91.6,215,98.2z"/>
		<path class="st11" d="M130,8.2c1.7-0.2,2.6,1.1,3.6,2.1c2.1,2,3.8,4.5,6.3,6.1c2.3,2.4,0.3,4.1-0.9,5.9c-1.4,1.1-2.2,2.6-3.1,4.1
			c-0.7,1.2-1.6,1.9-3,2c-0.3-0.1-0.6-0.1-0.9-0.1c-2.9-1.6-5.8-3.2-9-4c-0.4-2.4-0.8-4.8-1.2-7.2C124.5,14.1,127.3,11.1,130,8.2z"
			/>
		<path class="st12" d="M160,117.2c-1,2.3-2,4.5-5.1,4.1c-4.2-1.3-8.1-3.2-12-5c-0.9-0.4-1.8-0.9-2-2c2.4-0.2,2.5-2.1,3.2-3.8
			c1.1-3.1,1.3-6.4,3.1-9.3c4.3,2.2,7.5,5.6,11,8.7C160.5,111.9,161.3,114.3,160,117.2z"/>
		<path class="st13" d="M128.4,100.3c1.3-0.7,2.4-1.7,4.4-1.8c0.2,4.3,1.3,8.6-0.8,12.8c-6.3,2.7-12.6,5.5-18.8,8.2
			c-1.1-0.5-1.3-1.2-0.7-2.2c0.5-0.8,0.7-1.7,0.5-2.6c1-0.5,1.1-1.4,1-2.4l0,0.1c2.5-2.5,4-5.9,7-8c0,0-0.1,0-0.1,0c0,0,0.5,0,0.5,0
			l0.5-0.1C124.3,103.2,126.6,102.2,128.4,100.3z"/>
		<path class="st14" d="M131,140.2c3.2-3,7.5-4.4,11-7c0.6-0.1,0.9-0.4,1-0.9c0.3,0,0.6,0,1-0.1c3.3,3,3.2,7,3,11l0,0
			c-1.5-0.1-2.5,0.6-3,2c-4.6,3.1-9.3,4-14.4,1c-2.4-1.4-5.4-1.2-7.6-3.1c2-1,3.9-2,5.9-3C128.9,141.7,130,141.6,131,140.2z"/>
		<path class="st15" d="M60,137.2c1.1,0.3,2-0.9,3.3-0.4c5.6,2.2,11.3,4.3,17,6.5c1.9,0.7,1.1,2,0.8,3.2c-1.2,2.6-4.3,2.8-6,4.7
			c-0.1-2.6-2.2-2.6-4-3c-3.2-1.3-6.4-2.7-9.6-4c-1.5-0.6-3.4-0.7-3.4-3C58.7,139.9,59.3,138.6,60,137.2z"/>
		<path class="st16" d="M83.9,146.3c1.3-0.6,1.6-2.1,3.6-2.2c3.5-0.2,7-1.2,10.6-1.9c1.5,4.9,0.4,8.2-3.6,10.3
			c-3.3,1.8-6.8,3.4-10.2,5c-2.5,1.2-5,1.3-7.4-0.1c0.8,0,1.6-0.1,2.4-0.1c3.6,0,3.6,0,3.7-3.7c0-1.8,0.1-3.5,0.2-5.3
			C84,147.8,84,147.1,83.9,146.3z"/>
		<path class="st17" d="M147.1,101.2c-1.7,2.9-2,6.2-3.1,9.3c-0.6,1.7-0.8,3.6-3.2,3.8c-1-1.2-1.5-2.6-1.9-4.1
			c-0.2-3.1-0.5-6.3-1.3-9.2c-1.4-4.8,2.5-7,4-10.3c0.4,0.2,0.9,0.4,1.3,0.6C144.3,94.7,146.9,97.4,147.1,101.2z"/>
		<path class="st18" d="M121.8,17c0.4,2.4,0.8,4.8,1.2,7.2c0.7,2.1,0.7,3.6-1.9,4.5c-2.1,0.7-4.1,1.9-6.2,3
			c-1.1,0.5-2.1,0.9-3.1-0.2c1.5-2.3-0.6-4.2-0.7-6.4c1.2-1.1,1.2-2-0.2-2.9l0,0.1c1.2-2.7,3.4-3.2,6-3.1c1.6,0,3.9,1,4-2.1
			C121.3,17.1,121.6,17,121.8,17z"/>
		<path class="st19" d="M68.2,118.1c-0.3,1.2-1.4,1-2.2,1.2c-2.8-1.2-5.6-2.6-8.5-3.7c-1.7-0.6-1.8-2.2-2.6-3.3
			c-0.7-2.7-1.3-5.3-2-8c0.2-0.6,0.5-1,1.1-1.1c3.1,2.6,5.6,5.8,9.1,7.8c0.2,0.3,0.5,0.4,0.9,0.3c0,0-0.1-0.1-0.1-0.1
			c0,0.7,0.5,1,1.1,1.1C65.9,114.4,68.4,115.4,68.2,118.1z"/>
		<path class="st20" d="M58,141.2c0,2.3,2,2.4,3.4,3c3.2,1.4,6.4,2.7,9.6,4c0.1,0.7,1.4,1.6-0.6,2.1c-3.3,0.8-7.3,0-9.3,3.9
			c-1-4.4-4.5-7.1-10.1-7.9C52.7,143.6,56.2,143.7,58,141.2z"/>
		<path class="st21" d="M127.9,140.2c-2,1-3.9,2-5.9,3c-5.6-2.1-6.2-3.2-5.2-8.4c0.2-0.8,0.3-1.6,0.4-2.4c1.1-0.9,2.1-1.2,3.4,0
			c2.2,2.2,4.1,4.6,7,5.9C127.7,138.9,127.8,139.6,127.9,140.2z"/>
		<path class="st22" d="M75,151.2c-0.5,1.9-2.5,3.6-0.9,5.8c-4.3-0.8-8.9-0.3-13.1-1.8c0-0.3,0-0.7,0.2-1c2-3.9,6-3,9.3-3.9
			c1.9-0.5,0.6-1.3,0.6-2.1C72.8,148.6,74.9,148.6,75,151.2z"/>
		<path class="st23" d="M61.1,154.2c-0.1,0.3-0.2,0.6-0.2,1c-1.5,0.3-2.8-0.4-4.2-0.8c-5.9-1.9-5.9-1.9-5.7-8.1
			C56.6,147.1,60.1,149.8,61.1,154.2z"/>
		<path class="st24" d="M121,17.1c-0.1,3-2.5,2.1-4,2.1c-2.7-0.1-4.9,0.4-6,3.1c-1-0.3-0.9-1.2-1.1-2c1.1-0.3,1.8-1,2.1-2.1
			c1.3-2,2.7-4,4-6C118,13.5,119.5,15.3,121,17.1z"/>
		<path class="st25" d="M0.9,113.2c2.6,3.1,6.2,4.4,9.7,6c1.9,0.8,3.9,1.4,5.3,3c-0.5,0.9-1.2,0.9-1.8,1.1c-3-1-6-2.1-9-3.1
			c-1.3-1.3-2.5-2.6-3.8-3.9C1.1,115.2,1,114.2,0.9,113.2z"/>
		<path class="st26" d="M147,143.2c0.1-4,0.3-8-3-11c0.8-2.2,2.2-2.1,3.9-1C149.5,135.4,149.2,139.4,147,143.2z"/>
		<path class="st27" d="M52.9,104.3c0.7,2.7,1.3,5.3,2,8c-0.6,0-0.8,0.4-1,0.9c-1.3-0.7-2.3-1.7-3-3C51,108.1,51.5,106,52.9,104.3z"
			/>
		<path class="st0" d="M1.2,116.2c1.3,1.3,2.5,2.6,3.8,3.9C2.6,119.9,1.2,118.7,1.2,116.2z"/>
		<path class="st26" d="M144,145.3c0.5-1.4,1.5-2.1,3-2C146.5,144.6,145.4,145.2,144,145.3z"/>
		<path class="st28" d="M53.9,119.2c-0.8,0.1-2.2,0.1-2.3,0.4c-1,4.1-4.9,5.3-7.7,7.6c-2-0.3-3.8,0.7-5.5,1.4
			c-1.8,0.7-3,0.5-4.5-0.4c-0.5-0.6-1.1-1.2-1.5-1.9c-1.3-2-2.4-1.2-3.6,0.1c0.9,1.6,2.5,2.3,4,3l0,0c0.1,0.6,0.4,1,1,1.1
			c5.3,3.4,10.3,2,15.1-1.1C52.6,126.8,54.8,123.8,53.9,119.2z"/>
		<path class="st29" d="M39.1,51.2c-0.4-2.1,1.3-2.9,2.5-4c4.4-3.7,8.9-7.3,13.4-11c4.7-0.3,9.4,0.4,14.1,0.9
			c8.8,0.1,17.5,1.5,26.2,2.3c4.2,0.4,8.4,1,12.1,3.9c2.6,2,5.7,3.3,8.6,4.9c1.2,3.3,4.9,2.2,7,4c-2.5,1.4-3,3-2,6.1
			c-5.1-0.1-10.2,0.1-15.3,0.8c-4.1,0.6-8.2,1.2-11.8,3.2c-4,2.2-7.9,4.6-11.9,6.9c-3-1.3-6-2.5-9-3.8c-0.3-3.1-0.8-3.8-4.7-5.6
			c1,1.9,1.9,3.6,2.9,5.4c-0.3,0.1-0.8,0-0.9,0.2c-4.7,4.7-10.4,8.2-14.9,13.1c-0.9,1-1.8,2-3.3,1.8c0.3-1.5-1.3-2.6-0.8-4.1
			c0.8-3.6,2.5-6.7,5.5-9c0.2-0.2,0.3-0.5,0.5-0.8c3.8-2.5,7.3-5.4,10-9.3C66,55.9,65,55,64.3,54c-2.9-4.2-7.2-4.5-11.4-3.5
			c-3,0.7-6.1,0.7-9.1,1.6c-1.1-1.1-2.3-1.7-3.9-0.8C39.7,51.2,39.4,51.2,39.1,51.2z"/>
		<path class="st30" d="M73,65.4c3,1.3,6,2.5,9,3.8c-1,1.6-3.7,0.8-4.1,3.1c-3.6,7.7-7.2,15.3-10.8,23c-0.4-0.9-1.1-1.3-1.9-1.1
			c-4,1.1-8.2,1.4-12.1,3c-1.8-0.4-2.4-3-4.8-2.7c1.7,8.7,1.8,6.6-3.3,9.7c3-3.4,3.8-7,1-11c-3.2-2-5.1-5.8-9-6.8
			c1.5-1.1,0.2-1.7-0.6-2c-4-1.9-7.7-4.6-11.7-6.5c-3.1-1.5-5.7-3.9-9.2-4.5c-0.9,1.3-0.1,2.7-0.6,3.9c-2.2-6.7,1.4-13.6,7.9-15
			c2.4-0.5,4.7-1.3,7.2-1.1c1.1,0,2.3,0.4,3.1-0.8c0.7-0.1,1.3-0.1,2-0.2c-0.7,2-1.3,4-2,6.1c0.3,2.4,0.7,4.8,1,7.2
			c0.1,1.3,0.7,2.3,1.9,2.5c5.5,1,10.5,3.8,16.1,4.2c1.5,0.2,2.4-0.8,3.3-1.8c4.5-4.9,10.2-8.4,14.9-13.1c0.2-0.2,0.6-0.1,0.9-0.2
			C71.7,65.3,72.3,65.3,73,65.4z"/>
		<path class="st31" d="M69.1,37.1c-4.7-0.6-9.3-1.2-14.1-0.9c7.9-5.9,16.3-11.2,25-16c-0.1,1.4,0.1,2.5,1.6,3.2
			c1.1,0.6,2.7,0.5,3.5,1.7c0.8,1.6,2.3,1,3.5,1c4,0,7.8,1.1,11.7,1.9c3.9,1.1,7.8,2.3,11.7,3.4c0.9,1.1,2,0.8,3.1,0.2
			c2-1,4-2.2,6.2-3c2.5-0.9,2.6-2.4,1.9-4.5c3.2,0.8,6.1,2.4,9,4c-0.6,1.9-2.3,2.3-3.8,2.8c-3.3,1.2-6.8,2.2-10.2,3.2
			c-1.1-1.7-2.5-0.9-4-0.6c-3.5,0.6-6.9,2-10.4,2.7c-4.5,1-8.7,0.3-13.1,0c-6.1-0.4-12.2-0.1-18.4-0.1
			C71.1,36.2,69.8,35.8,69.1,37.1z"/>
		<path class="st32" d="M36.9,86.4c3.9,1,5.8,4.8,9,6.8c-0.1,0.5,0,1.2-0.3,1.4c-3.8,2.6-5.7,7.1-9.4,9.8c-2.2,1.7-0.5,2.6,0.6,3.7
			c-2.6,0.4-5.4-0.5-7.8,1.2c-0.7-3.2-0.7-3.2-3.8-5c-2.6-1.5-5.2-3.1-7.4-5.2c-0.7-2.9-0.3-6.1-1.8-8.8c0-1.4,0-2.8,0-4.1
			c1.7,1.6,3.8,1.2,5.6,0.8C26.8,85.8,31.9,86.2,36.9,86.4z"/>
		<path class="st33" d="M36.9,86.4c-5.1-0.2-10.2-0.6-15.2,0.5c-1.9,0.4-3.9,0.8-5.6-0.8c-0.4-3-0.8-5.9-1.2-8.9
			c0.5-1.2-0.3-2.7,0.6-3.9c3.5,0.6,6.2,3,9.2,4.5c4,1.9,7.7,4.6,11.7,6.5C37.2,84.8,38.4,85.3,36.9,86.4z"/>
		<path class="st34" d="M85.2,12.3c3.8,0.2,5.5,3.9,8.8,4.9c-0.8,3.1-3.4,2.8-5.6,2.6c-0.9-0.1-1.7-0.9-2.4,0.4
			c-1.7-0.5-2.9-2.2-4.9-2C82.1,16,83.7,14.2,85.2,12.3z"/>
		<path class="st35" d="M81.1,18.3c2-0.2,3.2,1.4,4.9,2l0,0c0.3,0.4,0.6,0.8,0.9,1.1c-0.9,1.1,2.8,4.6-1.9,3.8
			c-0.8-1.3-2.3-1.2-3.5-1.7c-1.5-0.8-1.7-1.8-1.6-3.2C80.4,19.6,80.7,18.9,81.1,18.3z"/>
		<path class="st36" d="M16.1,90.3c1.5,2.8,1.2,5.9,1.8,8.8c-1,0.7-2,1.3-3,2c-1.3,0.4-2.6,0.8-3.9,1.2c-0.8-0.5-0.5-0.9,0.2-1.3
			c1.2-0.7,2.5-1.4,2.6-3.1C15.2,95.6,15.4,92.9,16.1,90.3z"/>
		<path class="st37" d="M33,60.4c-0.8,1.3-2,0.8-3.1,0.8C30.7,60,31.9,60.3,33,60.4z"/>
		<path class="st37" d="M64.3,54c-2.9-4.2-7.2-4.5-11.4-3.5c-3,0.7-6.1,0.7-9.1,1.6c-1.2,0.2-2.4,0.5-3.7,0.1c0-0.3-0.1-0.6-0.2-0.9
			c-0.3,0-0.5-0.1-0.8-0.1c0.2,0.4,0.4,0.9,0.6,1.3c-1,2.9-2.8,5.4-4.7,7.7c-0.7,2-1.3,4-2,6.1c5.4,1.1,10.3,4.1,15.8,5.1
			c2.5-1.5,4.9-3,6.9-5.2c0.5-0.6,1.1-0.6,1.4,0.2c3.8-2.5,7.3-5.4,10-9.3C66,55.9,65,55,64.3,54z"/>
		<path class="st38" d="M45,104.2c5.1-3,5-0.9,3.3-9.7c2.4-0.4,3,2.3,4.8,2.7c-0.1,2.1-0.3,4.1,0.9,6c-0.6,0.1-1,0.5-1.1,1.1
			c-1.4,1.7-1.9,3.7-1.9,5.9c-3.6,1.6-7.1,3.6-11,4.6c-1.4,0.4-2.8,1-4-0.4c2.2,0.1,3.5-0.6,3-3.1c-0.1-0.6,0-1.3,0-2
			C40.7,107.2,42.3,105,45,104.2z"/>
		<path class="st39" d="M11,102.4c1.3-0.4,2.6-0.8,3.9-1.2c3,1.9,5,4.7,7.5,7.1c1.2,1.1,2.7,2,2.6,4c-2.1,0.9-4.3,1.5-5.9,3
			c-3-1.9-5-4.7-8-6.1c-0.7-1.3-1.4-2.6-2.1-3.9C8.6,103.6,10.4,103.4,11,102.4z"/>
		<path class="st40" d="M25,112.2c0.1-2-1.4-2.9-2.6-4c-2.5-2.4-4.6-5.2-7.5-7.1c1-0.7,2-1.3,3-2c2.2,2.1,4.8,3.7,7.4,5.2
			c3.1,1.8,3.1,1.8,3.8,5c-0.6,0.9-1.2,1.6-2.2,1.9C26.3,111.6,25.6,111.9,25,112.2z"/>
		<path class="st41" d="M8.9,105.4c0.7,1.3,1.4,2.6,2.1,3.9c-0.3,1,0.6,2.6-1.1,2.7c-1.3,0.1-2.1-1-2-2.2
			C8.1,108.2,7,106.4,8.9,105.4z"/>
		<path class="st42" d="M77.9,72.4c0.4-2.3,3.1-1.6,4.1-3.1c3.9-2.3,7.9-4.7,11.9-6.9c3.7-2,7.7-2.7,11.8-3.2
			c5.1-0.7,10.2-0.9,15.3-0.8c5.3,4.7,11.1,8.8,16.1,13.9c-1.2,1.8-2.4,3.8-4.9,4.1c-2.5,0.4-4.8,1-6.6,2.9c-1.7,1.7-4,2.1-6.4,2.1
			c-6.1-0.1-12.3-0.1-18.4,0c-1.2,0-2.7-0.6-3.6,0.9c-2.3,0-4.6,0-6.9,0c-3.7-3-7.4-5.9-11.2-8.9C78.9,72.7,78.5,72.3,77.9,72.4
			L77.9,72.4z"/>
		<path class="st43" d="M147.1,101.2c-0.3-3.8-2.8-6.6-4.2-9.9c0.3-0.6-0.2-1.4,1.2-1.6c7.5-1,14.6,0.6,21.5,3.3
			c3.6,1.4,7.1,3.7,11.3,3.1c-1.4,5.7,1.6,10.4,4.3,15.5c-3.8,0.8-7.1,0.6-10.3,0.4c-4.1-0.3-7.5,0.5-9.7,4.3
			c-0.2,0.4-0.8,0.5-1.2,0.8c1.3-2.9,0.5-5.3-1.9-7.3C154.6,106.8,151.4,103.4,147.1,101.2z"/>
		<path class="st44" d="M54,103.2c-1.3-1.8-1.1-3.9-0.9-6c3.9-1.5,8.1-1.9,12.1-3c0.8-0.2,1.6,0.2,1.9,1.1c-0.7,1.3-0.3,2,1.1,2.4
			c2.7,0.8,5.5,0.6,8.3,1c6.1,1,12.2,2.5,18.5,2.4c0,7.7,0,7.7-7.5,10.1c-3.1,1-6.3,1.7-9.5,2c-0.8-1.4-1.8-0.8-2.9-0.5
			c-3.6,1.1-6.9,0.5-10-1.4c-0.4,0-0.7,0-1.1,0c0,0,0.1,0.1,0.1,0.1c-0.1-0.6-0.2-1.3-0.9-0.3C59.6,109,57.1,105.8,54,103.2z"/>
		<path class="st45" d="M95,101.2c-6.3,0.2-12.4-1.3-18.5-2.4c-2.8-0.5-5.6-0.2-8.3-1c-1.4-0.4-1.8-1.1-1.1-2.4
			c3.6-7.7,7.2-15.3,10.8-23l0,0c0.1,0.6,0.5,0.8,1.1,1c3.7,3,7.4,5.9,11.2,8.9C92,88.4,92.8,95,95,101.2z"/>
		<path class="st46" d="M137,72.2c-4.9-5.1-10.7-9.3-16.1-13.9c-1-3.1-0.5-4.6,2-6.1c0.3,0.1,0.6,0.1,0.9,0.1
			c5.7,3.6,11.4,7.1,17.1,10.7c5.3,3.6,5.3,3.6,3,9.4c-0.4,0.9-0.8,1.8-1.1,2.7C140.4,75.3,139,73.1,137,72.2z"/>
		<path class="st47" d="M187,74.2c-2.8,2.2-6,0.4-9,1c-4.3-2.1-8.7-4.3-13-6.4c6.4-2.7,12.4-3.8,17.6,1.5c1,1,1.9,2.3,3.3,2.9
			C186.1,73.8,186.4,74.1,187,74.2L187,74.2z"/>
		<path class="st48" d="M142.9,75.2c0.4-0.9,0.8-1.8,1.1-2.7c2.4-5.9,2.4-5.9-3-9.4c1.6-1.8,2.8,0.2,3.8,0.8c3.3,1.8,6.6,1.7,10.1,1
			c3.3-0.7,6.7-1.5,10,0.4c-4.1,0.3-8.1,1.3-12.3,1.3c-2.6,0-4.5,1.3-5.4,4.1c-0.6,1.8-1.5,3.7-3,5.1
			C143.6,76.2,143.2,75.9,142.9,75.2z"/>
		<path class="st48" d="M128.3,80c1.6-0.8,2.9-2.2,3.8-3.8c-2.5,0.4-4.8,1-6.6,2.9c-1.7,1.7-4,2.1-6.4,2.1c-6.1-0.1-12.3-0.1-18.4,0
			c-1.2,0-2.7-0.6-3.6,0.9c6.4,0,12.9,0.3,19.3,0c4.2-0.2,6.9,1.4,8.7,5c0.8,1.8,2.2,3.1,3.9,4.1l0,0c-0.1-2.2-1.9-3.4-3-5
			C125.1,83.5,125.6,81.5,128.3,80z"/>
		<path class="st3" d="M187,74.2c-0.5-0.1-0.9-0.5-1-1C186.5,73.4,186.9,73.7,187,74.2z"/>
		<path class="st49" d="M122,103.3c-0.6,0.1-1,0.4-1,1c-3.7,1.2-7.3,0.1-11-0.1c-2-2-4.2-0.6-6.4-0.4c2.2,0.4,4.3,0.9,6.5,1.3
			c4.4,0.9,5.1,2.1,4,7.1c-1.1,0.4-1,1.4-1,2.3c1-0.5,1.1-1.4,1-2.3c2.5-2.5,4-5.9,7-7.9c0.1,0,0.5,0,0.5,0s0.5-0.1,0.5-0.1
			c2.3-1,4.7-2,6.5-3.9C125.9,100.4,123.8,101.5,122,103.3z"/>
		<path class="st50" d="M129,91.2c0.2,0.1,0.4,0.3,0.7,0.4C129,92.2,129.2,91.5,129,91.2L129,91.2z"/>
		<path class="st4" d="M123.9,52.3c-0.3,0-0.6,0-0.9-0.1c-2.1-1.8-5.8-0.7-7-4c0.1-0.1,0.3-0.1,0.4-0.3c0.1-0.1,0.2-0.4,0.1-0.4
			c-0.6-1-1.6-1.6-2.5-2.3c-2.6-2-5.6-3.6-8-6.3c3.9-2.7,8.4-2.6,12-4.7c3.4-1.1,6.9-2,10.2-3.2c1.5-0.5,3.2-1,3.8-2.8
			c0.3,0,0.6,0,0.9,0.1c1.3,4.4,3,8.6,4.8,12.8c1.6,4,2.1,8.7,5.3,12.1c-2.7-1.1-5.5-1-8.3-1c-2.9,0-5.9,0.6-8.8-0.8
			C125.1,51,124.3,51.4,123.9,52.3z"/>
		<path class="st51" d="M143,53.2c-3.2-3.4-3.6-8-5.3-12.1c-1.7-4.2-3.5-8.5-4.8-12.8c1.4-0.1,2.3-0.8,3-2c0.8-1.5,1.7-3,3.1-4.1
			c0.2,0.5,0.6,0.8,1.1,0.4c2.1-2,3-2,3.5,1.3c0.4,2.8,0.2,5.5,0.5,8.2c-0.5,3.8,0.6,7.6,1.3,11.1c0.7,3.4-0.2,6.9,1.1,10.2
			c0.3,0.7-0.8,0.7-1.5,0.8C144.3,53.9,143.7,53.6,143,53.2z"/>
		<path class="st52" d="M191,101.3c1.4,0.6,2.7,1.3,4.1,1.9c-2.4,6.3-4.8,12.5-7.2,18.8c-2.4-2.5-3.1-6-4.9-8.9
			c-0.7-1.2-0.4-2.1,0.1-3.2c0.8-1.8,1.7-3.5,2.3-5.4C186.4,101.8,188,100.4,191,101.3z"/>
		<path class="st53" d="M144,32.1c-0.3-2.7-0.1-5.4-0.5-8.2c-0.5-3.4-1.4-3.3-3.5-1.3c-0.5,0.4-0.8,0.1-1.1-0.4
			c1.2-1.8,3.2-3.5,0.9-5.9c0.5-1.2,1.3-1.2,2.2-0.4c0.8,0.8,1.7,1.4,2.9,1.3l0,0c0,0.3,0,0.7,0.1,1c0,3.6,0,7.2-0.1,10.8
			C145,30.2,145.4,31.5,144,32.1z"/>
		<path class="st54" d="M127.9,140.2c-0.1-0.6-0.2-1.3-0.3-1.9c1.3,0.4,2.7,0.6,3.4,1.9C130,141.6,128.9,141.7,127.9,140.2z"/>
		<path class="st26" d="M143,132.3c-0.2,0.5-0.5,0.9-1,0.9C142.1,132.7,142.5,132.4,143,132.3z"/>
		<path class="st53" d="M145,17.2c0.2-0.5,0.5-0.9,1-0.8c0.4,0,0.6,0.4,0.4,0.5C146,17.1,145.5,17.1,145,17.2L145,17.2z"/>
		<path class="st13" d="M83.9,146.3c-0.4,0-0.8,0.1-1.1,0.1c-0.6,0-1.2,0.1-1.8,0.1c-1.2,2.6-4.3,2.8-6,4.7
			c-0.5,1.9-2.5,3.6-0.9,5.8c0.9,0.1,1.9,0.2,2.8,0.4c0.8,0,1.6-0.1,2.4-0.1c3.6,0,3.6,0,3.7-3.7c0-1.8,0.1-3.5,0.2-5.3
			C84,147.8,84,147.1,83.9,146.3z"/>
		<path class="st55" d="M85,25.2c4.7,0.7,1-2.7,1.9-3.8c0-0.6-0.3-1-0.9-1.1l0,0c0.6-1.3,1.4-0.5,2.4-0.4c2.3,0.2,4.8,0.6,5.6-2.6
			c1,0.7,2,1.3,3,2c0.7,2.8,1,5.8,3,8.1c0,0.3,0,0.5,0.1,0.7c-3.9-0.8-7.7-1.8-11.7-1.9C87.3,26.2,85.8,26.8,85,25.2z"/>
		<path class="st56" d="M100.1,27.3c-2-2.3-2.4-5.3-3-8.1c3.7,0,7.4,0,11-0.1c0.3,0.4,0.6,0.8,0.9,1.1
			C106.5,23.2,103.1,25,100.1,27.3z"/>
		<path class="st57" d="M109,20.3c-0.3-0.4-0.6-0.8-0.9-1.1c1-1.6,2.6-0.7,3.9-0.9c-0.3,1.1-1.1,1.8-2.1,2.1
			C109.6,20.2,109.3,20.2,109,20.3z"/>
		<path class="st58" d="M109,20.3c0.3-0.1,0.6-0.1,0.9,0c0.2,0.7,0,1.7,1.1,2l0-0.1c0.1,1,0.2,1.9,0.2,2.9c0.1,2.1,2.2,4.1,0.7,6.4
			c-3.9-1.1-7.8-2.3-11.7-3.4c-0.1-0.2-0.2-0.5-0.1-0.7C103.1,25,106.5,23.2,109,20.3z"/>
		<path class="st59" d="M111.2,25.1c-0.1-1-0.2-1.9-0.2-2.9C112.4,23.1,112.4,24,111.2,25.1z"/>
		<path class="st60" d="M77.9,113.2c-0.8-1.4-1.8-0.8-2.9-0.5c-3.6,1.1-6.9,0.5-10-1.4c-0.3,0-0.7,0-1,0c-0.1-0.6-0.2-1.2-0.9-0.2
			c0.2,0.3,0.5,0.3,0.8,0.3c0.1,0.6,0.5,0.9,1.1,1c0.9,2,3.5,3.1,3.2,5.8C70.9,115.5,74.2,113.8,77.9,113.2z"/>
		<path class="st61" d="M33,66.3c5.4,1.1,10.3,4.1,15.8,5.1c1.2,1.4,2.2,2.9,2.4,4.8c-0.5,1.5,1.2,2.6,0.8,4.1
			C46.4,79.8,41.4,77,35.9,76c-1.2-0.2-1.8-1.2-1.9-2.5C33.7,71.1,33.3,68.7,33,66.3z"/>
		<path class="st62" d="M118,34.3c-3.7,2.1-8.2,2-12,4.7c2.4,2.6,5.4,4.2,8,6.3c0.9,0.7,1.9,1.3,2.5,2.3c0.1,0.1,0,0.3-0.1,0.4
			c-0.1,0.1-0.3,0.2-0.4,0.3c-2.9-1.6-6-2.9-8.6-4.9c-3.6-2.8-7.9-3.5-12.1-3.9c-8.7-0.8-17.4-2.1-26.2-2.3c0.7-1.4,2-0.9,3.1-0.9
			c6.1,0,12.3-0.3,18.4,0.1c4.4,0.3,8.6,1,13.1,0c3.5-0.8,6.9-2.1,10.4-2.7C115.5,33.4,117,32.5,118,34.3z"/>
		<path class="st63" d="M51.1,76.1c-0.2-1.9-1.1-3.4-2.4-4.8c2.5-1.5,4.9-3,6.9-5.2c0.5-0.6,1.1-0.6,1.4,0.2
			c-0.2,0.3-0.3,0.6-0.5,0.8C53.6,69.4,51.9,72.5,51.1,76.1z"/>
		<path class="st64" d="M73,65.4c-0.6-0.1-1.3-0.2-1.9-0.2c-0.9-1.7-1.8-3.4-2.9-5.4C72.1,61.6,72.7,62.3,73,65.4z"/>
		<path class="st65" d="M40.1,52.1c0-0.3-0.1-0.6-0.2-0.9c1.5-0.9,2.7-0.3,3.9,0.8C42.6,52.3,41.3,52.6,40.1,52.1z"/>
		<path class="st66" d="M37.9,108.3c-0.3-0.1-0.7-0.1-1-0.2c-1.1-1.1-2.8-2-0.6-3.7c3.7-2.7,5.6-7.2,9.4-9.8
			c0.3-0.2,0.2-0.9,0.3-1.4c2.8,3.9,2.1,7.6-1,11c-2.7,0.8-4.3,3-6,5l0,0C38.9,108.7,38.5,108.3,37.9,108.3z"/>
		<path class="st34" d="M86,20.2c0.6,0.1,0.9,0.5,0.9,1.1C86.6,21,86.3,20.6,86,20.2z"/>
		<path class="st19" d="M39,111.2c-0.1-0.6,0-1.3,0-2l0,0c-0.1-0.6-0.5-0.9-1.1-1c-0.3-0.1-0.7-0.1-1-0.2c-2.6,0.4-5.4-0.5-7.8,1.2
			c-0.6,0.9-1.2,1.6-2.2,1.9c2.5,2.4,6.2,1.7,9.1,3.1C38.2,114.5,39.5,113.7,39,111.2z"/>
		<path class="st30" d="M79,73.3c-0.5-0.1-0.9-0.4-1.1-1C78.5,72.3,78.9,72.7,79,73.3z"/>
	</g>
</g>
</svg>
