<?xml version="1.0" encoding="utf-8"?>
<!-- Generator: Adobe Illustrator 19.1.1, SVG Export Plug-In . SVG Version: 6.00 Build 0)  -->
<svg version="1.1" id="Layer_1" xmlns="http://www.w3.org/2000/svg" xmlns:xlink="http://www.w3.org/1999/xlink" x="0px" y="0px"
	 viewBox="0 0 182.6 135.9" style="enable-background:new 0 0 182.6 135.9;" xml:space="preserve">
<style type="text/css">
	.st0{fill:#C7B393;}
	.st1{fill:#B0947D;}
	.st2{fill:#C6B593;}
	.st3{fill:#C7B190;}
	.st4{fill:#553435;}
	.st5{fill:#9D806F;}
	.st6{fill:#AF947A;}
	.st7{fill:#C6B499;}
	.st8{fill:#C6B294;}
	.st9{fill:#C4B499;}
	.st10{fill:#9C7F69;}
	.st11{fill:#583431;}
	.st12{fill:#9B8271;}
	.st13{fill:#C5B7A4;}
	.st14{fill:#57393A;}
	.st15{fill:#AE977D;}
	.st16{fill:#967E72;}
	.st17{fill:#614447;}
	.st18{fill:#593835;}
	.st19{fill:#5E4040;}
	.st20{fill:#988377;}
	.st21{fill:#967D6F;}
	.st22{fill:#D5C3A8;}
	.st23{fill:#5C3935;}
	.st24{fill:#9E7D69;}
	.st25{fill:#EAE7DB;}
	.st26{fill:#695256;}
	.st27{fill:#C7B48E;}
	.st28{fill:#A17A69;}
	.st29{fill:#B0937C;}
	.st30{fill:#583331;}
	.st31{fill:#583530;}
	.st32{fill:#9F7F67;}
	.st33{fill:#58342F;}
	.st34{fill:#9E7F65;}
	.st35{fill:#D6C6A4;}
	.st36{fill:#AD8D74;}
	.st37{fill:#DECEAE;}
	.st38{fill:#E6DAB9;}
	.st39{fill:#E6DBBD;}
	.st40{fill:#9D7F68;}
	.st41{fill:#5D3831;}
	.st42{fill:#A07D68;}
	.st43{fill:#D3BCA1;}
	.st44{fill:#9F836B;}
	.st45{fill:#DAC7AA;}
	.st46{fill:#BEAD99;}
	.st47{fill:#E9DFC5;}
	.st48{fill:#9D7F67;}
	.st49{fill:#B1997D;}
	.st50{fill:#DBCAAA;}
	.st51{fill:#E3DAC3;}
	.st52{fill:#502B28;}
	.st53{fill:#DAC9A8;}
	.st54{fill:#C9AF95;}
</style>
<g>
	<g>
		<path class="st0" d="M20.5,21.3c3.8-2.1,7.7-4.3,11.5-6.4c0.1,0.4,0.2,0.9,0.3,1.3c0,4.9,1.6,8.7,6.9,10c1.4,0.3,2.6,1.3,3.9,2
			c7,3.2,14.1,2,21.3,0.9c2.3-3.4,4.6-6.7,6.9-10.1c2-1.2,2.9-2.8,2-5.1c3.6,2.4,7.3,4.7,10.9,7.1c0,0.3,0.1,0.7,0.1,1L84.2,22
			c1.4,3,2.7,6,4.1,9c-5.7,1.7-11.4,3.4-17.1,5.1c-1.7-0.1-3.4-0.6-5-0.4c-4.2,0.5-8.2,1.7-12.7,0.7c-3.8-0.8-8.1,0.3-12.1,0.6
			c-3-0.3-6.1-0.6-9.1-0.9C28.3,31.1,24.4,26.2,20.5,21.3z"/>
		<path class="st1" d="M138.1,80c2.5-0.9,4.9-1.8,7.4-2.6c1.7-0.5,3.3-0.9,3.7,1.6c-1.7,4.1-3.3,8.4-5.4,12.3
			c-0.9,1.7-2.9,2.9-4.5,4.2c-1.6,1.3-3.4,2.3-5.2,3.5c-0.7,0.3-1.4,0.6-2.1,1c-1.3-1-2.5-2.4-4-3c-3.9-1.5-8-2.6-12-3.9
			c0.3-0.1,0.6-0.1,0.9-0.2c0.1,0,0.1-0.2,0.2-0.4c-2.1-0.8-4.1-1.7-6.2-2.4c-5.7-2-11.3-4-17-6c0,0,0,0,0,0c-0.3,0-0.6-0.1-0.9-0.1
			c-1-0.3-2.1-0.6-3.1-0.9c-1.3-0.7-2.7-1.3-4-2c2.8-1.9,5.7-3.8,8.5-5.8c2-1.4,3.7-0.9,5.4,0.3c3.7,2.5,7.4,5,11.1,7.4
			c0.7,0.3,1.3,0.6,2,0.9c2.4,1.3,4.7,2.7,7.1,4c1.3,1.2,3,3.5,2.9-0.6c-0.1-2.6,1.4-3.4,3.3-4C130.3,82.3,134.2,81.2,138.1,80z"/>
		<path class="st2" d="M46.2,0c3,0,6,0,9,0c0.3,0.1,0.6,0.1,0.9,0.1c0.7,0.3,1.4,0.5,2.1,0.8C62.1,4,66,7.1,69.9,10.1
			c-2.1,0.2-4.2,0.1-6.1,0.7c-4.2,1.4-8.4,2.9-12.4,4.7c-1.9,0.8-3.4,2.3-5.1,3.4c-1-0.5-2.5-0.8-2.9-1.6c-2.2-4.1-5.9-6-10-7.3
			c3.3-3,6.6-6,9.9-9.1C44.2,0.7,45.2,0.4,46.2,0L46.2,0z"/>
		<path class="st3" d="M119.4,33.8c7.6,1,13.5,4.3,15.8,12.2c-0.9-0.2-2.1-0.8-2.7-0.5c-4.2,2.4-8.2,4.9-12.3,7.5
			c-4.3-0.4-8.7-0.7-13-1.1c-1.6-0.9-3.2-1.9-4.8-2.8c0.3-2.3,0.6-4.7,1-7c1.1-0.3,2.2-1,3.2-0.8c2.2,0.4,4.4,1.1,6.6,1.7
			c3.2,0.1,4.9-1.4,5.1-4.6c0.1-1.4,0.6-2.9,0.9-4.3L119.4,33.8z"/>
		<path class="st4" d="M20.5,21.3c3.9,4.9,7.8,9.8,11.7,14.8c0.6,2.6,1.3,5.3,1.9,7.9l0,0c-0.4,0.3-0.7,0.6-1.1,0.9
			c-1.4,0.6-2.8,1.7-4.1,1.6c-4.3-0.3-6.6,2.4-9,5.3c-0.7,0.9-1.7,1.6-2.5,2.3c-0.4,0-0.7,0-1.1-0.1C13.2,42.6,17.3,32,20.5,21.3z"
			/>
		<path class="st5" d="M179,105.2c5.6,5.9,4.7,8.9-3.1,11.3c-9.4,2.8-18.4,0.7-27.4-1.6c-1-0.2-1.6-1.8-2.4-2.7
			c2.5,2.4,5.3,1.8,8.2,1c0.8,0.2,1.6,0.3,2.4,0.5c-0.1-0.5-0.3-1-0.4-1.5c-0.1-1.3-0.2-2.7-0.3-4
			C163.8,108.2,171.7,108.8,179,105.2z"/>
		<path class="st6" d="M46.2,19c1.7-1.2,3.3-2.6,5.1-3.4c4.1-1.8,8.2-3.4,12.4-4.7c1.9-0.6,4.1-0.5,6.1-0.7c1.1,1.3,2.2,2.6,3.3,3.9
			c0.9,2.3,0,3.9-2,5.1c-1.6-2-2.7-0.5-4.1,0.5c-3.3,2.3-6.5,5.1-11,4.5c-2.3-0.4-4.6-0.8-6.9-1.2C48.2,21.6,47.2,20.3,46.2,19z"/>
		<path class="st7" d="M179,105.2c-7.3,3.6-15.2,3-23,3c-3-1.1-5.9-2.2-8.9-3.2c4-2,7.7-4.8,11.9-5.8
			C166.5,97.4,173.4,99.8,179,105.2z"/>
		<path class="st3" d="M148.3,72.4c-4.7-6.2-9.5-12.2-14.2-18.4c-1,0.3-2,0.6-3.1,0.9c-3,0.9-6,1.7-9,2.7
			c-5.3,1.7-10.5,2.2-15.9,0.5c-0.6-0.1-1.3-0.2-1.9-0.3c-0.4-0.2-0.8-0.5-1.2-0.7c-4.6-1.8-9.1-3.5-13.7-5.3
			C84,52.5,78.6,53,73.2,53.8c-0.4,0.1-0.7,1.5-1,2.3c1.6,3.3,3.1,6.7,4.9,9.8c1.5,2.6,0.8,3.7-1.7,4.8c-2.9,1.3-5.4,2.9-7.7,5.7
			c-2,2.4-6.8,3-10.5,3.4c-1.1,0.1-2.5-3.1-3.8-4.7c-2.4-2.3-4.8-4.6-7.1-6.9c-1.3,0-2.7,0-4,0c-7.6,5.6-14.8,2-22-1l0.1,0.1
			c-0.4,0-0.7-0.1-1.1-0.1c-0.3-0.3-0.6-0.6-1-0.9c-0.4-0.4-0.8-0.7-1.2-1.1c-0.2,0-0.5,0-0.7,0c-0.4,0.9-0.6,1.9-1.1,2.7
			c-4.4,6.8-9,13.5-13.3,20.3c-1.2,1.9-3.5,4.2,0.3,6c0.7-0.4,1.4-1.3,2.1-1.3c2.2,0,4.5,0.2,6.7,0.4c4.5,0.6,8.9,1.1,13.4,1.7
			c2.1-1.2,4.1-1.6,5.9,0.5c1,0.1,2.1,0.3,3.1,0.4c1.6,0.1,3.3,0.2,4.9,0.4c1.3,0.3,2.6,0.6,4,1c1.6-0.2,4.2,0.6,2.3-2.7
			c-0.8-1.5-1.3-3.2-1.3-5.3c2.7,2.3,5.4,4.5,8.1,6.8l0.1,0.1c0.3,0.3,0.6,0.6,0.9,0.9l0.1,0.1c0.3,0.3,0.6,0.6,0.9,0.9l0.1,0.1
			c0.3,0.3,0.6,0.6,0.9,0.8l0.2,0.2c0.3,0.3,0.6,0.6,0.8,0.9l-0.1,0.2c0.4,0.7,0.8,1.4,1.3,2c0.3,0.3,0.5,0.6,0.8,0.8l0.1,0.1
			c0.3,0.3,0.6,0.6,0.9,0.9c1.7,2.4,3.3,4.7,5,7.1c2.7-0.4,4.6,0.7,5,2.8c9.4-2,18.7-4,28.1-6c0.3-0.3,0.7-0.6,1-0.9
			c0.7,0,1.4-0.1,2-0.1c0.8-0.2,1.6-0.3,2.3-0.5c-0.4,0.5-0.9,1.1-1.3,1.6c-0.2,0.1-0.3,0.1-0.5,0.2c-1.3,1-2.6,2-3.8,3
			c1.5,0.3,3,0.7,4.5,0.8c4.6,0.4,9.2,0.6,13.8,0.9c4-0.7,7.9-1.3,11.9-2c2-2.5,4.1-4.9,6.1-7.4c1.2-1.4,1.8-1,2,0.6
			c0-1.7,0-3.4,0-5.1c-0.7,0.3-1.4,0.6-2.1,1c-4.7,0.9-9.4,1.8-14.1,2.6c-4.2,0.8-8.4,1.8-12.6,2.3c-1.7,0.2-3.5-0.6-5.1-1.3
			c-3.1-1.4-6.5-2.6-9.1-4.8c-4.7-3.9-10-3.9-15.5-3.7c-1.8,0.1-3.7,0.1-5.5,0.1c-0.7-0.4-1.3-0.7-2-1.1c-0.6-2.9-1.2-5.8-1.8-8.7
			c-0.4-2,0.6-2.7,2.4-2.8c3.5-0.2,6.9-0.2,10.4-0.6c3.3-0.4,4.6,0.8,4.2,4c0.3,0.1,0.5,0.1,0.8,0.1c-0.1-1.7-0.3-3.4-0.4-5.1
			c0.5,0.1,1.1,0.2,1.6,0.2c0.3,0,0.6-0.1,0.8-0.1c2.8-1.9,5.7-3.8,8.5-5.8c2-1.4,3.7-0.9,5.4,0.3c3.7,2.5,7.4,5,11.1,7.4
			c2.5-0.3,5-0.9,7.6-0.9c5,0,9.8,0,14.4-2.4c1.3-0.6,3.3,0.2,4.9,0.3c2.5-0.9,4.9-1.8,7.4-2.6c1.7-0.5,3.3-0.9,3.7,1.6
			C151.2,76.6,149.9,74.4,148.3,72.4z"/>
		<path class="st8" d="M97,31.3c0.7,0.3,1.4,0.5,2.1,0.8c1.4,2.3,2.8,4.6,4.2,6.9c-0.4,0.7-0.7,1.4-1.1,2c-5,3-9.9,6.1-14.9,9.1
			c-2.8-7-1.8-9.9,6-16C94.5,33.1,95.7,32.2,97,31.3z"/>
		<path class="st9" d="M101.2,29c0.4-0.5,0.7-1.1,1.1-1.5c2.9-3.3,6.1-5.9,10.8-3.9c4.4,1.9,6.5,5.5,6.4,10.3l-0.3,0.3
			c-0.8-0.8-1.6-1.5-2.3-2.3c-0.9,1-1.9,2-2.5,3.2c-0.6,1.2-0.7,2.7-1,4c0.4-3.9-1.7-5.5-5.3-5.9c-1.2-0.1-2.4-0.7-3.6-1.1
			C103.3,31,102.2,30,101.2,29z"/>
		<path class="st10" d="M46.2,19c1,1.3,2,2.6,3,3.9c-0.6,0.5-1.4,1-1.7,1.6C45.6,28.4,46,29,50.1,29c4.6,0,9.2-0.1,13.7-0.2
			c0.2,0.1,0.3,0.2,0.5,0.3c-7.1,1-14.3,2.3-21.3-0.9c0.4-0.5,1.2-1.3,1.1-1.4c-3.3-4.3-6.7-8.6-11.9-10.7c-0.1-0.4-0.2-0.9-0.3-1.3
			c0.4-1.6,0.9-3.2,1.3-4.8c4.1,1.4,7.8,3.3,10,7.3C43.7,18.3,45.2,18.5,46.2,19z"/>
		<path class="st11" d="M54.4,99l-0.2-0.2c-0.3-0.3-0.6-0.6-0.9-0.8l-0.1-0.1c-0.3-0.3-0.6-0.6-0.9-0.9L52.2,97
			c-0.3-0.3-0.6-0.6-0.9-0.9L51.2,96c-2.7-2.3-5.4-4.5-8.1-6.8c0,2.1,0.5,3.8,1.3,5.3c1.9,3.3-0.8,2.5-2.3,2.7c-1.3-0.3-2.6-0.6-4-1
			c-1.6-0.1-3.3-0.2-4.9-0.4c-1-0.1-2.1-0.3-3.1-0.4c-2-0.2-3.9-0.4-5.9-0.5c-4.5-0.6-8.9-1.1-13.4-1.7c-2.2-0.1-4.5-0.4-6.7-0.4
			c-0.7,0-1.4,0.8-2.1,1.3c5.8,3.8,11.5,7.8,17.4,11.4c2.3,1.4,5,2.3,7.7,2.8c3.6,0.6,7.2,0.7,10.9,1c2-0.7,4.1-1.4,6.1-2.1
			c0.3-1.7,0.6-3.4,0.9-5.1c0-1.3,0.1-2.6,0.1-3.9c0.4,0.3,0.8,0.6,1.2,0.9c1.5,3.5,3.1,6.9,4.6,10.4c0,0.3,0.2,0.5,0.3,0.7
			c3.4-2.5,3.1-6.4,3.8-9.9l0.1-0.2C54.9,99.6,54.7,99.3,54.4,99z"/>
		<path class="st12" d="M126.1,111c2-2.5,4.1-4.9,6.1-7.4c1.2-1.4,1.8-1,2,0.6c0,7.2-1.9,13.6-8,18.1
			C126.2,118.5,126.1,114.7,126.1,111z"/>
		<path class="st13" d="M7.1,131.1c-2-5.1,0.1-8.6,5.7-9.1c7.3-0.6,13.5,2,19.4,6c-2,0.6-3.6,0.4-5.4-1.2c-0.6-0.6-3.6-4.1-4.5,0.6
			c-0.1,0.3-1.4,0.4-2.2,0.5c-1.6,0.1-3.3,0.1-5,0.1c-0.3,0-0.7,0-1,0c-2.1-0.7-4.1-1.4-6.2-2.2C7.7,127.7,7.4,129.4,7.1,131.1z"/>
		<path class="st14" d="M147.1,105c3,1.1,5.9,2.2,8.9,3.2c0.1,1.3,0.2,2.7,0.3,4c-0.7,0.3-1.3,0.6-2,1c-2.9,0.7-5.7,1.4-8.2-1
			c0.1-2,0.1-4,0.2-6C146.6,105.8,146.8,105.4,147.1,105L147.1,105z"/>
		<path class="st15" d="M120.2,53c4.1-2.5,8.2-5.1,12.3-7.5c0.6-0.3,1.8,0.3,2.7,0.5l0,0c0,1.7,0,3.4,0,5.1c-0.4,1-0.7,2-1.1,2.9
			c-1,0.3-2,0.6-3.1,0.9c-0.8-0.6-1.5-1.7-2.3-1.8C125.9,52.9,123,53.1,120.2,53z"/>
		<path class="st16" d="M15.2,128.1c1.7,0,3.3,0,5-0.1c0.8,0,2.1-0.2,2.2-0.5c0.9-4.7,3.8-1.2,4.5-0.6c1.7,1.6,3.4,1.8,5.4,1.2
			c0,0,0,0,0,0c0.4,0.7,0.7,1.3,1.1,2c-1.1,0.9-2.1,1.8-3.2,2.8c-2-0.3-4.1-0.9-6.1-0.8C20.3,132.3,17.4,131,15.2,128.1z"/>
		<path class="st17" d="M15.2,128.1c2.2,2.9,5.1,4.2,8.8,4c2-0.1,4.1,0.5,6.1,0.8c-5.3,3.7-11.1,3.3-17,2.3c0.4-2.4,0.7-4.8,1.1-7.2
			C14.5,128.1,14.8,128.1,15.2,128.1z"/>
		<path class="st18" d="M20.2,67.2c-0.4,0-0.7-0.1-1.1-0.1c-0.3-0.3-0.6-0.6-1-0.9c-0.4-0.4-0.8-0.7-1.2-1.1c-0.3-0.3-0.5-0.7-0.8-1
			c0-3.3,0-6.7,0.1-10c0.4,0,0.7,0,1.1,0.1c1.1,1.5,2.1,3.1,3.3,4.4c1.7,1.9,3.5,3.6,5.3,5.4c-1.9,1-3.9,2.1-5.8,3.1L20.2,67.2z"/>
		<path class="st19" d="M97,31.3c-1.3,0.9-2.5,1.8-3.8,2.8c-1.6-1-3.3-2.1-4.9-3.1c-1.4-3-2.7-6-4.1-9C88.5,25.1,92.7,28.2,97,31.3z
			"/>
		<path class="st20" d="M14.2,128.1c-0.4,2.4-0.7,4.8-1.1,7.2c-2-1.4-4-2.7-6-4.1c0.3-1.7,0.6-3.5,0.9-5.2
			C10,126.6,12.1,127.3,14.2,128.1z"/>
		<path class="st21" d="M46.4,99c1.5,3.5,3.1,6.9,4.6,10.4c-4.3,0-8.6-0.1-12.9-0.1c2-0.7,4.1-1.4,6.1-2.1c0.6-1.4,1.3-2.7,1.9-4.1
			C46.2,101.6,46.3,100.3,46.4,99z"/>
		<path class="st22" d="M126.1,111c0,3.7,0.1,7.5,0.1,11.2c-0.7,0.6-1.5,1.1-2.2,1.7c0-2-0.1-3.9-0.1-5.9c-0.3-1-0.5-2-0.8-3
			c0-0.3,0-0.6-0.1-0.9c-3-0.4-5.9-0.8-8.9-1.1C118.2,112.3,122.1,111.6,126.1,111z"/>
		<path class="st23" d="M101.2,29c1.1,1,2.1,2,3.2,3c-0.4,2.3-0.7,4.7-1.1,7c-1.4-2.3-2.8-4.6-4.2-6.9C99.8,31,100.5,30,101.2,29z"
			/>
		<path class="st3" d="M135.2,51.1c0-1.7,0-3.4,0-5.1C135.2,47.8,135.2,49.4,135.2,51.1z"/>
		<path class="st24" d="M95.3,122.8c1.2,0,2.5-0.1,3.7-0.1C97.8,122.7,96.5,122.7,95.3,122.8z"/>
		<path class="st25" d="M46.2,0c-1,0.3-2,0.7-3,1C44.2,0.7,45.2,0.4,46.2,0z"/>
		<path class="st13" d="M33.3,130.1c-0.4-0.7-0.7-1.3-1.1-2C33.4,128.3,34.8,128.4,33.3,130.1z"/>
		<path class="st24" d="M76.2,129.9c0.7-0.3,1.3-0.5,2-0.8C77.6,129.3,76.9,129.6,76.2,129.9z"/>
		<path class="st25" d="M58.2,0.9c-0.7-0.3-1.4-0.5-2.1-0.8C56.8,0.4,57.5,0.7,58.2,0.9z"/>
		<path class="st26" d="M84.3,22c0-0.3-0.1-0.7-0.1-1c0.1,0.2,0.2,0.4,0.2,0.6C84.4,21.8,84.3,21.9,84.3,22z"/>
		<path class="st24" d="M102,123.1c0.3,0.1,0.6,0.2,1,0.3C102.7,123.3,102.4,123.2,102,123.1z"/>
		<path class="st24" d="M90.3,124.7c0.3-0.2,0.6-0.4,0.9-0.6C90.9,124.3,90.6,124.5,90.3,124.7z"/>
		<path class="st27" d="M16.2,64.1c0.3,0.3,0.5,0.7,0.8,1c-0.2,0-0.5,0-0.7,0C16.2,64.7,16.2,64.4,16.2,64.1z"/>
		<path class="st24" d="M87.2,125.8c0.4-0.2,0.7-0.4,1.1-0.6C88,125.3,87.6,125.5,87.2,125.8z"/>
		<path class="st24" d="M85.3,126.6c0.3-0.2,0.6-0.4,0.9-0.5C85.9,126.3,85.6,126.4,85.3,126.6z"/>
		<path class="st24" d="M82.3,127.7c0.4-0.2,0.8-0.4,1.2-0.5C83,127.3,82.7,127.5,82.3,127.7z"/>
		<path class="st7" d="M147.1,105c-0.3,0.4-0.5,0.8-0.8,1.2C146.6,105.8,146.8,105.4,147.1,105z"/>
		<path class="st24" d="M93.3,123.5c0.2-0.2,0.5-0.4,0.8-0.5C93.8,123.2,93.6,123.4,93.3,123.5z"/>
		<path class="st28" d="M34.1,44c-0.6-2.6-1.3-5.3-1.9-7.9c3,0.3,6.1,0.6,9.1,0.9c3.9,0.4,7.9,0.6,11.8,1.4
			c4.2,0.8,9.2,0.5,11.2,5.7c0.3,0.4,0.6,0.7,0.9,1.1c0,0.3,0.1,0.6,0.2,0.9c0.3,0.3,0.6,0.7,0.9,1l0,0c1,1.4,2,2.7,2.9,4.1
			c0.7,1.3,1.4,2.6,2,3.8c-6,6.7-11.9,13.3-17.9,20c-2.4-2.3-4.8-4.6-7.1-6.9c-0.3-1.1-0.7-2.2-1-3.3c-1-4.2-2-8.5-3-12.7
			C39.5,49.4,36.8,46.7,34.1,44z"/>
		<path class="st29" d="M71.2,54.9c-0.7-1.3-1.4-2.6-2-3.8c-0.7-1.4-1.4-2.7-2.1-4.1c-0.1-0.6-0.2-1.3-0.4-1.9c-1-2.2-2-4.4-3-6.5
			c2.5-0.9,5-1.7,7.4-2.6c5.7-1.7,11.4-3.4,17.1-5.1c1.6,1,3.3,2.1,4.9,3.1c-7.7,6.2-8.8,9-6,16c0.7,0.6,1.4,1.2,2.2,1.8
			C84,52.5,78.6,53,73.2,53.8c-0.4,0.1-0.7,1.5-1,2.3C71.9,55.7,71.5,55.3,71.2,54.9z"/>
		<path class="st30" d="M71.2,54.9c0.3,0.4,0.7,0.7,1,1.1c1.6,3.3,3.1,6.7,4.9,9.8c1.5,2.6,0.8,3.7-1.7,4.8
			c-2.9,1.3-5.4,2.9-7.7,5.7c-2,2.4-6.8,3-10.5,3.4c-1.1,0.1-2.5-3.1-3.8-4.7C59.3,68.3,65.3,61.6,71.2,54.9z"/>
		<path class="st31" d="M83.4,86c-0.5,8.1-0.5,8.1-8.7,8.1c-2.2,0-4.3,0-6.5,0c-0.6-2.9-1.2-5.8-1.8-8.7c-0.4-2,0.6-2.7,2.4-2.8
			c3.5-0.2,6.9-0.2,10.4-0.6C82.5,81.6,83.8,82.8,83.4,86z"/>
		<path class="st32" d="M20.2,67c1.9-1,3.9-2.1,5.8-3.1c1,0.5,2.4,1.6,2.8,1.3c3.2-2.2,6.3-4.7,9.4-7.1c3.5,1.8,5.2,6,3.9,10
			C34.6,73.7,27.4,70.1,20.2,67z"/>
		<path class="st33" d="M89.4,51.9c-0.7-0.6-1.4-1.2-2.2-1.8c5-3,9.9-6.1,14.9-9.1c0.4,0.4,0.8,0.7,1.2,1.1c-0.3,2.3-0.6,4.7-1,7
			c-0.1,1-0.1,1.9-0.2,2.9c1.3,2,2.7,4.1,4,6.1c-0.6-0.1-1.3-0.2-1.9-0.3c-0.4-0.2-0.8-0.5-1.2-0.7C98.6,55.4,94,53.6,89.4,51.9z"/>
		<path class="st34" d="M106.2,58.2c-1.3-2-2.7-4.1-4-6.1c1.6,0,3.3,0,4.9-0.1c4.3,0.4,8.7,0.7,13,1.1c2.9,0,5.8-0.1,8.7,0.1
			c0.8,0.1,1.5,1.2,2.3,1.8c-3,0.9-6,1.7-9,2.7C116.9,59.4,111.6,59.9,106.2,58.2z"/>
		<path class="st35" d="M138.1,80c-3.9,1.1-7.8,2.3-11.7,3.4c-2,0.6-3.4,1.3-3.3,4c0.1,4.1-1.6,1.8-2.9,0.6c0.3-2.8-0.6-4.3-3.7-4
			c-1.1,0.1-2.2,0-3.4,0c-0.7-0.3-1.3-0.6-2-0.9c2.5-0.3,5-0.9,7.6-0.9c5,0,9.8,0,14.4-2.4C134.5,79.1,136.5,79.9,138.1,80z"/>
		<path class="st36" d="M42.2,68.1c1.2-4-0.4-8.2-3.9-10c1.7-1.8,4.5-2.8,4-6c1,4.2,2,8.5,3,12.7c0.3,1.1,0.7,2.2,1,3.3
			C44.8,68.1,43.5,68.1,42.2,68.1z"/>
		<path class="st37" d="M85.4,81.2c-0.1,1.6-0.2,3.2-0.3,4.8c-0.3,0-0.6,0.1-0.9,0.1c0,0,0,0,0,0c-0.1-1.7-0.3-3.4-0.4-5.1
			C84.3,81,84.8,81.1,85.4,81.2z"/>
		<path class="st38" d="M30.1,95.4c-2-0.2-3.9-0.4-5.9-0.5C26.4,93.7,28.4,93.3,30.1,95.4z"/>
		<path class="st39" d="M38.2,96.3c-1.6-0.1-3.3-0.2-4.9-0.4C34.9,96,36.5,96.1,38.2,96.3z"/>
		<path class="st34" d="M103.1,57.2c0.4,0.2,0.8,0.5,1.2,0.7C103.9,57.7,103.5,57.4,103.1,57.2z"/>
		<path class="st40" d="M56.2,24.1c4.5,0.6,7.7-2.2,11-4.5c1.3-0.9,2.5-2.5,4.1-0.5c-2.3,3.4-4.6,6.7-6.9,10.1
			c-0.2-0.1-0.3-0.2-0.5-0.3C61.3,27.3,58.7,25.7,56.2,24.1z"/>
		<path class="st41" d="M32.3,16.2c5.3,2.1,8.6,6.4,11.9,10.7c0.1,0.1-0.7,0.9-1.1,1.4c-1.3-0.7-2.5-1.7-3.9-2
			C33.8,24.9,32.3,21.1,32.3,16.2z"/>
		<path class="st42" d="M128.2,97c-3.9-1.5-8-2.6-12-3.9c-0.3-0.1-0.7-0.1-1-0.2c-8.7-2.8-8.7-2.8-10,6.2c-0.3-1.7-1.1-3.4-0.9-5
			c0.5-3.6-1.1-5.4-4.2-6.7c-2.1-0.8-4-2.2-5.9-3.3l0,0c-0.3,0-0.6-0.1-0.9-0.1c-1-0.3-2.1-0.6-3.1-0.9c-1.3-0.7-2.7-1.3-4-2
			c-0.3,0-0.6,0.1-0.8,0.1c-0.1,1.6-0.3,4.8-0.3,4.8l-0.9,0.1l0,0c0,0-0.5-0.1-0.8-0.1c-0.5,8.1-0.5,8.1-8.7,8.1c-2.2,0-4.3,0-6.5,0
			c0.7,0.4,1.3,0.7,2,1.1c1.8,0,3.7,0,5.5-0.1c5.5-0.2,10.8-0.2,15.5,3.7c2.6,2.2,6,3.4,9.1,4.8c1.6,0.7,3.5,1.5,5.1,1.3
			c4.2-0.5,8.4-1.5,12.6-2.3c4.7-0.9,9.4-1.8,14.1-2.6C130.8,99,129.6,97.6,128.2,97z"/>
		<path class="st43" d="M105.2,99.1c-0.3-1.7-1.1-3.4-0.9-5c0.5-3.6-1.1-5.4-4.2-6.7c-2.1-0.8-4-2.2-5.9-3.3c5.7,2,11.3,4,17,6
			c2.1,0.7,4.1,1.6,6.2,2.4c-0.1,0.1-0.1,0.3-0.2,0.4c-0.3,0.1-0.6,0.2-0.9,0.2c-0.3-0.1-0.7-0.1-1-0.2
			C106.5,90.1,106.5,90.1,105.2,99.1z"/>
		<path class="st44" d="M113.2,84c1.1,0,2.3,0.2,3.4,0c3.1-0.3,4,1.2,3.7,4C117.9,86.7,115.5,85.3,113.2,84z"/>
		<path class="st43" d="M94.2,84.1c-0.3,0-0.6-0.1-0.9-0.1C93.6,84,93.9,84.1,94.2,84.1z"/>
		<path class="st24" d="M124,118c-0.3-1-0.5-2-0.8-3c0-0.3,0-0.6-0.1-0.9c-3-0.4-5.9-0.8-8.9-1.1c-4.6-0.3-9.2-0.5-13.8-0.9
			c-1.5-0.1-3-0.5-4.5-0.8c1.3-1,2.6-2,3.8-3c0.1-0.1,0.3-0.1,0.5-0.2c-0.3-0.4-0.7-0.8-1-1.1c-0.7,0-1.4,0.1-2,0.1
			c-0.3,0.3-0.7,0.6-1,0.9c-9.4,2-18.7,4-28.1,6c-0.3,1.7-0.6,3.4-0.9,5.2c0,1.9-0.1,3.9-0.1,5.8c-0.2,0.7-0.5,1.4-0.7,2.1
			c-0.4,0.1-0.8,0.3-1.2,0.4c0-2.2,0.1-4.3-0.1-6.5c-0.2-2.6-0.6-5.3-0.9-7.9c-0.3-0.3-0.6-0.7-0.8-1c-0.1-0.3-0.1-0.6-0.2-0.9
			c-1.7-2.4-3.3-4.7-5-7.1c-0.3-0.3-0.6-0.6-0.9-0.9l-0.1-0.1c-0.3-0.3-0.5-0.6-0.8-0.8c-0.4-0.7-0.8-1.4-1.3-2
			c-0.8,3.5-0.4,7.4-3.8,9.9c3.3,5.3,6.5,10.7,9.9,15.9c5.2,8.1,3.7,9.5,15,4c0.7-0.3,1.3-0.5,2-0.8c1.3-0.5,2.7-0.9,4-1.4
			c0.4-0.2,0.8-0.4,1.2-0.5c0.6-0.2,1.2-0.4,1.9-0.5c0.3-0.2,0.6-0.4,0.9-0.5c0.3-0.1,0.7-0.2,1-0.3c0.4-0.2,0.7-0.4,1.1-0.6
			c0.6-0.1,1.3-0.3,1.9-0.4c0.3-0.2,0.6-0.4,0.9-0.6c0.7-0.2,1.4-0.4,2.1-0.6c0.2-0.2,0.5-0.4,0.8-0.5c0.4-0.1,0.8-0.2,1.2-0.3
			c1.2,0,2.5-0.1,3.7-0.1c1,0.2,2,0.3,3,0.5c0.3,0.1,0.6,0.2,1,0.3c7,0.1,14,0.3,21,0.4C124,121.9,124,119.9,124,118z"/>
		<path class="st45" d="M68.1,113.9c-0.3,1.7-0.6,3.4-0.9,5.2c0,1.9-0.1,3.9-0.1,5.8c-0.2,0.7-0.5,1.4-0.7,2.1
			c-0.4,0.1-0.8,0.3-1.2,0.4c0-2.2,0.1-4.3-0.1-6.5c-0.2-2.6-0.6-5.3-0.9-7.9c-0.3-0.3-0.6-0.7-0.8-1c-0.1-0.3-0.1-0.6-0.2-0.9
			C65.8,110.6,67.8,111.7,68.1,113.9z"/>
		<path class="st27" d="M100.2,108.1c-0.3-0.4-0.7-0.8-1-1.1c0.8-0.2,1.6-0.3,2.3-0.5C101.1,107,100.7,107.5,100.2,108.1z"/>
		<path class="st27" d="M97.2,107.1c-0.3,0.3-0.7,0.6-1,0.9C96.5,107.6,96.9,107.4,97.2,107.1z"/>
		<path class="st27" d="M54.2,98.9c-0.3-0.3-0.6-0.6-0.9-0.8C53.6,98.3,53.9,98.6,54.2,98.9z"/>
		<path class="st27" d="M55.2,99.9c-0.3-0.3-0.6-0.6-0.8-0.9C54.7,99.3,54.9,99.6,55.2,99.9z"/>
		<path class="st27" d="M52.2,97c-0.3-0.3-0.6-0.6-0.9-0.9C51.6,96.3,51.9,96.6,52.2,97z"/>
		<path class="st27" d="M57.2,103c-0.3-0.3-0.5-0.6-0.8-0.8C56.7,102.4,56.9,102.7,57.2,103z"/>
		<path class="st27" d="M58.2,104c-0.3-0.3-0.6-0.6-0.9-0.9C57.6,103.4,57.9,103.7,58.2,104z"/>
		<path class="st27" d="M53.2,97.9c-0.3-0.3-0.6-0.6-0.9-0.9C52.6,97.3,52.9,97.6,53.2,97.9z"/>
		<path class="st24" d="M123.2,115c0.3,1,0.5,2,0.8,3C123.7,117,123.5,116,123.2,115z"/>
		<path class="st24" d="M66.4,127c0.2-0.7,0.5-1.4,0.7-2.1C66.9,125.6,66.6,126.3,66.4,127z"/>
		<path class="st27" d="M63.3,112c0.3,0.3,0.6,0.7,0.8,1C63.9,112.7,63.6,112.4,63.3,112z"/>
		<path class="st46" d="M46.1,102.9c-0.6,1.4-1.3,2.7-1.9,4.1c0.3-1.7,0.6-3.4,0.9-5.1C45.4,102.3,45.7,102.6,46.1,102.9z"/>
		<path class="st47" d="M46.1,102.9c-0.3-0.3-0.7-0.7-1-1c0-1.3,0.1-2.6,0.1-3.9c0.4,0.3,0.8,0.6,1.2,0.9
			C46.3,100.3,46.2,101.6,46.1,102.9z"/>
		<path class="st48" d="M103.3,42.1c-0.4-0.4-0.8-0.7-1.2-1.1c0.4-0.7,0.7-1.4,1.1-2c0.4-2.3,0.7-4.7,1.1-7c1.2,0.4,2.4,0.9,3.6,1.1
			c3.6,0.4,5.7,2.1,5.3,5.9c0,1.4-0.1,2.7-0.1,4.1c-2.2-0.6-4.4-1.4-6.6-1.7C105.5,41.1,104.4,41.8,103.3,42.1z"/>
		<path class="st49" d="M113.1,43c0-1.4,0.1-2.7,0.1-4.1c0.3-1.3,0.4-2.8,1-4c0.6-1.2,1.6-2.1,2.5-3.2c0.8,0.8,1.6,1.5,2.3,2.3
			c-0.3,1.4-0.8,2.8-0.9,4.3C118,41.7,116.4,43.2,113.1,43z"/>
		<path class="st50" d="M107.2,52c-1.6,0-3.3,0-4.9,0.1c0.1-1,0.1-1.9,0.2-2.9C104,50.1,105.6,51,107.2,52z"/>
		<path class="st3" d="M42.2,52c0.6,3.3-2.3,4.2-4,6c-3.1,2.4-6.2,4.9-9.4,7.1c-0.4,0.3-1.9-0.8-2.8-1.3c-1.8-1.8-3.7-3.5-5.3-5.4
			c-1.2-1.4-2.2-3-3.3-4.4c0.9-0.8,1.8-1.5,2.5-2.3c2.4-2.8,4.7-5.5,9-5.3c1.3,0.1,2.7-1.1,4.1-1.6c0.4-0.3,0.7-0.6,1.1-0.9l0,0
			C36.8,46.7,39.5,49.4,42.2,52z"/>
		<path class="st28" d="M34.1,44c-0.4,0.3-0.7,0.6-1.1,0.9C33.4,44.6,33.7,44.3,34.1,44z"/>
		<path class="st51" d="M154.3,113.2c0.7-0.3,1.3-0.6,2-1c0.1,0.5,0.3,1,0.4,1.5C155.9,113.5,155.1,113.4,154.3,113.2z"/>
		<path class="st52" d="M56.2,24.1c2.6,1.6,5.1,3.2,7.7,4.8c-4.6,0.1-9.2,0.2-13.7,0.2c-4.2,0-4.5-0.6-2.7-4.5
			c0.3-0.7,1.1-1.1,1.7-1.6C51.5,23.3,53.8,23.7,56.2,24.1z"/>
		<path class="st27" d="M18.2,66.2c0.3,0.3,0.6,0.6,1,0.9C18.8,66.8,18.5,66.5,18.2,66.2z"/>
		<path class="st53" d="M66.7,45.1c-1-2.2-2-4.4-3-6.5c2.5-0.9,5-1.7,7.4-2.6c-1.7-0.1-3.4-0.6-5-0.4c-4.2,0.5-8.2,1.7-12.7,0.7
			c-3.8-0.8-8.1,0.3-12.1,0.6c3.9,0.4,7.9,0.6,11.8,1.4c4.2,0.8,9.2,0.5,11.2,5.7c0.3,0.4,0.6,0.7,0.9,1.1c0,0.3,0.1,0.6,0.2,0.9
			c0.3,0.3,0.6,0.7,0.9,1l0,0c1,1.4,2,2.7,2.9,4.1c-0.7-1.4-1.4-2.7-2.1-4.1C67,46.4,66.9,45.7,66.7,45.1z"/>
		<path class="st54" d="M65.3,46c0.3,0.3,0.6,0.7,0.9,1C65.9,46.7,65.6,46.4,65.3,46z"/>
		<path class="st54" d="M64.2,44.1c0.3,0.4,0.6,0.7,0.9,1.1C64.8,44.8,64.5,44.4,64.2,44.1z"/>
	</g>
</g>
</svg>
