<?xml version="1.0" encoding="utf-8"?>
<!-- Generator: Adobe Illustrator 19.1.1, SVG Export Plug-In . SVG Version: 6.00 Build 0)  -->
<svg version="1.1" id="Layer_1" xmlns="http://www.w3.org/2000/svg" xmlns:xlink="http://www.w3.org/1999/xlink" x="0px" y="0px"
	 viewBox="0 0 131.5 88.4" style="enable-background:new 0 0 131.5 88.4;" xml:space="preserve">
<style type="text/css">
	.st0{fill:#C7B48F;}
	.st1{fill:#C5B592;}
	.st2{fill:#C6B491;}
	.st3{fill:#C6B492;}
	.st4{fill:#AF9580;}
	.st5{fill:#8D7166;}
	.st6{fill:#543435;}
	.st7{fill:#B1957C;}
	.st8{fill:#9C7D6A;}
	.st9{fill:#9A7D6C;}
	.st10{fill:#C4B59C;}
	.st11{fill:#543437;}
	.st12{fill:#AE9783;}
	.st13{fill:#8F7568;}
	.st14{fill:#583A3E;}
	.st15{fill:#8C7065;}
	.st16{fill:#AF9A8A;}
	.st17{fill:#D5C5A9;}
	.st18{fill:#583433;}
	.st19{fill:#7C6366;}
	.st20{fill:#D6C6A7;}
	.st21{fill:#9E7C68;}
	.st22{fill:#DCD0B2;}
	.st23{fill:#E3D7BD;}
	.st24{fill:#AF9680;}
</style>
<g>
	<g>
		<path class="st0" d="M107.1,47.2c4.2,2.1,8.5,4.2,12.7,6.4c5.5,2.9,8.9,7.8,11.3,13.3c1.7,3.9-1.1,7.1-3.1,10.3
			c0.4-1.6,0.6-3.2,1.1-4.7c1-2.7,0.7-3.8-2.5-2.6c-1.8,0.7-3.8,0.9-5.6,1.4c-3.2-1.4-5.7-0.4-8,2c-7-0.6-14.1-1.3-21.1-1.9
			c-3-5.6-6-11.2-9.1-16.9c0.5-0.3,1-0.8,1.6-0.9c6.6-1.1,13.1-2,19.7-3.3C105.2,50.1,106,48.3,107.1,47.2z"/>
		<path class="st1" d="M17.8,15.1c9.8-17,30.3-18.9,42.7-9.5c3.4,2.6,6.4,5.7,9.5,8.6c-2.1,0.4-4.3,0.6-6.2,1.3
			c-8,2.8-15.9,5.8-23.9,8.8c-2.4-0.3-4.7-0.6-7.1-0.9c-1.9-1.1-3.7-2.2-5.6-3.2C24.1,18.4,21,16.8,17.8,15.1z"/>
		<path class="st2" d="M38.8,79.3c0.2-1.7-0.2-3.7,0.6-5.1c2.6-4.7,5.6-9.3,8.5-13.9c3.3-0.7,6.6-1.4,10-2.1c1-0.3,2-0.7,3-1l0,0
			c3.4,3.3,6.8,6.7,10.2,10c1.3,2.1,2.5,4.1,3.8,6.2c-0.9,1.3-1.6,2.7-2.6,3.8c-1.6,1.8-3.5,3.4-5.2,5.2c-0.4-0.3-0.8-0.6-1.2-0.9
			c-1.7-0.4-3.3-0.7-5-1.1c0.3-0.1,0.6-0.2,0.9-0.3c-0.1-0.3-0.2-0.8-0.3-0.7c-1.5,0.2-2.9,0.5-4.4,0.8c-4.4-0.3-8.7-0.7-13.1-1
			C42.2,79.2,40.5,79.2,38.8,79.3z"/>
		<path class="st3" d="M75.1,26.2c6.3,1.3,12.1,3.5,16.8,7.9c0,1,0,2.1,0,3.1c0,4.4-3.7,3.4-6.1,4.1c-6.6,1.8-6.7,1.8-6.5,7.6
			c0,0.1-0.2,0.2-0.4,0.3c-2.1-3-4.4-5.3-8.7-5.3c-4.4,0-8.7-1.2-13.1-1.9c-1.8-2.6-3.5-5.1-5.3-7.7c1-1,1.9-2.2,3.1-3.1
			C61,27.1,67.9,26,75.1,26.2z"/>
		<path class="st4" d="M75.1,26.2C67.9,26,61,27.1,54.9,31.4c-1.2,0.8-2.1,2-3.1,3.1c-3.3-0.1-6.6-0.2-9.9-0.3c-3-0.9-4.3-3.1-5-5.9
			c1-1.3,2-2.7,3-4c8-2.9,15.9-5.9,23.9-8.8c2-0.7,4.1-0.9,6.2-1.3C72.7,17.8,77.4,20.5,75.1,26.2z"/>
		<path class="st5" d="M67,82.3c1.7-1.7,3.6-3.4,5.2-5.2c1-1.1,1.8-2.5,2.6-3.8c1.4,0.6,2.8,1.7,4.3,1.8C84,75.4,89,75.3,94,75.3
			c2.3,3.3,4.6,6.6,6.9,9.9c-10.3,1.1-20.6,2.2-30.9,3.3c-1.7-0.1-3.5-0.2-5.2-0.3c0.3-1.6,0.6-3.2,0.9-4.8
			C66.1,83,66.6,82.6,67,82.3z"/>
		<path class="st6" d="M42,34.2c3.3,0.1,6.6,0.2,9.9,0.3c1.8,2.6,3.5,5.1,5.3,7.7c1.2,5,2.5,10,3.7,15.1l0,0c-1,0.3-2,0.7-3,1
			c-3.3,0.7-6.6,1.4-10,2.1c-0.3-4.9-0.5-9.9-0.9-14.8c-0.1-0.9-1.3-1.6-2.1-2.4c-1.9-0.3-3.8-0.5-5.6-0.9c-0.8-0.2-2.2-1.1-2.1-1.3
			C38.2,38.3,37.5,34.3,42,34.2z"/>
		<path class="st7" d="M78.9,49.3c0.1-0.1,0.4-0.2,0.4-0.3c-0.2-5.8-0.1-5.7,6.5-7.6c2.4-0.7,6.2,0.4,6.1-4.1
			c2.3,1.7,4.6,3.4,6.9,5.1c1.7,0.7,3.4,1.4,5.1,2c1.1,0.9,2.1,1.9,3.2,2.8c-1,1.1-1.9,2.8-3.1,3.1c-6.5,1.3-13.1,2.2-19.7,3.3
			c-0.6,0.1-1,0.6-1.6,0.9c-0.3-0.1-0.6-0.1-0.9-0.2C80.9,52.6,79.9,51,78.9,49.3z"/>
		<path class="st8" d="M100.9,85.1c-2.3-3.3-4.6-6.6-6.9-9.9c-0.7-1.3-1.4-2.6-2.1-3.9c7,0.6,14.1,1.3,21.1,1.9
			c0.8,3.7,2.7,7.6-1.1,10.9C108.2,84.5,104.6,84.8,100.9,85.1z"/>
		<path class="st9" d="M17.8,15.1c3.2,1.7,6.3,3.3,9.4,5c1.9,1,3.7,2.1,5.6,3.2l0,0c0,1,0,1.9,0,2.9c-0.6,1.3-1.3,2.7-1.9,4
			c-0.7,0.7-1.4,1.4-2,2.1l0,0c-0.4-0.3-0.7-0.7-1.1-1c-3.6-2.3-7.1-4.7-10.7-7c0-2.4,0-4.7,0-7.1C17.3,16.6,17.6,15.9,17.8,15.1
			L17.8,15.1z"/>
		<path class="st10" d="M1.9,53.2c3.6-5.9,9.6-5.5,15.1-4.8c3.8,0.5,7.4,2.4,11.1,3.8c-0.7,0-1.3,0-2,0c-0.9,0-1.8-0.1-2.7-0.2
			c0.1,1.1,0,2.2,0.2,3.2c0.2,0.7,0.9,1.4,1.3,2.1c-3.7,0.1-7.4,0.1-11.1,0.2c-0.3-0.1-0.6-0.1-0.8-0.1C9.3,56,5.6,54.6,1.9,53.2z"
			/>
		<path class="st11" d="M13,57.3c0.3,0,0.6,0,0.8,0.1c3.5,4,7.5,6.8,13.3,5.8c2.4-0.4,4.9-0.7,7.3-0.8c0.5,0,1,1.2,1.5,1.8
			c0,0,0,0,0,0c-0.4,0.3-0.7,0.5-1.1,0.8c-0.2,0.2-0.5,0.3-0.8,0.4c-0.4,0.2-0.8,0.5-1.2,0.7l-0.1,0c-1.6,0.7-3.3,1.3-4.9,2
			c-5.7,0-11.3,0-17,0C11.6,64.6,12.3,61,13,57.3z"/>
		<path class="st12" d="M120.9,71.2c1.9-0.4,3.8-0.7,5.6-1.4c3.2-1.2,3.4-0.1,2.5,2.6c-0.5,1.5-0.7,3.1-1.1,4.7
			c-3.2,4.5-8.6,4.3-13,6c0-1.5,0.2-3,0-4.5C114.1,74,116.4,71.8,120.9,71.2z"/>
		<path class="st13" d="M13,57.3c-0.7,3.6-1.4,7.2-2,10.9c-3.1-1.9-6.6-3.5-9.4-5.9c-3.1-2.7-1-6,0.3-9C5.6,54.6,9.3,56,13,57.3z"/>
		<path class="st13" d="M35.9,64.3c-0.5-0.6-1-1.8-1.5-1.8c-2.4,0.1-4.9,0.3-7.3,0.8c-5.7,1-9.7-1.8-13.3-5.8
			c3.7-0.1,7.4-0.1,11.1-0.2c3.5,0.3,6.9,0.8,10.4,1c2.2,0.1,4.4,0,4.6,3C38.6,62.3,37.3,63.3,35.9,64.3z"/>
		<path class="st14" d="M17.1,24.3c3.6,2.3,7.1,4.7,10.7,7c0.4,0.3,0.7,0.7,1.1,1l0,0c1.4,2.9,2.8,5.9,4.1,8.8l0,0
			c-0.4-0.2-0.9-0.5-1.3-0.7c-3.4-1.6-7-2.8-10-4.9c-1.8-1.3-2.6-4.1-3.8-6.2c-0.2-1-0.5-2.1-0.7-3.1C17.1,25.6,17.1,25,17.1,24.3z"
			/>
		<path class="st15" d="M33,41.2c-1.4-2.9-2.8-5.9-4.1-8.8c0.7-0.7,1.4-1.4,2-2.1c1-1,2-1.9,3.1-2.9c0.6-0.1,1.3-0.1,1.9-0.2
			c0.3,0.4,0.7,0.7,1,1.1c0.7,2.8,2,5,5,5.9c-4.5,0.2-3.8,4.1-4.8,6.7c-0.1,0.2,1.3,1.1,2.1,1.3c1.8,0.4,3.7,0.6,5.6,0.9
			C40.8,43.2,36.6,44.2,33,41.2z"/>
		<path class="st16" d="M40,61.3c-0.2-3-2.4-2.9-4.6-3c-3.5-0.2-7-0.6-10.4-1c-0.5-0.7-1.1-1.3-1.3-2.1c-0.3-1-0.2-2.2-0.2-3.2
			c0.9,0.1,1.8,0.1,2.7,0.2c0.7,0,1.3,0,2,0c3.6,1.6,7.2,3,10.7,4.7C40.6,57.8,42.3,59.1,40,61.3z"/>
		<path class="st17" d="M120.9,71.2c-4.5,0.5-6.8,2.7-6,7.5c0.2,1.4,0,3,0,4.5c-1,0.3-2,0.6-3,0.9c3.8-3.3,1.9-7.1,1.1-10.9
			C115.2,70.8,117.7,69.9,120.9,71.2z"/>
		<path class="st18" d="M60.8,80.3c-1.3-0.1-2.5-0.1-3.8-0.2c-4.4-0.3-8.7-0.7-13.1-1c-1.7,0.1-3.4,0.1-5.1,0.2
			c1.3,0.8,2.6,1.5,3.9,2.3c4.3,3.1,8.3,6.8,14.1,6.8c2.6-0.1,5.3-0.2,8-0.3c0.3-1.6,0.6-3.2,0.9-4.8c0-0.6,0.1-1.2,0.1-1.9
			C64.1,81.1,62.5,80.7,60.8,80.3z"/>
		<path class="st19" d="M99.9,41.2c-2.7-2.4-5.3-4.7-8-7.1c0,1,0,2.1,0,3.1c2.3,1.7,4.6,3.4,6.9,5.1c1.7,0.7,3.4,1.4,5.1,2
			C102.6,43.3,101.3,42.3,99.9,41.2z"/>
		<path class="st13" d="M27.9,68.2c1.6-0.7,3.3-1.3,4.9-2C31.2,66.9,29.6,67.5,27.9,68.2z"/>
		<path class="st9" d="M17.1,26.2c0.2,1,0.5,2.1,0.7,3.1C17.6,28.3,17.4,27.3,17.1,26.2z"/>
		<path class="st1" d="M17.8,15.2c-0.2,0.7-0.5,1.4-0.7,2.1C17.3,16.6,17.6,15.9,17.8,15.2z"/>
		<path class="st15" d="M31.7,40.5c0.4,0.2,0.9,0.5,1.3,0.7C32.5,40.9,32.1,40.7,31.7,40.5z"/>
		<path class="st13" d="M34.9,65.1c0.4-0.3,0.7-0.5,1.1-0.8C35.6,64.5,35.2,64.8,34.9,65.1z"/>
		<path class="st13" d="M32.9,66.2c0.4-0.2,0.8-0.5,1.2-0.7C33.7,65.7,33.3,65.9,32.9,66.2z"/>
		<path class="st18" d="M91.8,71.3c0.7,1.3,1.4,2.6,2.1,3.9c-5,0-9.9,0.1-14.9-0.1c-1.5-0.1-2.9-1.2-4.3-1.8
			c-1.3-2.1-2.5-4.1-3.8-6.2c3.6-4.3,7.2-8.6,10.9-12.9c0.3,0.1,0.6,0.1,0.9,0.2C85.8,60.1,88.8,65.7,91.8,71.3z"/>
		<path class="st20" d="M36.9,28.2c-0.3-0.4-0.7-0.7-1-1.1c-1-1.3-2-2.5-3.1-3.8l0,0c2.4,0.3,4.7,0.6,7.1,0.9
			C38.9,25.6,37.9,26.9,36.9,28.2z"/>
		<path class="st21" d="M81.9,54.3c-3.6,4.3-7.2,8.6-10.9,12.9c-3.4-3.3-6.8-6.7-10.2-10c-1.2-5-2.5-10-3.7-15.1
			c4.4,0.7,8.7,1.9,13.1,1.9c4.3,0,6.6,2.2,8.7,5.3C79.9,51,80.9,52.6,81.9,54.3z"/>
		<path class="st22" d="M60.8,80.3c-1.3-0.1-2.5-0.1-3.8-0.2c1.5-0.3,2.9-0.6,4.4-0.8c0.1,0,0.2,0.5,0.3,0.7
			C61.4,80.2,61.1,80.3,60.8,80.3z"/>
		<path class="st21" d="M57.9,58.2c1-0.3,2-0.7,3-1C59.9,57.5,58.9,57.9,57.9,58.2z"/>
		<path class="st23" d="M65.7,83.3c0-0.6,0.1-1.2,0.1-1.9c0.4,0.3,0.8,0.6,1.2,0.9C66.6,82.6,66.1,83,65.7,83.3z"/>
		<path class="st24" d="M34,27.3c-1,1-2,1.9-3.1,2.9c0.6-1.3,1.3-2.7,1.9-4C33.2,26.6,33.6,27,34,27.3z"/>
		<path class="st1" d="M34,27.3c-0.4-0.4-0.7-0.7-1.1-1.1c0-1,0-1.9,0-2.9c1,1.3,2,2.5,3.1,3.8C35.3,27.2,34.6,27.3,34,27.3z"/>
		<path class="st15" d="M28.9,32.3c-0.4-0.3-0.7-0.7-1.1-1C28.1,31.7,28.5,32,28.9,32.3z"/>
	</g>
</g>
</svg>
