<?xml version="1.0" encoding="utf-8"?>
<!-- Generator: Adobe Illustrator 19.1.1, SVG Export Plug-In . SVG Version: 6.00 Build 0)  -->
<svg version="1.1" id="Layer_1" xmlns="http://www.w3.org/2000/svg" xmlns:xlink="http://www.w3.org/1999/xlink" x="0px" y="0px"
	 viewBox="0 0 104.1 84.6" style="enable-background:new 0 0 104.1 84.6;" xml:space="preserve">
<style type="text/css">
	.st0{fill:#8E7165;}
	.st1{fill:#907166;}
	.st2{fill:#553537;}
	.st3{fill:#9C7D6C;}
	.st4{fill:#AD9482;}
	.st5{fill:#58363A;}
	.st6{fill:#C6B69D;}
	.st7{fill:#8F766A;}
	.st8{fill:#583B3C;}
	.st9{fill:#B7A082;}
	.st10{fill:#9C7C6A;}
	.st11{fill:#C5B496;}
	.st12{fill:#B1947F;}
	.st13{fill:#AF9886;}
	.st14{fill:#C4B69C;}
	.st15{fill:#583838;}
	.st16{fill:#D0C0A5;}
	.st17{fill:#BEAC99;}
	.st18{fill:#B19681;}
	.st19{fill:#D3C6AC;}
	.st20{fill:#C4AF96;}
	.st21{fill:#927261;}
	.st22{fill:#D5CBB3;}
	.st23{fill:#937364;}
	.st24{fill:#D4C1A2;}
	.st25{fill:#E5D9C0;}
	.st26{fill:#E9DDC1;}
</style>
<g>
	<g>
		<path class="st0" d="M94.9,56.2c-3,0.6-6.1,1.3-9.1,1.9C78.8,59,71.9,59.9,65,60.6c-2,0.2-4-0.3-6-0.5c1.3-2,2.6-4,3.8-6
			c0.3-0.3,0.7-0.7,1-1l0,0.1c1-1.7,1.9-3.4,2.9-5.1c0.1-0.3,0.1-0.6,0-0.9c1.9-1.8,1.9-5.9,6-5.1c1-0.3,2.1-0.6,3.1-0.9
			c1.3,0,2.6-0.1,3.8-0.1c4-0.3,8.1-0.7,12.1-1c1,0.9,2.6,1.7,3,2.8c1.2,3.7,2,7.5,3,11.2l0,0C96.9,54.9,95.9,55.5,94.9,56.2z"/>
		<path class="st1" d="M46.7,47.4c-6.6,0-13.2-0.1-19.8-0.1c-2.7-3.3-5.4-6.7-8.1-10c5.8-0.9,11.6-1.7,17.4-2.7
			c4.6-0.8,9.2-1.6,13.7-2.4c1.3,0.4,2.7,0.7,4,1.1c-1,1-2.5,1.9-3.1,3.1C49.2,39.9,48,43.7,46.7,47.4z"/>
		<path class="st2" d="M46.7,47.4c1.3-3.7,2.5-7.5,4.1-11.1c0.5-1.2,2-2.1,3.1-3.1c1.3,0.7,2.7,1.3,4,2l0,0c0.3,0.3,0.7,0.5,1,0.8
			c2,1.3,4.1,2.7,6.1,4c1,0.4,1.9,0.8,2.9,1.2l-0.1,0c-0.6,2-1.1,4-1.7,6c-0.1,0.3-0.2,0.6-0.3,0.9c-0.6,1.7-1.3,3.4-1.9,5
			c0,0,0-0.1,0-0.1c-0.3,0.3-0.7,0.7-1,1c-1.3,2-2.6,4-3.8,6C54.9,55.9,50.8,51.6,46.7,47.4z"/>
		<path class="st3" d="M7,70.1c-0.2-1.6-1.1-3.7-0.4-4.8c2.1-3.6,4.8-6.8,7.3-10.2c4.3,2.6,10.4,2.9,11.6,9.4
			c0.5-0.1,0.9-0.3,1.4-0.4c1.3,2-2.9,4.1,0.1,6.1c-4.1,0.2-7.8,1.2-10,5C13.6,73.4,10.3,71.8,7,70.1z"/>
		<path class="st4" d="M38.8,57.2c7.1,5.7,8.3,9.6,5.2,17c-4.1,0.6-8.1,1.3-12.2,1.9c0-1,0-1.9,0-2.9c0.2,0,0.4,0,0.5-0.1
			c3.3-3.9-2.7-8.2,0.4-12.2c0-0.1-1.2-1.1-1.8-1.7C33.5,58.5,36.2,57.9,38.8,57.2z"/>
		<path class="st5" d="M18.8,37.2c2.7,3.3,5.4,6.7,8.1,10c-7.9,0.3-14.6-2.1-20-8c-1.1-1.2-2.4-2.2-3.7-3.3
			c-0.4-0.6-0.9-1.3-1.3-1.9c1.2-0.3,2.6-1.1,3.7-0.8C10,34.5,14.4,35.9,18.8,37.2z"/>
		<path class="st6" d="M38.8,57.2c-2.6,0.7-5.3,1.3-7.9,2c0,0,0,0,0,0c-0.7,0.3-1.4,0.6-2,0.9c-0.7,1.3-1.4,2.6-2,3.9
			c-0.5,0.1-0.9,0.3-1.4,0.4c-1.2-6.5-7.3-6.7-11.6-9.4c4.9-3.4,10.1-3.9,15.6-1.9C32.6,54.4,35.7,55.9,38.8,57.2z"/>
		<path class="st7" d="M31.8,76.1c4.1-0.6,8.1-1.3,12.2-1.9c-4.6,9-13.4,12.5-23.3,9.1c1-0.4,2.1-0.7,3.1-1.1
			c2.4,1.3,2.4-0.2,2.1-1.9C27.9,78.9,29.9,77.5,31.8,76.1z"/>
		<path class="st8" d="M23.8,82.2c-1,0.4-2.1,0.7-3.1,1.1c-7.2,0.4-9.4-5-11.9-10.1c-0.2-0.4-0.5-0.7-0.7-1.1
			c-0.2-0.2-0.3-0.5-0.4-0.8c-0.2-0.4-0.5-0.8-0.7-1.2l0-0.1c3.3,1.7,6.6,3.4,9.9,5.1c2,2,4,4.1,5.9,6.1
			C23.2,81.6,23.5,81.9,23.8,82.2z"/>
		<path class="st3" d="M7,70.1c0.2,0.4,0.5,0.8,0.7,1.2C7.5,70.9,7.2,70.5,7,70.1z"/>
		<path class="st3" d="M8.1,72.1c0.2,0.4,0.5,0.7,0.7,1.1C8.6,72.9,8.4,72.5,8.1,72.1z"/>
		<path class="st9" d="M65,40c-2-1.3-4.1-2.7-6.1-4c-0.3-0.3-0.7-0.5-1-0.8l0,0c0.3-0.7,0.5-1.9,0.8-1.9c2.1-0.2,4.1-0.1,6.2-0.1
			c0.7,0.3,1.3,0.6,2,1c2.8-0.7,6.4-0.5,8.3-2.2c4.4-4.2,7.9-9.2,11.8-13.9c4,2.1,8.1,4.2,12,6.5c2.6,1.4,4.3,3.5,3.8,6.7
			c-2.9-3.2-3.1-3-5.1,0.7c-1.6,2.9-3.9,5.5-5.8,8.2c-4,0.3-8.1,0.7-12.1,1c-1.5-0.3-3.1-0.5-4.6-0.8c0.3,0.3,0.5,0.6,0.8,0.9
			c-1,0.3-2.1,0.6-3.1,0.9c-1.7-0.3-3.4-0.6-5-0.8l0.1,0C66.9,40.9,65.9,40.4,65,40z"/>
		<path class="st10" d="M18.8,37.2c-4.4-1.3-8.8-2.8-13.2-3.9c-1.1-0.3-2.4,0.5-3.7,0.8c-2.5-1.4-2.3-3.1-0.4-4.7
			c3-2.5,6.2-4.9,9.3-7.4c3,0.3,6.1,0.7,9.1,1c1.3,0.1,2.6,0.1,3.8,0.2c0.7,0.3,1.4,0.5,2.1,0.8c7.1,0.1,14.1,0.3,20,5.1
			c1.3,1,2.7,2,4,3c-4.6,0.8-9.1,1.7-13.7,2.4C30.4,35.5,24.6,36.4,18.8,37.2z"/>
		<path class="st11" d="M19.9,23.1c-3-0.3-6.1-0.7-9.1-1c6.4-3.7,12.6-7.8,19.3-11c4.8-2.3,9.7-0.1,14.5,1.3
			c2.6,0.8,5.5,2.6,7.4-1.1c-1,4.9,4.1,3.8,6,5.9c-1.3,4-5.3,2.6-8,4c-1.3-0.1-2.9-0.8-4-0.3c-6,2.3-12,2.8-18.4,1.8
			C25.1,22.3,22.5,22.9,19.9,23.1z"/>
		<path class="st12" d="M87,18c-3.9,4.7-7.4,9.8-11.8,13.9c-1.8,1.7-5.5,1.6-8.3,2.2c0.2-2.2,0.7-4.4,0.6-6.6
			c-0.3-4.2-1-8.3-1.5-12.5c0.3-1.3,0.6-2.5,0.9-3.8c3.7-2,7.4-4.1,11.1-6.1C81,9.4,84,13.7,87,18z"/>
		<path class="st13" d="M91.9,40.1c2-2.7,4.3-5.3,5.8-8.2c2-3.7,2.2-3.9,5.1-0.7c3.2,8.7-0.2,16-5,23c-1-3.8-1.8-7.6-3-11.2
			C94.5,41.8,92.9,41,91.9,40.1z"/>
		<path class="st14" d="M78,5.1c-3.7,2-7.4,4.1-11.1,6.1c-1-0.4-2-0.8-2.9-1.1c-1.7-1.8-3.4-3.7-5.1-5.5C64.4-1.7,72.3-1.5,78,5.1z"
			/>
		<path class="st15" d="M58.9,4.5c1.7,1.8,3.4,3.7,5.1,5.5c0,0,0,0.1,0,0.1c0.2,0.4,0.5,0.9,0.7,1.3c0,0.3,0,0.5,0.1,0.7
			c0,0,0.1,0,0.1,0c-0.4,0.4-0.8,0.7-1.2,1.1c-1.3,1.4-2.6,2.8-3.9,4.3c-0.6-0.1-1.3-0.2-1.9-0.3c-1.8-2.1-6.9-0.9-6-5.9
			C54.2,9,56.6,6.8,58.9,4.5z"/>
		<path class="st13" d="M94.9,56.2c1-0.7,2-1.4,3-2C96.9,54.9,95.9,55.5,94.9,56.2z"/>
		<path class="st16" d="M75.9,41.2c-0.3-0.3-0.5-0.6-0.8-0.9c1.5,0.3,3.1,0.5,4.6,0.8C78.5,41.1,77.2,41.2,75.9,41.2z"/>
		<path class="st17" d="M62.8,54.1c0.3-0.3,0.7-0.7,1-1C63.5,53.5,63.2,53.8,62.8,54.1z"/>
		<path class="st16" d="M67.7,41.3c-0.6,2-1.1,4-1.7,6h0c-0.1,0.3-0.2,0.6-0.3,0.9c-0.6,1.7-1.3,3.4-1.9,5c1-1.7,1.9-3.4,2.9-5.1
			c0.1-0.3,0.1-0.6,0-0.9c1.9-1.8,1.9-5.9,6-5.1C71.1,41.8,69.4,41.6,67.7,41.3z"/>
		<path class="st18" d="M57.9,17.2c0.6,0.1,1.3,0.2,1.9,0.3c1.7,5.2,3.4,10.5,5.1,15.7c-2.1,0-4.1-0.1-6.2,0.1
			c-0.3,0-0.5,1.3-0.8,1.9c-1.3-0.7-2.7-1.3-4-2c-1.3-0.4-2.7-0.7-4-1.1c-1.3-1-2.7-2-4-3c0.4-0.2,0.8-0.4,1.2-0.6
			c-0.1-0.1-0.2-0.2-0.3-0.3c-4.1-4.5-4.1-4.5,1.9-6.2c0.4-0.1,0.8-0.6,1.2-0.9C52.5,19.8,56.6,21.2,57.9,17.2z"/>
		<path class="st19" d="M65,40c1,0.4,1.9,0.8,2.9,1.2C66.9,40.9,65.9,40.4,65,40z"/>
		<path class="st18" d="M57.8,35.2c0.3,0.3,0.7,0.5,1,0.8C58.5,35.7,58.2,35.5,57.8,35.2z"/>
		<path class="st20" d="M22.8,81.2c-2-2-4-4.1-5.9-6.1c2.2-3.9,5.9-4.8,10-5c1.7,1,3.3,2.1,5,3.1c0,1,0,1.9,0,2.9
			c-2,1.4-3.9,2.8-5.9,4.2C24.9,80.6,23.9,80.9,22.8,81.2z"/>
		<path class="st21" d="M31.8,73.2c-1.7-1-3.3-2.1-5-3.1c-3-2,1.2-4.1-0.1-6.1c0.7-1.3,1.4-2.6,2-3.9c0.7-0.3,1.4-0.6,2-0.9l0,0
			c0.6,0.6,1.9,1.7,1.8,1.7c-3.1,4,2.8,8.3-0.4,12.2C32.2,73.2,32,73.2,31.8,73.2z"/>
		<path class="st4" d="M30.9,59.2c-0.7,0.3-1.4,0.6-2,0.9C29.5,59.8,30.2,59.5,30.9,59.2z"/>
		<path class="st22" d="M22.8,81.2c1-0.3,2.1-0.6,3.1-0.9c0.3,1.8,0.3,3.2-2.1,1.9C23.5,81.9,23.2,81.6,22.8,81.2z"/>
		<path class="st23" d="M64.9,33.2c-1.7-5.2-3.4-10.5-5.1-15.7c1.3-1.4,2.6-2.8,3.9-4.3c0.4-0.4,0.8-0.7,1.2-1.1c0,0-0.1,0-0.1,0
			c0.4,1,0.8,1.9,1.2,2.9c0.5,4.2,1.2,8.3,1.5,12.5c0.2,2.2-0.4,4.4-0.6,6.6C66.2,33.8,65.5,33.5,64.9,33.2z"/>
		<path class="st24" d="M49.9,21.2c-0.4,0.3-0.7,0.7-1.2,0.9c-6,1.7-6,1.7-1.9,6.2c0.1,0.1,0.2,0.2,0.3,0.3
			c-0.4,0.2-0.8,0.4-1.2,0.6c-5.9-4.8-12.9-5-20-5.1c-0.7-0.3-1.4-0.5-2.1-0.8c-1.3-0.1-2.6-0.1-3.8-0.2c2.5-0.2,5.2-0.8,7.6-0.5
			c6.3,1,12.4,0.5,18.4-1.8C47,20.4,48.6,21.1,49.9,21.2z"/>
		<path class="st11" d="M23.8,23.3c0.7,0.3,1.4,0.5,2.1,0.8C25.2,23.8,24.5,23.5,23.8,23.3z"/>
		<path class="st25" d="M66,15c-0.4-1-0.8-1.9-1.2-2.9c-0.1-0.2-0.1-0.5-0.1-0.7c-0.2-0.4-0.5-0.9-0.7-1.3l0-0.1
			c1,0.4,2,0.8,2.9,1.1C66.6,12.5,66.3,13.7,66,15z"/>
		<path class="st14" d="M64,10.1c0.2,0.4,0.5,0.9,0.7,1.3C64.5,11,64.2,10.6,64,10.1z"/>
		<path class="st26" d="M64.9,12.1c-0.4,0.4-0.8,0.7-1.2,1.1C64,12.8,64.5,12.5,64.9,12.1z"/>
	</g>
</g>
</svg>
