<?xml version="1.0" encoding="utf-8"?>
<!-- Generator: Adobe Illustrator 19.1.1, SVG Export Plug-In . SVG Version: 6.00 Build 0)  -->
<svg version="1.1" id="Layer_1" xmlns="http://www.w3.org/2000/svg" xmlns:xlink="http://www.w3.org/1999/xlink" x="0px" y="0px"
	 viewBox="0 0 598.4 442.5" style="enable-background:new 0 0 598.4 442.5;" xml:space="preserve">
<style type="text/css">
	.st0{fill:#6A2700;}
	.st1{fill:#234A00;}
	.st2{fill:#813D00;}
	.st3{fill:#793F03;}
	.st4{fill:#904D01;}
	.st5{fill:#673C0E;}
	.st6{fill:#683808;}
	.st7{fill:#8C4C01;}
	.st8{fill:#664F00;}
	.st9{fill:#66960D;}
	.st10{fill:#71440C;}
	.st11{fill:#8C4D07;}
	.st12{fill:#244A00;}
	.st13{fill:#8F4E01;}
	.st14{fill:#6E3F08;}
	.st15{fill:#234D00;}
	.st16{fill:#244E00;}
	.st17{fill:#634014;}
	.st18{fill:#944E00;}
	.st19{fill:#6E2C03;}
	.st20{fill:#234E00;}
	.st21{fill:#224D00;}
	.st22{fill:#234C00;}
	.st23{fill:#244B00;}
	.st24{fill:#559400;}
	.st25{fill:#265000;}
	.st26{fill:#569300;}
	.st27{fill:#8EC708;}
</style>
<g>
	<g>
		<path class="st0" d="M292.4,442.5c-4.1-1.9-8.6-1.3-12.9-1.6c-23.5-1.5-47.1-1.6-70.7-1.4c-0.7,0-1.3,0-2,0
			c-0.4-0.1-1.1,0.2-0.9-0.6c0.1-0.4,0.5-0.9,0.9-1.1c0.8-0.2,1.6-0.3,2.5-0.3c1.5-0.1,3,0,4.5-0.1c6.2-0.2,12.6,0.7,18.5-2.2
			c0.2,0.3,0.3,0.7,0.5,0.8c6.5,2.2,20-1.5,24.1-6.5c6.7-8.2,9.6-17.5,8.5-28c-0.3-2.5,0.5-4.2,3-4.9v0c-0.3,9.5,2.8,18.2,6.6,26.6
			c1.6,3.6,4.2,6.9,7.6,9.7c5.3,4.3,12,3.1,17.6,5.7c0.8,0.4,2.2,0.4,2.8-0.5c0.7-1.1-0.5-1.8-1-2.5c-6.8-9.7-11.8-20.3-15.5-31.6
			c-0.4-1.1-0.7-2.2-0.9-3.3c-0.1-0.4,0.3-0.9,0.4-1.3c0.4,0.2,1,0.3,1.3,0.7c1.5,2.3,2.9,4.7,4.2,7.1c2.8,5.3,7,9.6,11.3,13.2
			c5.3,4.4,10.7,8.8,17.9,11c7.9,2.4,15.5,5.3,23.8,5.4c2.4-0.2,4.6,1.4,7,1c-1.2,1.6-3,0.9-4.6,0.9c-5.9,0.1-11.8,0-17.8,0.1
			c-1.6,0-3.3-0.7-4.7,0.8c-4.7,0.1-9.5,0.1-14.2,0.3c-0.8,0-2.3-0.3-2.3,0.9c0,1.1,1.5,0.9,2.4,1c1.1,0.2,2.3-0.1,3.1,1
			C306.4,442.5,299.4,442.5,292.4,442.5z"/>
		<path class="st1" d="M379.6,231.6c2.7,0.4,4.8,2.7,7.8,2.2c0.8-0.1,0.4,1.2,0.3,2.1c-0.4,3.6,1.1,5.6,4.5,6.5c3.3,0.9,5.7,0.1,7-3
			c0.8-1.8,1.8-2.2,3.4-3c3.5-1.7,6.1-4.8,8.6-7.7c1.9-2.3,3.5-3.1,6.3-1.6c2,1.1,4.1,1.4,6.6,0.4c3-1.2,6.3,0.4,8.7,2.1
			c3.8,2.7,7,1.9,10.5-0.3c5.3-3.4,11-5.1,17.3-4.1c0.6,0.1,1.7,0.4,1.9,0.2c2.3-3.6,7.7-0.5,9.3-3.5c2.7-5.1,6.1-4.6,10.4-3.3
			c1.3,0.4,1.8,0.8,2.3,2.1c1.2,3.4,2.7,6.2,7.4,5.2c1.7-0.4,3.8,0.7,5.8,0.9c2.9,0.2,4.5-1.2,4.7-3.9c0.2-2.6-0.1-5.1,2.6-7
			c1.3-0.9,0.4-3.2,0.4-4.8c0-1.7,0.5-2.6,2.4-1.7c1.3,0.6,3,0.1,3.9,1.7c0.3,0.5,1.1,1,1.6,1c5.6-0.7,8.9,3.2,12.2,6.5
			c2.4,2.4,5.1,2.4,7.8,2c2.6-0.4,5.2-1,7.9-0.9c1.7,0,3.5-0.6,4.5-1.9c2.2-2.9,5-2.1,7-0.6c2,1.5,4.6,2.1,6,4.7
			c1.2,2.2,3.9,2.3,6.3,1.5c2.8-0.9,5.3-2.2,8.3,0.1c1.5,1.1,3.8,0.3,5.3-1.5c1.3-1.4,2.1-3.3,4.4-3.7c1.6-0.3,0.9-3.6,2.6-3.1
			c2.4,0.8,5.3,1.1,7.1,3.4c1.2,1.5,2.7,2.5,4.7,2.2c-0.4,1.4-1.8,1.8-2.7,1.8c-3,0-5.5,0.9-6.9,3.7c-0.4,0.8-2.2,0-1.7,1.5
			c0.3,0.9,1.3,1,2.1,0.9c2.5-0.1,4.3,1.5,6.3,2.5c1.6,0.7,2.1,1.7,2.2,3.4c0.1,2-1.4,2.5-2.7,3.1c-3.8,1.8-7.8,1.5-11.6,0.5
			c-1.5-0.4-2.1,0.2-3.1,0.6c-3-2-5.9-4.8-9.7-1.3c-3.2-1.2-6.8,1.4-9.6-0.1c-3.4-1.8-6.7-1.6-10.1-1.6c-5,0-5.6,1-4,5.6
			c0.4,1.3,0.7,2.8-0.2,3.8c-1,1-2.3-0.1-3.2-0.5c-2.1-1-4.2-1.8-6.4-2.5c-3-1-5.1,0.8-7.4,1.9c-1.9,1-1.3,2.6-0.8,4.3
			c0.4,1.3-0.8,1.9-2.1,2.3c-4.5,1.3-4.6,2-1.6,5.5c1,1.1,1.8,2.6,3,3.2c1.6,0.8,1.8,1.1,0.3,2.1c-2.4,1.7-8.9,1.7-11.4-0.6
			c-4.3-3.8-9.1-5.6-14.8-5.9c-1.9-0.1-3.3,0.4-4.4,1.6c-0.9,0.9-0.6,1.9,0.3,3c1.7,2.3,1.1,3.5-1.7,3.8c-2,0.2-4-0.6-5.5-1.8
			c-3.9-3-7.8-2.2-11.7-0.5c-3.4,1.5-4.1,4.2-1.7,7.2c1.6,2,3.6,3.4,5.9,4.4c1.2,0.5,1.9,1,0.2,2.3c-2.2,1.7-4.1,1.8-6.4,0.6
			c-3-1.6-6.2-1.5-9.2-0.6c-2.7,0.8-4.1,3.2-3.9,6.3c0,0.4-0.4,0.8-0.8,1.2c-2.6,2.5-9.1,3.1-12.6,1.5c-0.7-0.3-2.1-1.6-2.3,0
			c-0.4,2.6-3,2.3-4.2,3.7c-1.4,1.2-2.8,0.5-4.2,0.1c-3.8-1.1-7.4-1.1-10.7,1.6c-0.8,0.7-2.2,0.6-3.3,0.9c-1.1,0.2-1.9-0.4-2.6-1.2
			c-0.8-1.1,0-1.9,0.7-2.6c0.8-0.8,1.8-1.5,2.5-2.4c0.7-1,2.6-1.8,1.7-3.2c-0.9-1.4-2.4-1.8-4.3-1.2c-2.9,1-6,1.6-9,1.9
			c-2.7,0.3-4.8,0.8-6.7,3.1c-2.7,3.2-8.1,4.5-10.5,2.6c-2.8-2.1-5.1-1.5-7.7,0c-3.3,1.9-6.9,3.1-10.7,3.5c-0.1-0.7-0.2-1.5-0.2-2.2
			c-5.5-3.1-10.9-6.6-17.7-4.6c-0.3,0.1-0.6,0.3-0.9,0.3c-0.9,0.1-1.7-0.4-1.9-1.3c-0.3-1.1,0.7-1.2,1.4-1.5c3.3-1.3,6.8-1,10.3-1
			c2.7,0,5.6,0.1,6.6-3c0.5-1.6-3.8-4.2-6.7-3.9c-4.1,0.5-8.2,1.1-12.4,0.1c-1.4-0.3-3,1-2.9,2.1c0.3,2.5-0.9,2.6-2.7,2.9
			c-1.4,0.3-2.7,1.2-4,1.9c-3.1-0.8-4.7-2.6-4.9-6c-0.2-2.8-1.5-4.8-4.8-5.3c-4.3-0.6-4.7-2-2.5-5.9c0.5-0.7,0.9-1.3,1.4-2
			c2.3-1.2,3.1,2.3,5,1.7c3.9-1.2,3.8,0.6,3,3.5c-0.6,2.1,0.7,3.6,2.4,4.4c2,1,3.6,0,4.7-1.6c0.6-0.8,1-1.7,1.4-2.6
			c2.2-4.9,10.6-7.9,15.6-5.7c3.8,1.7,5.1,1.2,7.7-2.2c1.5-2,3.9-4.3,6.1-3.6c2,0.6,5,0.4,6.3,3.3c0.5,1.1,2.5,1.6,4,1.1
			c1-0.3,4.1-7.2,3.9-7.9c-0.5-1.3-1.5-1.6-2.8-1.6c-2.2,0.1-4.3,0-6.5,0c-1.4-1.3-1.9-3-1.8-4.8c0.2-3.2-1.8-4.8-4.4-5.8
			c-1.5-0.6-3.1-1-4.6-1.5c-0.1-1-0.2-2-0.3-3C377.7,234.5,378.7,233.1,379.6,231.6z M503.4,244.5c2.2-0.2,5.5,1,6.6-0.7
			c2.8-4.4,6.9-2.9,10.6-3.4c3.6-0.5,6.5-2.2,8.2-5.7c0.6-1.3,0.9-2.7-0.4-3.6c-1.7-1.1-2.3-2.8-3.3-4.3c-2.3-3.4-9.2-5.1-11.9-2.4
			c-2.1,2.2-4.7,3.5-7,5.2c-2.3,1.6-8.2,2.8-10.9,3c-4.5,0.4-7.6-1.7-10.6-4.4c-1.7-1.6-4.5-3.1-5.7-2.4c-3.1,2.1-6,0.3-8.9,0.6
			c-2.2,0.2-4.4,0.5-6,2c-3.9,3.5-7.5,7.3-12,10.2c-1.7,1.1-2.6,1.8-4.6,1.1c-1.6-0.6-3.1-1.2-4.5-2.1c-2.7-1.7-5.4-2-7.6,0.5
			c-1.8,1.9-4.4,1.1-4.8,0.2c-1.7-4.1-4.1-3.5-8-3.5c-6.8,0-8.5,0.9-7.3,7.8c0.4,2.1,0.4,4.2-2.7,3.9c-2-0.2-2.9,0.6-3.6,2.5
			c-0.7,2.1-3,3.2-3.1,5.9c-0.2,2.9-4.2,1.4-5.8,3.4c-0.8,1-2.3,1.7-2.5,3c-0.2,2.1-1.7,2.2-3.1,2.7c-1.6,0.6-3.1,1.2-4.6,1.8
			c-0.8,0.3-1.7,1.3-1.3,1.9c1.6,2.1,2.2,5.8,3.9,6.4c3.4,1.1,7.1,3.6,11.2,0.9c2.4-1.6,5.2-2.4,8.2-2.8c4-0.6,7.1-3.4,8.5-7.5
			c0.8-2.2,4-4.1,5.9-2.8c1.6,1,4.6,1.3,3.3,5.2c-1.6,4.8-0.1,6.4,4.9,7.4c3.2,0.6,5.9-0.5,7.9-3c0.8-1,1.3-2.2,2.9-2.3
			c6.7-0.8,11.5-6.6,10.7-13c-0.1-1-0.8-1.7,0.6-2.4c4-2.1,8.5-3,12.3-1.4c4.6,1.9,8.6,2.9,13.2,0.7c0.7-0.3,1.6-0.2,2.5-0.3
			c5.5-0.4,7.9-3.1,7.7-8.6c0-0.8-0.8-1.7,0.2-2.2c0.9-0.4,2.3-0.4,2.8,0.4C497.2,245.5,500.4,244.3,503.4,244.5z"/>
		<path class="st2" d="M268.4,396.5c-2.5,0.7-3.3,2.4-3,4.9c1.1,10.5-1.9,19.8-8.5,28c-4.1,5.1-17.6,8.7-24.1,6.5
			c-0.2-0.1-0.4-0.5-0.5-0.8c2.3-1.6,4.7-3.2,7-4.7c1.3,0,3,0.6,3.9-0.4c2.7-2.9,6.6-3.8,9.4-6.3c2.1-1.8,3.7-3.9,5.3-6.4
			c3.5-5.7,5.4-11.6,4.7-18.3c-0.1-0.5,0-1,0.1-1.5c2.2-7.3-0.4-14.4-0.9-21.6c0-0.7,0-1.5-0.4-1.9c-2.6-2.9-1.9-6.5-1.9-9.9
			c0-5,0-10,0-15c0-1.3,0.5-2.7-0.8-3.7c-1.9-4.8-2.7-10-6.1-14c0.7-1.5-2.3-2.7-0.9-3.7c1.2-0.9,3.1,0.5,4.5,1.3
			c1,0.5,1.6,1.6,2.4,2.4c1.3,1.4,2.6,2.9,4,4.3c1,1,1.8,0.5,2-0.8c0.3-0.2,0.8-0.4,0.8-0.5c-0.7-2.9,0.9-6.1-1.1-8.9
			c-0.9-1.2-1.4-2.6-0.7-4.1c3-0.6,6.3,1.9,9.1-0.9c3.8,5.3,7.7,10.5,7.2,17.6c-0.1,1.2,1.8,1.7,2.1,0.8c0.9-3.1,4.6-5,3.7-8.8
			c1.6-1.5,5.4-6.6,8.4-6.2c4.2-3.9-6.3,9.7-6.4,13.9c0,1.3-0.2,3.2-1,4.6c-0.8,0.5-1,1.3-1,2.2c0,3.2,0,6.3,0,9.5
			c0,0.6,0.3,1.5-0.6,1.6c-0.8,0.1-1.1-0.6-1.3-1.3c-0.2-0.8-0.3-1.6-1-2.2c-0.8-0.6-1.6-0.6-2,0.4c-1.7,4.2-0.7,8.4,0.3,12.6
			c0.1,0.6,0.8,1.1,1.6,0.9c0.8-0.2,0.9-0.9,0.9-1.5c0.1-1.5,0.1-3,0.3-4.4c0-0.3,0.7-0.8,1-0.9c0.5,0,0.5,0.6,0.6,1.1
			c0.4,2-0.9,4.3,1,6.2c2.1,3.8,1.3,8.2,2.8,12.2c0.7,1.9,2,4.1,1.5,6.5c-0.6,0.2-0.6,3.3-1.8,0.4c-0.2-0.4,0.1-1-0.6-1
			c-0.7,0-1.5,0.2-1.6,0.9c-0.2,1.3-0.6,2.9,0,3.9c1.6,2.8,1.7,6.1,3.1,8.7c1.4,2.6,1.7,5.8,3.9,7.7c2.8,2.4,6.5,3.8,7.9,7.6
			c0.2,0.7,0.8,1.1,1.5,1.1c2.3-0.1,4.2,0.7,5.9,2.1c0.4,0.3,0.9,0.7,1.2,0.1c0.1-0.3-0.3-0.8-0.5-1.3c-0.4-0.9-3.1-0.8-1.3-2.7
			c6.9,5.7,14.5,10.3,23.1,13.1c5.1,1.7,10.3,3.1,15.7,4.2c4.1,0.8,8.6,0.5,12.4,2.8c-0.4,0.6-1,1.1-1.6,0.8
			c-3.6-1.5-7.4-0.8-11.2-0.9c-1.2,0-2.9-0.7-3.6,0.6c-0.9,1.4,1.3,2.1,1.5,3.3c-8.3-0.1-15.9-3-23.8-5.4c-7.2-2.2-12.6-6.5-17.9-11
			c-4.3-3.7-8.5-8-11.3-13.2c-1.3-2.4-2.8-4.8-4.2-7.1c-0.2-0.4-0.8-0.5-1.3-0.7c-0.2,0.4-0.5,0.9-0.4,1.3c0.2,1.1,0.6,2.2,0.9,3.3
			c3.7,11.3,8.7,21.9,15.5,31.6c0.5,0.8,1.7,1.5,1,2.5c-0.6,0.9-2,0.9-2.8,0.5c-5.6-2.6-12.3-1.3-17.6-5.7c-3.4-2.8-6-6.1-7.6-9.7
			C271.2,414.7,268.1,405.9,268.4,396.5c2.2,0.9,2,2.8,2,4.6c0,1.6-0.5,3.4,0.9,4.7c2,1.8,2.4,4.2,3.1,6.6c1,3.5,2.6,6.7,5.6,9.1
			c1.1,0.9,2.4,2.1,4,1.5c1.7-0.6,1.5-2.4,1.4-3.9c-0.2-4.9-0.5-9.6-1.6-14.5c-1.3-5.7-1.9-11.6-3.9-17.1c-0.9-2.4,0-5-0.7-7.4
			c-3.3-10.4-4.1-21.1-2.8-31.9c0.3-2.1,0.2-4.3-0.1-6.5c-0.2-1.5-1.3-2.9-2.9-2.9c-1.4,0-1.6,1.3-2,2.5c-0.6,1.7-1,3.5-0.9,5.3
			c0.1,1.7,0.6,3.8-0.3,4.9c-2.4,3.4-1.7,7-1.7,10.6C268.3,373.5,268.4,385,268.4,396.5z"/>
		<path class="st3" d="M445.6,306.6c-9.2,1.9-18.6,2.1-28,2c-7.1-0.1-14,2-20.9,2.6c-7.2,0.7-14.1,2.9-21.3,3.2
			c1.6-2.4,3.9-3.9,6.7-3.8c5.9,0.1,11.1-2.3,16.5-4.1c0.4-0.1,0.9-0.2,1-0.7c0-0.1-0.6-0.3-0.9-0.3c-1.2-0.1-2.3-0.1-3.5-0.1
			c8.4-2,16.8-4,25.2-6.1c0.9,1.3,4.2,1.5,1.8,4.4c-0.5,0.7,1.4,0.4,2.2,0.7c0.9,2.1,2.7,2,4.6,2C434.5,306.5,440,306.5,445.6,306.6
			z"/>
		<path class="st4" d="M308.2,412.5c-1.8,2,0.9,1.8,1.3,2.7c0.2,0.4,0.6,1,0.5,1.3c-0.3,0.6-0.8,0.2-1.2-0.1
			c-1.7-1.4-3.7-2.1-5.9-2.1c-0.7,0-1.3-0.4-1.5-1.1c-1.4-3.8-5.1-5.2-7.9-7.6c-2.1-1.9-2.5-5.1-3.9-7.7c-1.4-2.6-1.5-5.9-3.1-8.7
			c-0.6-1-0.1-2.6,0-3.9c0.1-0.7,0.9-0.9,1.6-0.9c0.7,0,0.4,0.6,0.6,1c1.2,2.9,1.2-0.2,1.8-0.4c2,4.1,4,8.1,6.1,12.2
			C299.5,403.2,303.8,407.9,308.2,412.5z"/>
		<path class="st5" d="M445.6,306.6c-5.6,0-11.1-0.1-16.7-0.1c-1.8,0-3.7,0.1-4.6-2l0.2-0.2c5.1,0.9,10.3,1.1,15.3,0.3
			c8.9-1.5,17.6-3.9,25.9-7.4c3.2-1.3,7-1.7,9.3-4.9c2.1,0.6,4.5-0.8,6.4,1c-8.4,5.1-17.3,8.8-26.9,11
			C451.6,305,448.6,305.8,445.6,306.6z"/>
		<path class="st6" d="M370.1,315.5c-2,0-4,0-6,0c-2.7,0-4.4-1.2-4.7-4c3.6-0.2,8,2.1,10.3-3c0.6-1.3,2-1.2,3.1-0.7
			c4.2,1.9,8.3,0.7,12.4,0.1c2.9-2.4,7-0.6,10-2.5c1.2,0,2.3,0.1,3.5,0.1c0.3,0,0.9,0.2,0.9,0.3c-0.1,0.5-0.5,0.6-1,0.7
			c-5.4,1.7-10.6,4.1-16.5,4.1c-2.8,0-5.1,1.4-6.7,3.8C373.6,314.8,371.7,314.5,370.1,315.5z"/>
		<path class="st7" d="M344.4,436.5c-0.2-1.3-2.3-1.9-1.5-3.3c0.8-1.3,2.4-0.7,3.6-0.6c3.7,0.1,7.5-0.6,11.2,0.9
			c0.7,0.3,1.2-0.2,1.6-0.8c2.6-0.1,5.3-0.5,7.3,1.7c-0.2,0.2-0.7,0.5-0.7,0.6c0.8,3.5,0.8,3.5-2.9,3.6c-4,0.1-7.7-1.7-11.7-1
			C348.9,437.9,346.8,436.3,344.4,436.5z"/>
		<path class="st8" d="M321.4,319.3c0-1.4,0-2.6,1.9-2.8c5.7-0.7,11.4-1.3,17-2.8c2.9-0.8,3.1,2.9,5.2,3.7c-0.3,0.4-0.6,0.7-1,1.1
			c-1.1,0.9-2.4,1-3.7,1C334.3,319.4,327.8,319.3,321.4,319.3z"/>
		<path class="st9" d="M528.4,284.4c-0.2-0.6-0.7-1.3-0.1-1.8c0.3-0.2,1-0.1,1.4-0.1c1.6-0.1,3.3,0.3,4.9-0.3
			c-1-1.5-3.4,0.2-4.3-1.6c3.9-0.4,7.8,0.7,11.6-0.8c4.4-1.7,7.4,2.6,11.4,2.8c0.7,0,1.3,0,2,0c1.9,3.2,4.6,2.2,7.3,1.3
			c1.7-0.6,0.7-1.1,0.1-1.9c-0.4-0.6-0.3-1.5-0.4-2.3c2.4,0.2,4.4,1.3,4.1,3.8c-0.3,2.6-2.8,2.8-5,2.8c-5.3,0-10.5-0.9-15-3.8
			c-1.3-0.8-2.5-1.2-3.7-0.8C538.1,283.2,533,282.8,528.4,284.4z"/>
		<path class="st10" d="M351.4,437.5c4-0.7,7.8,1.1,11.7,1c3.7-0.1,3.7,0,2.9-3.6c0-0.1,0.4-0.4,0.7-0.6c3.8-0.4,6.4,2.1,9.4,3.8
			c0.4,0.2,0.9,0.7,0.6,1.1c-0.2,0.3-0.9,0.3-1.3,0.4c-0.7,0.1-1.3,0.1-2,0.1c-16.3-0.1-32.6-0.2-49-0.3c1.4-1.4,3.1-0.7,4.7-0.8
			c5.9-0.1,11.8,0,17.8-0.1C348.3,438.4,350.1,439.1,351.4,437.5z"/>
		<path class="st11" d="M286.3,366.5c-1.8-1.8-0.6-4.1-1-6.2c-0.1-0.5-0.1-1.1-0.6-1.1c-0.4,0-1,0.5-1,0.9c-0.2,1.5-0.2,3-0.3,4.4
			c-0.1,0.7-0.1,1.4-0.9,1.5c-0.8,0.2-1.4-0.3-1.6-0.9c-1-4.2-2.1-8.3-0.3-12.6c0.4-1,1.2-1,2-0.4c0.7,0.6,0.8,1.4,1,2.2
			c0.2,0.6,0.5,1.4,1.3,1.3c0.9-0.1,0.6-1,0.6-1.6c0-3.2,0-6.3,0-9.5c0-0.9,0.2-1.6,1-2.2C286.3,350.5,286.3,358.5,286.3,366.5z"/>
		<path class="st12" d="M196.3,315.5c-3.3-0.8-6.8-0.5-10.1-1.8c-2.7-1.1-5.3,0.7-7.5,1.5c-3.8,1.4-6.9-0.2-10.2-0.7
			c-1.9-0.3-1.6-2.7-3-3.7c-2.1-1.4-0.8-3,0.3-4.2c1.7-1.7,0.4-2.8-0.7-3.6c-2-1.5-4.1-2.9-6.3-3.9c-3.9-1.7-7.3-4.9-12.2-4.1
			c-1.9,0.3-3.8-0.6-2-3.6c2-3.3,0.6-7.3-2.8-9.3c-2.1-1.3-4.3-2.3-6.4-3.6c-1-0.6-2.4-1.2-2.2-2.9c0.2-1.6,0-3.3,0.5-4.9
			c1.4-4,3-7.7,7.9-8.2c1.9-0.2,1.1-1.5,0.5-2c-1.2-1-2.7-1.9-4.2-2.4c-1.8-0.7-6,1.9-5.5,3.6c1.1,3.8-1.8,4.2-3.8,5
			c-2.6,1.1-5.5,2.4-8.1-0.3c-1.1-1.1-2.3-0.6-2.8,0.6c-0.6,1.1-1.7,1.5-2.4,2.5c-3-0.6-6.2,1.4-9.2-0.8c-1-0.7-2.1,0.8-3,1.3
			c-1.6,1-3.3,1.6-5.2,1.5c-1-0.1-2.1,0.2-2.5-1c-0.3-1.1,0.5-1.9,1.2-2.5c0.8-0.8,2-1.1,2.5-2.3c0.7-1.9,0.7-3.2-1.9-3.3
			c-5.3-0.2-9.8,2.1-14.3,4.4c-3.6,1.8-6.7,4.8-11.2,1.9c-1.7-1-4.4-1.1-6.1,0.7c-2.5,2.5-6.5,3.4-8.6,2.8
			c-5.6-1.5-10.2,1.3-15.2,1.8c-2.7,0.3-5.1-0.5-7.2-2.5c-2.3-2.2-3.7-4.2-0.7-7c1.2-1.2,0.2-4.8-1.5-5.2c-2.1-0.4-3.8-1.9-6.2-1.8
			c-2,0.1-4,0.7-5.3-2.3c-0.7-1.7-4-0.4-6.1-0.7c-1.2-0.2-2.9,0.7-3.5-1c-0.6-1.5,0.4-2.2,1.6-3.2c2-1.6,1.6-5.2,5-6.2
			c1.1-0.3-0.4-1.4-1.3-1.6c-3.7-0.9-7.4-1.6-10.9-2.9c-6.1-2.3-7.5-8.4-2.8-12.9c0.5-0.5,1.1-0.8,1.5-1.2c1.7-1.7,1.9-5,0.4-6.9
			c-0.4-0.5-1.1-1.3-1-1.7c1.9-5-2.7-8.2-3.2-12.5c0.7,0,1.4,0.2,2,0c3.7-1.6,6.7-0.3,9.3,2.3c2.3,2.2,4.4,1.7,6.7,0.1
			c1.8-1.3,3.6-3.1,5.8-2.2c4.4,1.9,6.9-0.4,9.2-3.5c1.1-1.5,2.3-1.9,3.7-0.8c3.2,2.6,6.6,2.5,10.3,1.5c2.5-0.6,4,1.4,2.7,3.6
			c-0.7,1.2-1,2.1-0.1,3.1c1.1,1.1,1.2,2.2,0.5,3.6c-0.4,0.8-0.2,2,0.5,2.2c4.1,1,6.7,4.2,10.1,6.2c1.8,1.1,3.8,1,3.2,3.9
			c-0.6,2.8,1.9,3.7,3.7,4.6c1.6,0.8,3.6,0.6,5-1c3.4-4,8-6.7,11.6-10.6c2.2-2.4,4.3-4.1,7.6-1.7c0.6,0.4,1.7,0.7,2.4,0.4
			c4.4-1.5,8.2-0.2,12.1,2.1c1.9,1.1,3.8,1.1,6-0.4c2.8-1.9,6.1-3.7,9.3-4.3c4.4-0.8,9-0.1,13.5-1.9c2.3-0.9,4.7-0.9,5.9-3.5
			c0.8-1.6,2.4-2.2,3.8-1.5c1.5,0.8,4.1,1,3.3,3.9c-0.7,2.6,0,4.9,1.7,7c-0.1,0.5-0.1,1.2-0.4,1.3c-3.7,2-9.8-0.4-10.9,6.2
			c0,0.2-0.6,0.2-0.9,0.3c-2.4,1.2-3.6,3.7-5.9,5c-1.3,0.7-0.3,2.8,0.8,2.4c4.4-1.7,9.5,1,13.6-2.4c0.8-0.6,2.3-1.7,2.7,0.3
			c0.6,3.1,2.5,3.8,5.3,4c2,0.2,3.5,1.4,1.8,3.7c-4.5-0.6-9.1,1.9-13.7,0.1c-0.9-0.4-2.1,0-2.6,1c-0.6,1.3,0.7,1.6,1.5,2.1
			c1.4,0.9,2.8,1.8,4.1,2.7c3.5,2.6,5.6,3,8.8,0.4c2.1-1.7,3.8-1.6,5.8-0.8c3.4,1.4,6.4,0.9,8.3-2.2c1.9-3,4.3-1.9,5.6-0.3
			c2.5,3.2,5.1,2.3,8,1.2c4-1.5,4.5-1.1,4.2,3.2c0,0.5-0.4,1-0.3,1.4c0.8,2.8-1,6.4,1.4,8.5c2.4,2.2,6.6,2.2,7.5,6.3
			c0,0.2,0.6,0.3,0.9,0.3c3.8-0.4,5.2,0.9,3.7,4.7c-0.2,0.4,0.4,1.2,0.8,1.7c2.3,3.3,6.2,3.5,9.4,0.7c4.4-3.8,8.8-7.4,13.3-10.9
			c0.8-0.6,2.1-2.2,2.9-1.4c1.9,2,3.3,0.6,4.9,0c3-1.1,3.5-0.8,3.5,2.3c0,0.7-0.2,1.3-0.1,2c0.3,4.6-1.8,10.5,6.1,11
			c0.3,0,0.7,0.3,0.8,0.5c0.6,3.4,3.5,4.6,5.8,6.4c1.5,1.2,1.2,2.4-0.6,2.8c-1.6,0.3-3.5,0.6-4.8-0.5c-1.6-1.3-3.3-1.5-5.1-1.4
			c-2.3,0.1-3.9-0.5-4-3.2c0-1.8-1.1-2.7-2.9-2.8c-1,0-2.4,0.3-2.7-0.8c-0.9-3.1-3.5-2.5-5.3-2.1c-3.6,0.8-7.6,1.1-10.6,3.8
			c-0.9,0.9-2,1-3.2,1.1c-2.3,0-4.6-0.4-6.9,0.7c-0.8,0.4-7.7-3.2-8-4.1c-0.2-0.4-0.1-0.9,0-1.4c0.5-5.3,0.1-5.8-5.3-6.2
			c-1.5-0.1-3,0.1-3.1-2.2c-0.2-3.8-2.6-5.9-6.1-6.8c-3.8-1-5.3,2-6.8,4.4c-2,3.3-4.6,5-8.6,4.6c-1.8-0.2-3.7-0.1-5.5,0
			c-1.9,0-3.2,1.2-3.8,2.8c-0.6,1.7,0.5,2.8,2.2,3.2c0.9,0.2,1.5,0.7,1.5,1.7c0,3.6,3.1,3.7,5.3,4.1c3.5,0.6,7,2,10.7,0.3
			c1.1-0.5,2.6-0.2,4-0.1c1.7,0.1,3.1,0.7,3,2.6c-0.1,1.9-1.5,2.5-3.2,2.3c-3.7-0.5-7.2,1.1-10.8,1.4c-2.4,0.2-5.6,0.9-5.7,4.4
			c-0.1,2.2,3.5,4.4,6.8,3c4.1-1.7,6.2,1.3,9.2,2.1c0.8,0.2,2.3,1.3,0.3,2.4c-1,0.5-1.8,1.5-2.4,2.5c-1.5,2.4-1.3,4.6,0.6,6.8
			c1.9,2.1,3.7,1.7,5.7,0.5c0.9-0.6,1.5-0.9,2.7-0.4c4,1.5,7,0.3,10-2.5c3-2.9,5.4-6.9,9.7-7.8c3.1-0.7,4.9-1.8,4.8-5
			c0-0.8,0.1-1.4,1-1.2c1.7,0.5,1.6,3,3.8,3.4c1,0.2,0.4,1.7,0,2.6c-0.8,2-0.5,4.5,0.9,5.3c1.8,1,4.2,2.1,6.5,0.7
			c2.8-1.7,6.2-2.2,8.6-4.8c1.9-2,7.2-1.9,7.9,0.2c0.9,2.7,2.5,2.6,4.6,2.6c1.5,0,3.2-0.4,2.6,2.3c-0.3,1.1,1.1,1.5,2,1.9
			c2.9,1.5,5.5,0.7,7.9-1.2c2.6-2,4.2-5.1,6.5-7.2c4.6-4.3,9.8-7.9,14.8-11.6c1.2-0.9,2.6-0.8,4.2-0.5c3.3,0.6,7.1,1.5,9.2-2.7
			c3.4,0,5.8,0.6,5.2,5.2c-0.3,2.5,2.1,4.3,4.8,4.9c0.1,0.3,0.1,0.7,0.2,1c0.2,1.4,3,2.4,0.9,4.2c-1.7,1.5-3.5,0.4-5.1-0.4
			c-0.6-0.3-1.1-0.8-1.6-1.1c-3-1.5-6.1-2.5-9.5-1.2c-1.7,0.7-3.6,0.8-3.8,3.3c-0.2,2.3,0.2,4.3,2.3,5.7c1.1,0.7,2.1,1.6,3.3,2.2
			c1.5,0.8,0.9,1.4,0.1,2.2c-1.8,1.7-3.7,1.1-5.5,0.1c-3.2-1.6-6.5-1.5-9.7-0.5c-2.7,0.8-1.7,4-2.7,5.9c-0.1,0.3-0.5,0.4-0.7,0.7
			c-3,2.3-6.7,3-9.7,1.3c-3.3-1.9-4.8-1.1-6.2,1.7c-2.8-0.1-5.8,1.1-8.3-0.2c-2.5-1.3-3.9-0.3-5.7,0.8c-1,0.6-2,1.2-3.1,1.4
			c-1.4-0.2-3.2,0.5-3.8-1.5c-0.5-1.7,0.7-2.3,2-2.8c1.4-0.5,1.4-2.2,2.3-3.1c0.6-0.6,0.4-1.8-0.6-1.9c-5.6-0.5-11.1,0.4-16.1,2.6
			c-2.2,1-4.6,2.3-6.7,3.7c-1.1,0.1-2.3,1.5-3.3,0.6C203,310.4,199.7,313.6,196.3,315.5z M45.1,217.5c-1.9-0.1-3.4,0.2-4.8,1.8
			c-2.4,2.7-5.1,5-9.5,4.5c-2.1-0.3-4.5,1-6.5,2.2c-0.8,0.5-2,0.8-1.8,2.1c0.2,1.7,1.6,1.4,2.7,1.4c2.2,0,4.3-0.1,6.3,1
			c1.6,0.9,1.8,2.4,2.1,3.8c0.4,1.7-1.4,2-2.2,2.1c-3.7,0.3-4.7,4.7-8.1,5.4c-0.8,0.1-0.9,0.9-0.8,1.6c0.1,0.7,0.7,1.1,1.4,1.2
			c0.7,0,1.3,0,2,0.1c3.8,0.3,7.1-0.9,10.3-2.8c2.2-1.3,8.9-0.7,9.3,0.8c0.6,2.6,0.1,5.1-1.9,7.2c-0.6,0.7-1.7,1.4-0.6,2.4
			c0.9,0.8,1.8,0,2.7-0.4c2.2-1.2,3.7-4.1,6.1-4c5.8,0.3,10-4,15.4-4.7c1.3-0.2,2.4-1,3.7-1.5c1.5-0.5,2.1-1.8,2-3.1
			c-0.1-1.6-1.7-2.1-3-1.9c-4,0.6-7.4-1.5-11.1-2.1c-2.4-0.4-2.4-1.3-0.4-2.5c1.3-0.8,2.2-2.1,1.8-3.8c-0.5-2.2-2.3-1.5-3.7-1.5
			c-3.8-0.2-6.9-2.9-7.4-5.6C48.6,217.7,47.4,217.5,45.1,217.5z M113,236.3c2.2,0,4.3,0.2,6.5-0.1c1.9-0.2,5.1-5.9,4.4-7.4
			c-0.6-1.6-4.2-2.6-6.6-1.9c-0.8,0.2-1.8,0.3-2.3,0.8c-2.3,2.1-4.3,2-6.3-0.5c-0.5-0.7-1.5-1.1-2.3-0.7c-2.1,1-3.1,0.2-4.4-1.5
			c-2.2-2.9-5.1-2.2-6.7,1.4c-0.6,1.4-1.6,1.8-3.1,2.1c-2.6,0.4-3.8,1.6-1.4,3.9c1.7,1.6,1.1,2.5-0.7,3.2c-0.6,0.3-1.2,0.6-1.8,0.9
			c-1,0.6-2.2,1.1-1.6,2.6c0.6,1.3,1.8,1.5,3,1.2c1.1-0.2,2.2-0.7,3.2-1.2c2.1-0.9,4.6-2.9,6.2-2.4
			C104.1,238.3,108.5,235.6,113,236.3z M99.3,248.1c-0.1-0.9-0.4-1.4-1.2-1.6c-1.6-0.4-3.1-1.4-4.8-0.9c-2.6,0.7-4.7,0.3-7.3-0.7
			c-2.7-0.9-7.3-2.7-9.2,2.5c-0.5,1.4-2.3,0.9-3.6,1.1c-1.5,0.2-3.6,0.6-3.5,2.2c0.2,2.1-0.7,2.6-2.2,3.4c-1.3,0.7-2.6,1.9-1.8,3.7
			c0.8,1.9,2.6,2.1,4.2,1.4c1.9-0.9,4-1.1,5.8-1.1c4.3,0.2,7.2-1.7,10.6-4c3-2,7.8-0.9,11-3.6c0.5-0.4,1.1-0.7,1.5-1.2
			C99.1,249,99.2,248.4,99.3,248.1z M20.1,211.9c-3.4-0.3-5-0.3-2.6,2.8c1,1.2-1.9,2.3-0.4,3.9c2.2,2.5,9,3.3,11.5,1.1
			c1.4-1.3,1.9-3.4,4-4.2c1.1-0.4,0.5-1.8-0.4-2.4c-1.4-0.8-2.7-1.5-4.6-1.2C24.9,212.2,22.1,210.3,20.1,211.9z M152.2,255.7
			c-1.1,2-0.4,2.9,1.9,2.8c1.1,0,1.9,0.3,2.2,1.5c0.5,1.9,1.8,1.1,3.2,1.1c3.4-0.2,4.5-3.4,7-4.7c0.9-0.5,1.8-1.1,1.5-2.2
			c-0.3-1-1.3-1.9-2.3-1.6c-3.5,1.3-6.8-4-10.4-0.3c-0.1,0.1-1.1-0.5-1.6-0.8c-0.6-0.4-1.2-0.9-1.8-0.5c-0.8,0.5-0.7,1.4-0.3,2.3
			C152,253.9,152.4,254.6,152.2,255.7z"/>
		<path class="st13" d="M258.5,345.5c1.3,1,0.8,2.4,0.8,3.7c0,5,0,10,0,15c0,3.4-0.7,6.9,1.9,9.9c0.4,0.4,0.3,1.3,0.4,1.9
			c0.5,7.2,3.1,14.3,0.9,21.6c-0.1,0.5-0.2,1-0.1,1.5c0.7,6.7-1.1,12.5-4.7,18.3c-1.5,2.5-3.2,4.6-5.3,6.4c-2.8,2.5-6.7,3.4-9.4,6.3
			c-0.9,1-2.5,0.4-3.9,0.4c5.8-6.1,10.8-12.7,14-20.6c2.2-5.3,3.7-10.8,3.9-16.7C257.8,377.3,258.8,361.4,258.5,345.5z"/>
		<path class="st14" d="M196.3,315.5c3.5-1.9,6.7-5.1,11-1.3c1,0.9,2.1-0.5,3.3-0.6c0,1.3,0.7,1.7,1.8,1.8
			c8.3,1.1,16.6,2.3,24.9,3.4c1.7,1.7,4,1.1,6,1.7c8.6,2.7,15.3,7.8,21.1,14.4c-0.3,1.3-1,1.8-2,0.8c-1.4-1.3-2.7-2.8-4-4.3
			c-0.8-0.8-1.4-1.9-2.4-2.4c-1.4-0.8-3.2-2.2-4.5-1.3c-1.4,1,1.6,2.1,0.9,3.7c-6.4-7.8-15.6-9.5-24.8-10.5
			c-5.6-0.6-11.2-0.7-16.8-1.7C205.9,318.3,200.8,317.9,196.3,315.5z"/>
		<path class="st1" d="M489.4,116.4c-1,2.1-3,2.1-4.7,1.7c-4.7-1.2-5.6,3.1-8,5.2c-0.9,0.8,0.3,1.3,1.1,1.5c3.2,0.8,5.9,2.8,8.6,4.5
			c1.7,1.1,3.1,2.5,2.5,4.9c-0.7,2.6-2.4,3.9-4.8,4.3c-1.8,0.3-3.6,0.2-5.4,0.3c-4.9-2.4-10-2.9-15.3-1.8c-1.1,0.2-2-0.2-2.5-1
			c-0.6-1-1.1-2-2.4-2.3c-2.2-1.9-3.6-0.2-4.9,1.3c-2.3,2.6-5.2,3-7.7,0.9c-3.2-2.6-3-0.2-3.4,1.8c-5.2-1.7-10.2-3.8-15.9-3
			c-2.8,0.4-5.3,0.6-6.2,3.9c-0.3,1.3-1.2,1.9-2.6,1.9c-3.2-2.5-6.4-2.1-7.3,1.4c-0.9,3.4-2.9,4.3-6,4c-3.3-0.8-4.4,1.5-5.5,3.8
			c-1.3,2.7-2.7,4.8-6.4,5.2c-2,0.2-4.2,0.3-6.3,0.8c-4.1,1-8.1,1.8-11.8-1.1c1.1-3.2,1.5-7,6.2-7.2c0.7,0,1.5-0.8,1.9-1.5
			c1.6-2.3,3.5-3.8,6.5-3.3c1.4,0.2,2.5-0.6,3.5-1.6c0.7-0.7,1.5-1.4,2.6-1.4c4.4,0.2,8-2.7,12.3-3.3c1.9-0.2,4.3-2,3.7-4.6
			c-0.4-2-2.7-2.1-4.6-2.2c-0.5,0-1,0-1.5,0c-1.8,0-3.7,0.2-4.7-1.9c-0.5-1.1-1.6-1.1-2.6-1.1c-2.3,0-3.2-1.1-3.4-3.3
			c-0.2-2.2-1.8-3.8-3.7-4.3c-2-0.5-3.1,1.4-4.2,3c-0.4,0.6-0.9,1.1-1.1,1.7c-0.6,3.4-3.5,3.2-5.9,3.8c-1.5,0.3-2.2-0.2-1.6-1.9
			c1.1-3-1.3-3.4-3.2-3.8c-3.1-0.7-5.8,1.1-7.5,3.2c-2.4,3-5.1,4.6-8.8,5.3c-2.3,0.4-5.7,2.2-6.8,1.6c-4.5-2.3-10,0.8-14.1-2.9
			c-0.4-0.4-1.6-0.4-1.8,0.2c-1.7,3.3-4.8,2.1-7.4,2.8c-2,0.5-5.6,1-3,4.8c0.5,0.7,0,0.9-0.4,0.9c-5.3,0.1-6.5,6-10.7,7.7
			c-1.1,0.5-2.3,1.7-1.7,3.3c0.6,1.7,2.3,1.1,3.5,1c2.8-0.3,5.8-1.9,8.2-1.2c4.7,1.4,7.9-0.6,11.1-3.3c0.9-0.7,1.7-1.8,3-1.1
			c1.4,0.7,0.8,2,0.8,3.1c0.3,4.1,1.7,5.3,5.7,4.4c1.7-0.4,3.3-1.4,5-2.2c1.2-0.5,2.7-1.8,3.6-1.5c3.8,1.5,7.1,0,10.5-1.1
			c1.3-0.4,3.5-0.4,3.1,1.9c-0.5,3.2,1.7,4.8,3.1,7c-2.5,3-4.3,6.7-7.5,9.2c-0.6,0.5-0.4,1.2-0.2,1.9c-0.1,0.3-0.2,0.6-0.3,1
			c-0.5,0.1-0.9,0.4-1,0.9c-2.3-0.2-4.3,0.5-5.9,2.2c-2.3,1-4-0.4-5.9-1.4c-4-2.2-8.1-3-11.9,0.5c-0.7,0.6-1.5,1-2.3,0.6
			c-1.1-0.5-0.6-1.3-0.3-2.1c0.9-2.4-1.1-3.4-2.5-3.3c-5.4,0.2-10.1-1.8-14.9-3.6c-3.2-1.2-7.1,0.3-9.9-2.5
			c-0.7-0.7-1.9-0.1-2.6,0.7c-2.9,3.2-6.7,2.7-10.4,2.5c-1.3,0-2.7-0.8-3.9-0.4c-3.1,1.1-6.1,0.4-9.2,0c-1.3-0.2-3.2-0.9-4,1
			c-1,2.6-2.6,1.7-4.5,1.4c-4.1-0.7-8.2-1-12.3-0.5c-3.2,0.5-5.3,3.3-8.5,3.9c-2.5,0.2-4.9,0-7.3-0.7c-1.5-0.4-3-0.9-4.8-0.8
			c-4,0.4-7.7,3.2-12.1,1.7c-1.6-0.5-2.7,1-2.9,2.7c-0.5,0.4-1,0.8-1.6,1.2c-4.9,3.2-10.2,2.8-13.2-1c-0.7-1-1.5-1.9-2.2-2.9
			c2.9-1.4,5.9-2.8,9.2-3.1c2.7-0.2,5.2-0.8,7.2-2.8c1.3-1.3,2.9-2.9,2.3-4.6c-0.7-2-3-2.7-5-2.5c-5.1,0.5-9.7-1.2-14.5-2.8
			c-3.1-1-4.2-1.2-0.9-3.6c1.5-1.1,3-3.3,2.4-5.2c-0.7-2.3-3.2-3.2-5.6-3.5c-0.8-0.1-1.7,0-2.5,0c-2.3-0.1-5.5,1.2-4.8-3.4
			c0.1-0.9-1.3-1.4-2.2-1.8c-1.6-0.8-2.9-1.5-1.7-3.7c0.4-0.8,0.4-2.4-0.6-2.6c-3.2-0.5-7.2-2.2-9.4-0.4c-2.6,2.1-6.7,3.1-7.7,7.1
			c-2.3,0.1-4.8-0.1-6.8-1.2c-2.4-1.3-4.4-0.6-5.6,1.2c-1.7,2.5-4.6,3.1-6.8,4.9c-2.4,2.1-5.6,0.9-7.5-2.1c-2.4-3.8-4.4-4.7-8.6-3.6
			c-1.3,0.3-2.5,0.2-3.7,0.3c-3.4,0.1-5.8-2.2-8.8-2.7c0.3-3-2.2-6.3,1-9.1c0.8-0.7-0.8-1.8-1.5-2c-2.6-1-3.2-2.7-2.9-5.4
			c0.2-1.9-0.2-4-2-5.4c6.2-4,9.1-3.8,14.1,0.9c2.6,0.1,3.9,3.2,6.7,2.7c3.3-0.6,6.5-1.3,8.5-4.4c1-1.6,1.6-2.2,3.8-1
			c5,2.8,9.6,1.4,13.3-2.9c0.5-0.6,1.2-1.2,1.7-1.8c2.8-2.7,5.7-2.6,8,0.7c1.8,2.7,4,3.3,6.9,2.3c2.3-0.8,4.6-1.8,7-2.6
			c0.7-0.2,1.9-0.9,1.9,0.3c0,2.3,4,4.3,0.6,6.9c-0.8,0.6-0.7,2,0.1,2.7c1.6,1.6,1.3,3.1,0.6,5c-0.7,1.9,0.3,3.7,1.5,5
			c1.5,1.7,3.7,2.1,5.9,2.1c1.2,0,3-0.5,3.3,1.4c0.7,4.7,3.7,5.9,7.9,5.6c1.8-0.1,2.2,0.7,2,2.5c-0.7,4.9,0.8,7.4,5.3,9
			c4.1,1.5,7.1,0.3,9.7-3.7c1.3-2,2-4.5,5.3-4c1.1,0.2,1.7-1.4,2.3-2.4c0.7-1.1,0.8-2.8,2.3-3.1c3.2-0.8,4.7-3.3,6.7-5.6
			c1.5-1.8,3.2-3.3,6.3-1.4c2.3,1.5,5.3,1.7,8.5,1.1c4.3-0.8,9-0.5,12.9,2.8c3.5,2.9,10.3,2.3,13.8-1c0.7-0.7,1.1-2,2.1-1.9
			c5.4,0.3,9.2-5.6,15.1-3.5c1,0.4,2.7-0.3,4.2,0.1c1.6,0.4,3.8,0.9,4.7-0.6c1.6-2.6,3.8-2.3,6.1-2.2c2.9,0.1,5.5-0.5,6-3.8
			c0.4-2.5,3.8-1.7,4.4-4.3c0.2-0.8,2.2,1.3,3.6,1.6c0.6,0.1,1.3,0.4,1.9,0.6c3.1,0.7,5.3,2.1,6.2,5.6c0.8,3.2,4.3,5.3,6.3,4.6
			c3.2-1.1,5.5,0.4,8.1,0.9c4.7,0.8,6,0.3,7.7-4.3c0.8-2.1,2.2-4.2,1.5-6.6c-0.2-0.5-0.1-1.2,0.3-1.3c3.9-1.6,3.3-4.9,3.1-8.1
			c-0.1-2.3,0.9-2.8,3-2.8c1.8,0,3.2,0.5,4.4,1.9c0.8,0.9,1.6,2.3,2.7,2c3.9-1.1,6.3,1.3,9.1,3.2c1.8,1.2,3.7,2,5,3.9
			c1.8,2.8,4.5,4,8,4.1c3.7,0,7.1-1.5,10.9-1.1c3.8,0.3,7.1-1.1,10.2-3.4c1.5-1.2,3-3.5,5.4-1.3c1.6,1.5,4.1-0.1,5.7,2.3
			c1.4,2.2,5.2,2.3,5.8,5.7c0.1,0.3,1.1,0.7,1.7,0.7c3.3-0.1,6.7,0.8,9.8-0.8c1.6-0.8,2.7-0.8,4.3,0.5c2.3,2,5.2,1.7,8,0.4
			c2-1,2.7-2.9,3.3-4.8c0.9-2.5,4.5,0,5.2-2.9c0.7-3,1.9-3.7,4.6-1.6c1.4,1.1,4-0.6,5.4,1.7C483.3,113.9,486.2,115.4,489.4,116.4z
			 M283.3,156.5c1.1-0.1,3.4,0.7,4.5-1.1c1.4-2.4,3.2-2.9,5.8-2.9c1.4,0,2.9-0.6,4.3-1.2c2.4-1.2,4.2-4.9,3.6-7.1
			c-0.5-1.9-3.7-3.7-6.5-3.5c-3.2,0.2-6.2,1.5-8.8,3.2c-2,1.4-3.2,1.9-4.6-0.6c-1.5-2.6-4.3-3.4-7-2.4c-2.1,0.8-2.9,0-4-1.5
			c-1.9-2.5-4.4-4-7.7-3.8c-2.4,0.2-3.9,1.1-3,3.8c1,2.9,0.4,4.2-2.9,3.4c-0.6-0.2-1.3-0.1-2,0c-2,0.3-3.6,1.6-3.9,3.4
			c-0.2,1.4,1.5,2.5,3.2,2.5c2.6,0,1.5,1.6,1.1,2.6c-0.7,1.8-2.5,2.6-4.1,3.3c-2.2,0.9-4.5,1.9-4.4,4.6c0,2.1,3.3,3,6.8,1.9
			c1.4-0.4,2.9-0.2,4.2-1.3c3.6-2.9,7.6-4.9,12.4-3.1c3.3,1.2,6.6,3.7,10,0C280.6,156.1,281.8,156.5,283.3,156.5z M155.4,133.5
			c2.8-1.3,6-2.4,8.1-5c0.6-0.7-0.7-2.7,1.4-3.4c1.5-0.5,4-0.6,3.3-3.4c-0.7-2.8-2.9-2.2-4.8-2.3c-0.5,0-1-0.1-1.5,0
			c-2.1,0.3-4.3,1.5-5.3-2c-0.4-1.4-2-0.9-2.9,0.1c-1.8,2.1-3.4,4.5-6.2,1.1c-0.5-0.6-2-0.5-2.7,0.3c-0.6,0.7-0.6,1.7,0.1,2.3
			c1.8,1.7,2.6,3.2,0.2,5.1c-0.6,0.5-0.1,1.4,0.5,1.6c3.3,0.8,6.1,2.2,8.1,5C154,133.3,154.7,133.3,155.4,133.5z"/>
		<path class="st15" d="M447.9,208.5c-1.4,0-2.3,0-3.3-0.5c-4.8-2.2-9.3-4.9-14.6-5.8c-2.5-0.5-3.5-2-2.6-4.7c0.5-1.4,0.8-2,2.3-1.4
			c1.2,0.4,2.6,0.3,3.9,0.5c2.7,0.4,4.5-0.7,5.4-3.3c0.3-0.9,0.7-2,1.8-2.3c1.4-0.5,3-1.1,3.5,1.2c0.3,1.2-0.4,2.9,1.5,3.2
			c1.8,0.3,3.6,0.5,5.2-0.9c1.3-1.1,2.7-2.1,4.2-2.7c1.3-0.5,3.2-0.8,4.2,0.5c1.2,1.5,0,2.9-1.1,3.8c-3,2.4-4.5,5.4-5.1,9.3
			C452.7,208,449.9,208.3,447.9,208.5z"/>
		<path class="st16" d="M385.5,185.5c3.4,0,7-0.6,9.5,2.9c1.2,1.7,3.8,0.9,5.5,1.9c0.7,0.4,1.6,0.4,1.8,1.4c0.2,1.1-0.4,1.9-1.4,2.4
			c-2.5,1.3-5.2,1.8-8,2c-4.2,0.2-8.5-0.1-12.7,0.9c-2,0.5-3.8,1-4.8,2.9c-0.3,0.6-0.9,1-1.4,1.4c-1.7,1.4-3.8,1.9-5.3,0.2
			c-2-2.4,0.6-4.1,2-4.5c3.2-0.9,4.4-3.1,5.7-5.6c0.2-0.4,0.6-0.8,0.7-1.2c0.8-4.7,0.8-4.7,5.4-4.7
			C383.5,185.5,384.5,185.5,385.5,185.5z"/>
		<path class="st17" d="M420.3,299.3c4.7-1.3,9.2-3.1,13.5-5.2c2.5-1.2,5.7-2.6,5.3-6.5c1.4,0.4,2.8,1,4.2-0.1
			c0.8,0.1,1.6,0.1,2.4,0.2c-1.9,3.9-5.2,6.2-9,8c-3,1.3-5.9,2.8-9,3.9c-2.3,0.9-3.6,2.2-3.2,4.7l-0.2,0.2c-0.8-0.3-2.8-0.1-2.2-0.7
			C424.5,300.8,421.2,300.7,420.3,299.3z"/>
		<path class="st18" d="M268.4,396.5c0-11.5-0.1-23,0-34.4c0-3.6-0.7-7.2,1.7-10.6c0.8-1.1,0.3-3.2,0.3-4.9
			c-0.1-1.9,0.3-3.6,0.9-5.3c0.4-1.1,0.6-2.5,2-2.5c1.7,0.1,2.8,1.4,2.9,2.9c0.3,2.1,0.3,4.3,0.1,6.5c-1.3,10.9-0.5,21.5,2.8,31.9
			c0.8,2.4-0.1,4.9,0.7,7.4c2,5.5,2.6,11.4,3.9,17.1c1.1,4.9,1.4,9.7,1.6,14.5c0.1,1.5,0.2,3.3-1.4,3.9c-1.5,0.6-2.8-0.6-4-1.5
			c-2.9-2.3-4.6-5.5-5.6-9.1c-0.7-2.4-1.1-4.8-3.1-6.6c-1.4-1.3-0.9-3.1-0.9-4.7C270.4,399.3,270.6,397.3,268.4,396.5L268.4,396.5z"
			/>
		<path class="st19" d="M272.4,320.6c2.9-0.8,5.1,1.3,7.7,1.9c0.4,2.2,0.5,4.4,1.1,6.7c0.9,3.6,2.2,2.7,4.1,1.1
			c1,3.8-2.7,5.7-3.7,8.8c-0.2,0.8-2.2,0.3-2.1-0.8C280.1,331,276.2,325.9,272.4,320.6z"/>
		<path class="st20" d="M118.6,198.4c-3.3,0.3-6-1.8-9-2.6c-2.6-0.7-4.9-2.5-7.7-3.1c-2.8-0.6-2-2.8-1.8-4.3
			c0.3-1.8,2.2-1.1,3.2-0.8c3.2,1.2,5.2-0.2,7.1-2.6c2.4-3,2.5-2.9,5.1,0.3c1.4,1.8,3.2,1.2,4.9,0.6c1.9-0.7,3.7-1.5,5.5-2.2
			c1.2-0.5,2.3-0.2,3,1c0.6,1.1-0.2,2-0.9,2.5c-2.9,2.1-4.4,4.9-4.8,8.5C123,197.7,121.4,198.4,118.6,198.4z"/>
		<path class="st21" d="M63,178.5c5.4-1.5,9,3.6,13.9,4.9c1.2,0.3,0.8,1.1,0.2,1.8c-1.2,1.4-2.6,2.4-4.7,2.3c-3-0.1-6,0-9,0.1
			c-4.1,0.1-8,0.8-10.9,4.1c-0.5,0.6-1.2,1.2-1.9,1.5c-1.3,0.5-2.7,0.5-3.6-0.7c-1.1-1.4,0.7-1.9,1-2.8c0.8-2.3,4-1.9,4.8-4.6
			c0.4-1.4,2.7-2,2-4.4c-0.3-1.1,1-2.3,2.7-2.3C59.3,178.5,61,178.5,63,178.5z"/>
		<path class="st22" d="M292.8,99.6c-1.5,0-2.8-0.5-4.2-1.2c-2.7-1.4-5.3-3.4-8.7-3c-0.9,0.1-2.1-0.4-2.7-1.1
			c-2-2.1-4.5-2.5-7.1-2.9c-3.5-0.5-3.9-1.3-2.9-4.8c1.3-4.5,1.4-4.6,5.6-2.8c3,1.3,5.9,0.3,7.7-2.4c0.5-0.8,1.2-1.6,1.8-2.3
			c1.2-1.3,2.4-3.1,4.6-2.4c2.3,0.7,1.3,2.8,1.4,4.3c0.1,1.8,0.4,2,2.5,2.2c4.2,0.3,7.2-1.5,10.1-3.8c0.9-0.7,1.7-1.7,3-1.6
			c1.8,0.1,3.8-0.7,5,1.3c1.1,2-0.6,3-1.6,4.3c-0.8,1-1.4,2.3-2.7,2.8c-3.8,1.5-4.6,5.8-4.3,8.2c0.5,4.4-2.3,4.2-4.5,5.1
			C294.9,99.6,293.8,99.4,292.8,99.6z"/>
		<path class="st23" d="M221.1,83.5c-6.3,0.5-12.8-0.4-18.8,2.2c-1.7,0.7-3,2.5-4.6,3.7c-1,0.8-2.2,1.5-3.3,2.2
			c-1.5,0.9-3.2,1.6-4.4-0.2c-1.1-1.6-0.6-3.2,0.7-4.5c0.6-0.6,1.1-1.6,1.8-1.7c4.7-0.7,5.6-5.3,8.4-8c0.6-0.5,0.5-1.1,0.5-1.8
			c0-4.3,1.4-6.6,4.8-5.6c4.1,1.1,7.8-1.2,11.7,0c2.3,0.7,5.1,0.3,5.8,3.6c0.2,1,1.2,1.3,2,1.1c2.6-0.5,4.4,1.1,6.5,2.1
			c3.1,1.4,3.2,2.9,0.1,4.7C228.7,83.3,224.8,82.9,221.1,83.5z"/>
		<g>
			<path class="st24" d="M142.2,260.4c-1.2-1-2.7-1.9-4.2-2.4c-1.8-0.7-6,1.9-5.5,3.6c1.1,3.8-1.8,4.2-3.8,5
				c-2.6,1.1-5.5,2.4-8.1-0.3c-1.1-1.1-2.3-0.6-2.8,0.6c-0.6,1.1-1.7,1.5-2.4,2.5c4.5-1.6,7.9,0.4,11.4,2.9c1.9,1.4,4,2.8,6.4,3.3
				c0.2-1.6,0-3.3,0.5-4.9c1.4-4,3-7.7,7.9-8.2C143.5,262.2,142.7,260.9,142.2,260.4z"/>
			<path class="st24" d="M71,241.4c1.5-0.5,2.1-1.8,2-3.1c-0.1-1.6-1.7-2.1-3-1.9c-4,0.6-7.4-1.5-11.1-2.1c-2.4-0.4-2.4-1.3-0.4-2.5
				c1.3-0.8,2.2-2.1,1.8-3.8c-0.5-2.2-2.3-1.5-3.7-1.5c-3.8-0.2-6.9-2.9-7.4-5.6c-0.6-3.2-1.8-3.3-4.1-3.4c-1.9-0.1-3.4,0.2-4.8,1.8
				c-2.4,2.7-5.1,5-9.5,4.5c-2.1-0.3-4.5,1-6.5,2.2c-0.8,0.5-2,0.8-1.8,2.1c0.2,1.7,1.6,1.4,2.7,1.4c2.2,0,4.3-0.1,6.3,1
				c1.6,0.9,1.8,2.4,2.1,3.8c0.4,1.7-1.4,2-2.2,2.1c-3.7,0.3-4.7,4.7-8.1,5.4c-0.8,0.1-0.9,0.9-0.8,1.6c0.1,0.7,0.7,1.1,1.4,1.2
				c0.7,0,1.3,0,2,0.1c3.8,0.3,7.1-0.9,10.3-2.8c2.2-1.3,8.9-0.7,9.3,0.8c0.6,2.6,0.1,5.1-1.9,7.2c-0.6,0.7-1.7,1.4-0.6,2.4
				c0.9,0.8,1.8,0,2.7-0.4c2.2-1.2,3.7-4.1,6.1-4c5.8,0.3,10-4,15.4-4.7C68.6,242.8,69.7,241.9,71,241.4z"/>
			<path class="st24" d="M119.5,236.2c1.9-0.2,5.1-5.9,4.4-7.4c-0.6-1.6-4.2-2.6-6.6-1.9c-0.8,0.2-1.8,0.3-2.3,0.8
				c-2.3,2.1-4.3,2-6.3-0.5c-0.5-0.7-1.5-1.1-2.3-0.7c-2.1,1-3.1,0.2-4.4-1.5c-2.2-2.9-5.1-2.2-6.7,1.4c-0.6,1.4-1.6,1.8-3.1,2.1
				c-2.6,0.4-3.8,1.6-1.4,3.9c1.7,1.6,1.1,2.5-0.7,3.2c-0.6,0.3-1.2,0.6-1.8,0.9c-1,0.6-2.2,1.1-1.6,2.6c0.6,1.3,1.8,1.5,3,1.2
				c1.1-0.2,2.2-0.7,3.2-1.2c2.1-0.9,4.6-2.9,6.2-2.4c4.8,1.5,9.2-1.2,13.8-0.5C115.2,236.3,117.4,236.5,119.5,236.2z"/>
			<path class="st24" d="M98.1,246.5c-1.6-0.4-3.1-1.4-4.8-0.9c-2.6,0.7-4.7,0.3-7.3-0.7c-2.7-0.9-7.3-2.7-9.2,2.5
				c-0.5,1.4-2.3,0.9-3.6,1.1c-1.5,0.2-3.6,0.6-3.5,2.2c0.2,2.1-0.7,2.6-2.2,3.4c-1.3,0.7-2.6,1.9-1.8,3.7c0.8,1.9,2.6,2.1,4.2,1.4
				c1.9-0.9,4-1.1,5.8-1.1c4.3,0.2,7.2-1.7,10.6-4c3-2,7.8-0.9,11-3.6c0.5-0.4,1.1-0.7,1.5-1.2c0.3-0.3,0.3-0.9,0.4-1.2
				C99.2,247.2,98.8,246.7,98.1,246.5z"/>
			<path class="st24" d="M28.6,219.6c1.4-1.3,1.9-3.4,4-4.2c1.1-0.4,0.5-1.8-0.4-2.4c-1.4-0.8-2.7-1.5-4.6-1.2
				c-2.7,0.4-5.5-1.4-7.5,0.1c-3.4-0.3-5-0.3-2.6,2.8c1,1.2-1.9,2.3-0.4,3.9C19.3,221,26.1,221.8,28.6,219.6z"/>
			<path class="st24" d="M156.3,260c0.5,1.9,1.8,1.1,3.2,1.1c3.4-0.2,4.5-3.4,7-4.7c0.9-0.5,1.8-1.1,1.5-2.2c-0.3-1-1.3-1.9-2.3-1.6
				c-3.5,1.3-6.8-4-10.4-0.3c-0.1,0.1-1.1-0.5-1.6-0.8c-0.6-0.4-1.2-0.9-1.8-0.5c-0.8,0.5-0.7,1.4-0.3,2.3c0.3,0.8,0.8,1.5,0.5,2.5
				c-1.1,2-0.4,2.9,1.9,2.8C155.2,258.5,156,258.7,156.3,260z"/>
			<path class="st24" d="M392.8,259.9c1-0.3,4.1-7.2,3.9-7.9c-0.5-1.3-1.5-1.6-2.8-1.6c-2.2,0.1-4.3,0-6.5,0c-0.7,1.3-1.9,0.9-3,0.9
				c-3-2.2-6.3-3.2-10-2.9c-2.4,1.8-5.6,1.7-7.4,0.4c-2.3-1.6-6.3-0.2-7.3-4c0-0.1-0.3-0.3-0.4-0.2c-5.1,1.1-8.5-3.2-12.9-4.2
				c-3.4-1-6.7-0.3-10.2-0.1c-2.6,0.1-4.5-0.4-3.9,3.2c0.2,1.3-0.6,2.6-1.6,3.5c-2.7,2.7-2.6,3.6,0.9,4.2c3.9,0.6,5,2.7,4.8,6.2
				c-0.1,1.3,0,2.7,0,4c2.3-1.2,3.1,2.3,5,1.7c3.9-1.2,3.8,0.6,3,3.5c-0.6,2.1,0.7,3.6,2.4,4.4c2,1,3.6,0,4.7-1.6
				c0.6-0.8,1-1.7,1.4-2.6c2.2-4.9,10.6-7.9,15.6-5.7c3.8,1.7,5.1,1.2,7.7-2.2c1.5-2,3.9-4.3,6.1-3.6c2,0.6,5,0.4,6.3,3.3
				C389.3,259.8,391.3,260.4,392.8,259.9z"/>
			<path class="st24" d="M381.7,307c2.4-2-2.1-4.1,0.6-6.5c3.1-2.7,2.5-4.6-1.7-6.2c-1.9-0.8-2.7-1.7-2.1-3.6
				c-0.1-0.7-0.2-1.5-0.2-2.2c-5.5-3.1-10.9-6.6-17.7-4.6c-0.3,0.1-0.6,0.3-0.9,0.3c-0.9,0.1-1.7-0.4-1.9-1.3
				c-0.3-1.1,0.7-1.2,1.4-1.5c3.3-1.3,6.8-1,10.3-1c2.7,0,5.6,0.1,6.6-3c0.5-1.6-3.8-4.2-6.7-3.9c-4.1,0.5-8.2,1.1-12.4,0.1
				c-1.4-0.3-3,1-2.9,2.1c0.3,2.5-0.9,2.6-2.7,2.9c-1.4,0.3-2.7,1.2-4,1.9c-0.1,1.4,0.4,3.6-2.2,2.2c-1.9-1-4.3-1-5.7-2.8
				c-1.4-1.6-3.2-1.5-5-1.5c-1.5,3.4-4,1.1-6,1c-2.6-0.6-3.7-3.1-5.7-4.4c-1.1-0.8-2.3-2-2.3,0.7c0,3.4-1.9,4.4-5,4.7
				c-3.3,0.3-6.4,0.8-9.5-0.7c-1.9-1-3.7,1-5.7,0.5c-3.2-0.7-6.1-2-8.8-3.9c-3.2-0.2-6.3-0.7-9.7-0.3c-2.2,0.3-5.5,0.2-6.9-3.2
				c-0.4-0.9-2-2.5-3.6-2.1c-1.3,0.4-0.5,2-0.8,3.1c-0.6,2.1-1.9,3.4-4.3,3.4c-0.8,0-1.6-0.4-2.4-0.4c-4.8,0-5.2-0.6-3.3-5.5
				c0.2-0.6,0.6-1.7,0.4-1.8c-2.4-1.6-1.6-4-1.5-6.2c-1.3,0.8-2.7,1-4.3,1c-4.4-0.2-5.5-1.9-3.3-5.5c1-1.7,1.4-2.8-0.3-4.1
				c-0.5-0.4-1-1-0.6-1.7c0.5-0.9,1.4-0.8,2.2-0.7c2.8,0.2,5.3,1.7,7.7,3c1.2,0.6,2.4,1,3.7,1c3.9-3.3,8.8-0.5,13.1-2
				c0.5-0.2,1.7,0.3,1.8,0.6c0.7,4.1,6.2,2.8,7.1,6.5c0.6,2.4-0.5,4.5-0.9,6.8c1.3,0,2.1,0.8,3,1.5c2.1,1.4,3.7,2.3,5.3-1.1
				c0.7-1.5,3.1-4,6.4-2.3c1.8,1,3.7-1,2.9-3.3c-0.7-1.9,0.4-3.2,0.4-4.7c-1.6-1.7-4-1.1-5.9-2c-0.7-0.4-1.7-0.6-1.5-1.6
				c0.2-0.9,1.1-1.5,1.9-1.2c3.3,1.2,6.7,0.4,10.1,1c3.6,0.6,8,1.2,10.4-3.1c-0.8-0.4-1.2-1.2-1-2.1c0.6-3-1-4-3.5-4.7
				c-3.2-0.9-6.1-1.5-9.6-0.5c-2.2,0.6-4.8,2.1-7.5,0.5c-3.3-1.9-6.9-3.4-10.4-5.1c-0.6,0.3-0.8,0.9-1,1.6c-0.8,5.1-1.4,5.5-6.4,4.3
				c-1.9-0.5-3.7-1.2-5.7-0.2c-1.5,0.7-2.8-0.3-4-1.3c-1.9-1.6-4-2.6-6.8-1.7c-3.1,1-6-1.3-8.2-2.5c-1.7-0.9-3.7-2.2-5.5-3.2
				c-2.1-1.1-2-3.2-3.2-4.7c-1.8-2.3-5.2-2.3-7.3-4.4c-1.1-0.4-2.2-0.9-2,1c0.1,0.8-0.1,1.6-1,1.9c-1.3,1.6-2.5,3.3-5.2,3.2
				c-2.4-0.1-1.6,1.3-0.6,2.5c1.1,1.5,3.8,2.5,2.5,4.8c-1.2,2.2-3.6,2.6-6.1,2.6c-0.8,0-1.8,0-2.4,0.4c-5,3.9-11.7,2.5-17.1,5.3
				c-1,0.5-2.5,0.6-3.3-0.2c-1.4-1.3-1.4-3.7-0.5-4.6c3-3-2.3-5.1-0.6-7.9c0.3-0.5-0.9-0.3-1.5-0.2c-1,0.1-2,0.2-3,0.1
				c-1.7-0.1-3.7-0.4-3.9-2.3c-0.2-2,0.7-4.1,2.9-4.6c5.3-1.2,10.6-2.1,15.9-3.1c1.1-0.2,2.5,0.1,3.4-0.4c2.5-1.3,4.7-2.3,7.2,0
				c0.3,0.3,1.5-0.4,2.3-0.6c0.4-0.5,0.7-1.2,1.2-1.5c4.4-2.6,4.8-3.6,2.8-8.6c-1,4.4-4,5.2-8,5.1c-4.6-0.1-8.8-0.7-12.7-3.2
				c-2.7-1.7-6-1.4-9.1-1.8c-2.3-0.3-4.6-0.5-6.8-1c-4.7-1-4.8-0.9-8.3,2.4c-1.2,1.1-2.4,1.7-4,1.5c-0.8,1.1-1.1,2.2-0.2,3.6
				c0.6,0.9,1.3,1.9,1.2,3.1c-0.2,4.6-2,6.1-6.5,4.9c-1.1-0.3-2.2-0.6-3.3-0.6c0,2-0.7,3.1-2.9,3c-4.1-0.4-8.2,0.5-12.2,1.2
				c-2.9,0.1-4.8-1-4.9-4.2c0-1.1-0.4-2-1.2-2.6c-2.6-2.2-2.2-4.1,0.2-6.1c1.2-1,1.4-2.2-0.2-3.2c-0.1,0.5-0.1,1.2-0.4,1.3
				c-3.7,2-9.8-0.4-10.9,6.2c0,0.2-0.6,0.2-0.9,0.3c-2.4,1.2-3.6,3.7-5.9,5c-1.3,0.7-0.3,2.8,0.8,2.4c4.4-1.7,9.5,1,13.6-2.4
				c0.8-0.6,2.3-1.7,2.7,0.3c0.6,3.1,2.5,3.8,5.3,4c2,0.2,3.5,1.4,1.8,3.7c-4.5-0.6-9.1,1.9-13.7,0.1c-0.9-0.4-2.1,0-2.6,1
				c-0.6,1.3,0.7,1.6,1.5,2.1c1.4,0.9,2.8,1.8,4.1,2.7c3.5,2.6,5.6,3,8.8,0.4c2.1-1.7,3.8-1.6,5.8-0.8c3.4,1.4,6.4,0.9,8.3-2.2
				c1.9-3,4.3-1.9,5.6-0.3c2.5,3.2,5.1,2.3,8,1.2c4-1.5,4.5-1.1,4.2,3.2c0,0.5-0.4,1-0.3,1.4c0.8,2.8-1,6.4,1.4,8.5
				c2.4,2.2,6.6,2.2,7.5,6.3c0,0.2,0.6,0.3,0.9,0.3c3.8-0.4,5.2,0.9,3.7,4.7c-0.2,0.4,0.4,1.2,0.8,1.7c2.3,3.3,6.2,3.5,9.4,0.7
				c4.4-3.8,8.8-7.4,13.3-10.9c0.8-0.6,2.1-2.2,2.9-1.4c1.9,2,3.3,0.6,4.9,0c3-1.1,3.5-0.8,3.5,2.3c0,0.7-0.2,1.3-0.1,2
				c0.3,4.6-1.8,10.5,6.1,11c0.3,0,0.7,0.3,0.8,0.5c0.6,3.4,3.5,4.6,5.8,6.4c1.5,1.2,1.2,2.4-0.6,2.8c-1.6,0.3-3.5,0.6-4.8-0.5
				c-1.6-1.3-3.3-1.5-5.1-1.4c-2.3,0.1-3.9-0.5-4-3.2c0-1.8-1.1-2.7-2.9-2.8c-1,0-2.4,0.3-2.7-0.8c-0.9-3.1-3.5-2.5-5.3-2.1
				c-3.6,0.8-7.6,1.1-10.6,3.8c-0.9,0.9-2,1-3.2,1.1c-2.3,0-4.6-0.4-6.9,0.7c-0.8,0.4-7.7-3.2-8-4.1c-0.2-0.4-0.1-0.9,0-1.4
				c0.5-5.3,0.1-5.8-5.3-6.2c-1.5-0.1-3,0.1-3.1-2.2c-0.2-3.8-2.6-5.9-6.1-6.8c-3.8-1-5.3,2-6.8,4.4c-2,3.3-4.6,5-8.6,4.6
				c-1.8-0.2-3.7-0.1-5.5,0c-1.9,0-3.2,1.2-3.8,2.8c-0.6,1.7,0.5,2.8,2.2,3.2c0.9,0.2,1.5,0.7,1.5,1.7c0,3.6,3.1,3.7,5.3,4.1
				c3.5,0.6,7,2,10.7,0.3c1.1-0.5,2.6-0.2,4-0.1c1.7,0.1,3.1,0.7,3,2.6c-0.1,1.9-1.5,2.5-3.2,2.3c-3.7-0.5-7.2,1.1-10.8,1.4
				c-2.4,0.2-5.6,0.9-5.7,4.4c-0.1,2.2,3.5,4.4,6.8,3c4.1-1.7,6.2,1.3,9.2,2.1c0.8,0.2,2.3,1.3,0.3,2.4c-1,0.5-1.8,1.5-2.4,2.5
				c-1.5,2.4-1.3,4.6,0.6,6.8c1.9,2.1,3.7,1.7,5.7,0.5c0.9-0.6,1.5-0.9,2.7-0.4c4,1.5,7,0.3,10-2.5c3-2.9,5.4-6.9,9.7-7.8
				c3.1-0.7,4.9-1.8,4.8-5c0-0.8,0.1-1.4,1-1.2c1.7,0.5,1.6,3,3.8,3.4c1,0.2,0.4,1.7,0,2.6c-0.8,2-0.5,4.5,0.9,5.3
				c1.8,1,4.2,2.1,6.5,0.7c2.8-1.7,6.2-2.2,8.6-4.8c1.9-2,7.2-1.9,7.9,0.2c0.9,2.7,2.5,2.6,4.6,2.6c1.5,0,3.2-0.4,2.6,2.3
				c-0.3,1.1,1.1,1.5,2,1.9c2.9,1.5,5.5,0.7,7.9-1.2c2.6-2,4.2-5.1,6.5-7.2c4.6-4.3,9.8-7.9,14.8-11.6c1.2-0.9,2.6-0.8,4.2-0.5
				c3.3,0.6,7.1,1.5,9.2-2.7c3.4,0,5.8,0.6,5.2,5.2c-0.3,2.5,2.1,4.3,4.8,4.9c0.1,0.3,0.1,0.7,0.2,1c0.2,1.4,3,2.4,0.9,4.2
				c-1.7,1.5-3.5,0.4-5.1-0.4c-0.6-0.3-1.1-0.8-1.6-1.1c-3-1.5-6.1-2.5-9.5-1.2c-1.7,0.7-3.6,0.8-3.8,3.3c-0.2,2.3,0.2,4.3,2.3,5.7
				c1.1,0.7,2.1,1.6,3.3,2.2c1.5,0.8,0.9,1.4,0.1,2.2c-1.8,1.7-3.7,1.1-5.5,0.1c-3.2-1.6-6.5-1.5-9.7-0.5c-2.7,0.8-1.7,4-2.7,5.9
				c-0.1,0.3-0.5,0.4-0.7,0.7c-3,2.3-6.7,3-9.7,1.3c-3.3-1.9-4.8-1.1-6.2,1.7c3-0.3,5.9-0.3,8.2,2.1c1.6,1.6,3.2,3.2,4.8,4.8
				c3-0.6,6.3,1.9,9.1-0.9c2.9-0.8,5.1,1.3,7.7,1.9c0.2-1.3,1-1.9,2.3-1.9c1.3,0,2.1-0.6,2.2-2c0.5-0.3,1.1-0.5,1.6-0.8
				c0.7,1,1.6,1.4,2.8,1.6c4.1,0.6,4.1,0.6,3.7,5.3c2.6-2.5,6.4-1.2,9.1-2.8c2.9-1.7,5.5-1.5,8.5-0.3c2,0.8,4.4,1.8,6.1-0.8
				c1.4-1.2,3.1-1.4,4.8-1.5c0-1.4,0-2.6,1.9-2.8c5.7-0.7,11.4-1.3,17-2.8c2.9-0.8,3.1,2.9,5.2,3.7c-0.3,0.4-0.6,0.7-1,1.1
				c3.3,0.3,6.5-1.1,9.8-0.7c5.4,0.7,10.5-1.6,15.7-2.3c-2,0-4,0-6,0c-2.7,0-4.4-1.2-4.7-4c3.6-0.2,8,2.1,10.3-3
				c0.6-1.3,2-1.2,3.1-0.7c4.2,1.9,8.3,0.7,12.4,0.1C384,307.4,381.6,307.1,381.7,307z M309.1,285.8c4.2-0.1,8.8-2.1,12.3,2.1
				c0.7,0.9,1.7,1.5,2.9,1.6c0.4,1.8,3.8,2.4,2.3,4.9c-1.3,2-3.6,1-5.6,1.1c-4.2,0.2-6.2-3.4-9.3-5.2c-1.3-0.7-2-2.2-3.5-2.8
				C308.5,286.9,308.5,285.8,309.1,285.8z M356.4,307.6c-0.8,0-1.7-0.1-2.5-0.1c-4.7,0-4.7,0-3,4.2c0.5,1.1,0.9,2.3-0.1,3.2
				c-1,0.9-2.2,0.6-3.2,0.1c-0.3-0.1-0.5-0.4-0.8-0.6c-3.1-1.7-6.1-3.3-10-2c-2.1,0.7-4.7,0.6-6.9,0c-3.4-1-5.9,0.5-8.5,2.1
				c-2-0.1-4,0.4-5.9-0.4c-0.9-0.4-1.8-0.4-1.9,0.7c-0.6,3.5-2.8,2.6-4.9,1.8c-2.6-1.1-5.6-0.9-7.6,0.4c-4.3,2.7-8.2,1.5-12.3,0.3
				c-0.8-0.2-1.6-0.4-2.4-0.6c-1.2-0.9-3.6-1.2-2.7-3.4c0.7-1.8,2.3-2.8,4.4-2.7c1.3,0.1,2.7,0,4,0c0.8,0,2.2,0.1,2.4-0.2
				c1.8-4,5.3-3.6,8.8-3.9c2.4-0.2,2.9-2,1.5-4c-0.8-1.1-1.7-2.1-0.8-3.5c0.8-1.3,2.3-1.5,3.5-1.2c2.3,0.6,4.8,0.7,7,2.3
				c1.4,1,3.1,1.5,4-0.8c0.3-0.9,1-1.7,1.7-1c2.6,2.3,6.8,1.5,8.6,5c0.3,0.5,0.9,1.2,1.5,1.3c5.1,0.9,9.9,0.2,14.2-2.7
				c3.3-0.6,6.4,0.9,9.6,1.2C356.5,302.9,358.1,304.7,356.4,307.6z M377,299.4c-1.6,1.4-1.5,4.5-5.1,4.2c-5.6-0.4-10.8-1.4-15-5.4
				c-1.1-1-2.3-1.8-3.5-2.8c0.1-3.3,2.7-2.2,3.9-1.8c2.6,0.8,2.8,0,3.1-2.4c0.5-4.1,2.7-5.2,6.8-3.8c-0.6,2.4-1,4.6,2.9,4
				c1.6-0.3,2.9,0.6,3.2,2.3c0.2,0.9,0.7,1.4,1.4,1.8C376.2,296.5,378.3,298.3,377,299.4z"/>
			<path class="st24" d="M592.5,213.3c-2.1,0.5-3.5-1.4-4.6-2.3c-4.1-3.7-8.5-2.5-13.1-1.8c-4.9,0.7-9.9,0.8-13.5-3.6
				c-2.1-0.3-4.3,0.4-6.3-0.7c-2.5-1.4-5.9-1.9-4-6.3c0.8-1.8-1.1-1.9-2.5-2c-2.8-0.1-5.6,0.4-8.3-0.9c-1.1-0.5-2.8,0-2.9-1.9
				c-0.1-1.7,0.4-3.2,2.1-4.1c0.4-0.2,0.9-0.3,1.4-0.4c4.9-1.9,5.8-6.2,6.4-10.6c-2.5,0-4.8,1.1-7.2,1.6c-1.5,0.3-3.2,0.8-4.4,0.2
				c-3.3-1.7-6.3-0.7-9.4,0.1c-5.3,1.7-10.7,3-16.3,1.4c-3.2-0.9-3.5-2-1.1-4.3c1.4-1.4,4.4-2.7-0.4-3.1c-0.2,0-0.4-0.1-0.5-0.2
				c-1.6-5.4-7.6-3.1-10.6-6c-1.2-1.2-2.8-0.6-4.3-0.7c-3.8-0.2-7.7,0.5-11.4-0.5c-1.1-0.3-3-0.1-3.1-1.9c-0.2-2,1.7-1.7,2.8-2.1
				c2.1-0.8,4.3-1.5,6.7-1.6c1.7-0.1,5,0.2,2.6-3.5c-0.7-1,0.4-1.9,1.4-2.2c2-0.7,4.1-1.7,6.3-1.2c2.8,0.6,4.7-1.5,6.6-2.6
				c1.9-1.2-0.3-3.9,0.5-5.9c0.2-0.4-1.3-0.5-1.7-0.1c-2.1,2.6-5.1,2.8-8.1,3c-0.3,0-0.7,0.2-0.9,0.4c-6.3,5.4-12.6,2.2-18.9,0.2
				c-0.5-0.1-1.1-0.3-1.3-0.6c-3.3-4.8-8-4-12.8-3.4c-0.8,0.1-1.7,0-2.5,0c-2.9,0.7-5.4,4.2-9,1.4c-0.5-0.4-1.3,0.3-1.6,0.8
				c-2.9,4.2-7.1,4.3-11.4,3.8c-0.7,0-1.3,0-2,0c-1,0.4-2.9-0.5-2.2,2c0.8,3.1-1,4.2-3.9,4.1c-1,0-2,0.2-3,0
				c-4.4-0.7-8.1,1.2-11.9,3c-1.3,1.9-4.7,0-5.7,3.6c-0.7,2.4-1.5,3.3,1.4,3.9c0.5,0.1,0.9,0.9,1.3,1.4c3.9,0,4.2,2.8,3.8,5.5
				c-0.3,1.9-0.7,2.9,1.6,4.1c2.8,1.4,2,3.8-1.5,5.4c-1.8,1.3-3.9,1.1-6,1.1c-0.1,0.1-0.2,0.3-0.3,0.4c-4.1,1-11.5-0.7-15-3.7
				c-1-0.9-2.2-0.7-3.3-0.7c-3.3,0-6.6-0.2-9.9,0c-3.1,0.1-5.9-0.5-8.5-2c-0.8,0.1-1.7,0.2-1.9,1.2c-0.7,2.7-2.9,3.8-5.1,4.8
				c-2.4,1.2-2.6,2.2-0.5,3.6c0.7,0.5,1.4,0.9,2.2,1.1c1.8,0.3,2.7,1.3,2.2,3.1c-0.5,1.6-1.5,3.4-3.5,2.7c-2.1-0.8-3.5,0.1-5.1,0.8
				c-3.7,1.6-7.6,2.2-11.5,2.6c-1.6,0.2-3,0.3-4.4,1.6c-2.3,2.2-2.5,1.9,0.7,3.5c3.4,0.8,6.8,1.2,7.2,5.9c0.2,2.1,2.2,2.4,3.9,1.9
				c3-1,5.8,0.2,8.7,0.4c4.3,0.3,4.7,1.3,4.4,6.7c7.3,0.1,9.8,2.5,10,9.7c0,0.8,0.1,1.6,0.2,2.5c2.7,0.4,4.8,2.7,7.8,2.2
				c0.8-0.1,0.4,1.2,0.3,2.1c-0.4,3.6,1.1,5.6,4.5,6.5c3.3,0.9,5.7,0.1,7-3c0.8-1.8,1.8-2.2,3.4-3c3.5-1.7,6.1-4.8,8.6-7.7
				c1.9-2.3,3.5-3.1,6.3-1.6c2,1.1,4.1,1.4,6.6,0.4c3-1.2,6.3,0.4,8.7,2.1c3.8,2.7,7,1.9,10.5-0.3c5.3-3.4,11-5.1,17.3-4.1
				c0.6,0.1,1.7,0.4,1.9,0.2c2.3-3.6,7.7-0.5,9.3-3.5c2.7-5.1,6.1-4.6,10.4-3.3c1.3,0.4,1.8,0.8,2.3,2.1c1.2,3.4,2.7,6.2,7.4,5.2
				c1.7-0.4,3.8,0.7,5.8,0.9c3,0.2,4.5-1.2,4.7-3.9c0.2-2.6-0.1-5.1,2.6-7c1.3-0.9,0.4-3.2,0.4-4.8c0-1.7,0.5-2.6,2.4-1.7
				c1.3,0.6,3,0.1,3.9,1.7c0.3,0.5,1.1,1,1.6,1c5.6-0.7,8.9,3.2,12.2,6.5c2.4,2.4,5.1,2.4,7.8,2c2.6-0.4,5.2-1,7.9-0.9
				c1.7,0,3.5-0.6,4.5-1.9c2.2-2.9,5-2.1,7-0.6c2,1.5,4.6,2.1,6,4.7c1.2,2.2,3.9,2.3,6.3,1.5c2.8-0.9,5.3-2.2,8.3,0.1
				c1.5,1.1,3.8,0.3,5.3-1.5c1.3-1.4,2.1-3.3,4.4-3.7c1.6-0.3,0.9-3.6,2.6-3.1c2.4,0.8,5.3,1.1,7.1,3.4c1.2,1.5,2.7,2.5,4.7,2.2
				l0.5,0.1l0.5-0.1c0-0.7,0-1.3,0-2C596.2,217,595.2,214.2,592.5,213.3z M373.9,201.4c-1.7,1.4-3.8,1.9-5.3,0.2
				c-2-2.4,0.6-4.1,2-4.5c3.2-0.9,4.4-3.1,5.7-5.6c0.2-0.4,0.6-0.8,0.7-1.2c0.8-4.7,0.8-4.7,5.4-4.7c1,0,2,0,3,0
				c3.4,0,7-0.6,9.5,2.9c1.2,1.7,3.8,0.9,5.5,1.9c0.7,0.4,1.6,0.4,1.8,1.4c0.2,1.1-0.4,1.9-1.4,2.4c-2.5,1.3-5.2,1.8-8,2
				c-4.2,0.2-8.5-0.1-12.7,0.9c-2,0.5-3.8,1-4.8,2.9C375,200.5,374.4,201,373.9,201.4z M445.6,215.6c-2.5,0.9-4.9,1.9-7.3,2.8
				c-1.9,0.3-3.6-0.1-5.5,1.4c-2.2,1.7-5.5,0.9-8.2,0.5c-4.4-0.7-8.7-2-13-3.2c-0.8-0.2-1.5-0.5-2.3,0.1c-2.9,1.9-5.9,2.4-9.3,0.8
				c-2.5-1.2-3.9-0.1-3.6,2.6c0.2,2.6-1.6,4.3-2.9,6.1c-0.7,1-2,1.8-3.5,1.1c-1.5-0.6-2.6-1.4-2.6-3.3c0-1.5-0.3-3.1,0.8-4.3
				c1.9-2.2-2-4.1-0.4-6.3c-0.9-0.6-2-0.6-2.9-0.1c-2.5,1.3-4.9,0.5-7.2-0.3c-2.1-0.8-2.4-2.2-0.7-3.6c1.2-1,2.6-1.4,4.2-1.4
				c1.1,0,2.5,0.4,3-1.1c0.4-1.2,0.1-2.2-1-3c-2.7-2-1.5-3.2,1-3.9c0.3-0.1,0.6-0.3,0.9-0.3c7.6,0.8,14.7-4.1,22.4-2.6
				c1.3,0.3,2.1,0.6,2.7,1.7c1.9,3.7,4.4,4.7,8.5,4.3c3.4-0.3,7.1-1,9.3,2.9c0.9,1.6,3.4,0.2,4.4,1.9c3.6,0.1,7.2-0.4,10.7,1.1
				c1,0.5,2.2,0.8,3.1,1.4c0.9,0.6,2.1,1.3,1.9,2.6C448,215,446.7,215.2,445.6,215.6z M458.2,196c-3,2.4-4.5,5.4-5.1,9.3
				c-0.4,2.6-3.3,2.9-5.3,3.1c-1.4,0-2.3,0-3.3-0.5c-4.8-2.2-9.3-4.9-14.6-5.8c-2.5-0.5-3.5-2-2.6-4.7c0.5-1.4,0.8-2,2.3-1.4
				c1.2,0.4,2.6,0.3,3.9,0.5c2.7,0.4,4.5-0.7,5.4-3.3c0.3-0.9,0.7-2,1.8-2.3c1.4-0.5,3-1.1,3.5,1.2c0.3,1.2-0.4,2.9,1.5,3.2
				c1.8,0.3,3.6,0.5,5.2-0.9c1.3-1.1,2.7-2.1,4.2-2.7c1.3-0.5,3.2-0.8,4.2,0.5C460.6,193.7,459.3,195.2,458.2,196z M524.3,202.7
				c-2.8,0.7-5.7,2.4-7.8-1.2c-3.7-0.4-7.3,0.2-11.1-1.6c-2.7-1.3-6.5,0.3-9.6,0.9c-3,0.5-6,2.6-6.8,6.5c-0.5,2.4-2.7,3.6-5,3.1
				c-3.3-0.6-6.8-1.3-9.7-2.9c-1.7-0.9-3-1.3-4.9-1.1c-4.4,0.5-7.8-4.7-5-8.1c2.7-3.4,2.1-7.7,4.5-11c0.6-0.8,0.7-1.9-0.4-2.6
				c-3.3-2.4-6.6-5.2-11.2-4c-0.8,0.2-1.8,0.8-2.3,0.5c-6.7-3.6-13.2-0.6-19.8,0.2c-1,0.1-2,0.1-3,0.1c-5.2-0.2-7.3-3.1-5.2-7.9
				c0.9-1.9,0.8-2.3-1.1-3.2c-3-1.4-3-2.3-0.6-4.5c2-1.8,4.6-3,6.8-2.3c3.9,1.3,5.3-1.6,7.2-3.4c1.8-1.8,2.9-4.6,6.3-2.9
				c0.2,0.1,0.8,0,0.9-0.2c2.1-2.8,4.1-4.4,7.9-2.3c2.5,1.5,6-1.8,8.8,1.3c0.7,0.8,2.8,0.8,4.2,1.1c3.9,0.8,4.8,2.6,2.5,6.1
				c-1.6,2.6-0.6,4.5,2.4,5c2.9,0.5,5.9,0.6,8.6,1.9c1.9,0.9,4,1.4,4.4,4.2c0.3,1.9,2.4,2.7,3.8,2.6c3.3-0.1,5.3,1.7,7.1,3.9
				c1.6,2,3.8,3,5.8,4.4c4.4,0.1,9-0.7,11.5,4.4c0.4,0.9,1.8,0.6,2.8,0.6c2.8-0.1,5.5,0.8,8.1,1.8c2.6,0.9,3.9,2.8,3.7,5.7
				C528.3,200.7,526.8,202,524.3,202.7z"/>
			<path class="st24" d="M588.9,263.9c1.8-2-0.6-2.9-0.9-4.4c-0.1-0.3-0.8-0.4-1.2-0.7c-0.6-0.4-1-0.9-1.6-1.2
				c-3.8-1.4-3.9-7.7-9.3-6.9c-0.7-4-3.9-2.9-6.4-2.8c-2.1,0.1-4.3-0.3-6.4,0.9c-1.9,1.1-2.9-0.6-3.5-1.8c-0.9-1.8,0.9-2.1,2.1-2.5
				c4.1-1.5,8.2-2.4,12.6-2c2.9,0.3,4.8-0.9,5.1-4c-3-2-5.9-4.8-9.7-1.3c-3.2-1.2-6.8,1.4-9.6-0.1c-3.4-1.8-6.7-1.6-10.1-1.6
				c-5,0-5.6,1-4,5.6c0.4,1.3,0.7,2.8-0.2,3.8c-1,1-2.3-0.1-3.2-0.5c-2.1-1-4.2-1.8-6.4-2.5c-3-1-5.1,0.8-7.4,1.9
				c-1.9,1-1.3,2.6-0.8,4.3c0.4,1.3-0.8,1.9-2.1,2.3c-4.5,1.3-4.6,2-1.6,5.5c1,1.1,1.8,2.6,3,3.2c1.6,0.8,1.8,1.1,0.3,2.1
				c-2.4,1.7-8.9,1.7-11.4-0.6c-4.3-3.8-9.1-5.6-14.8-5.9c-1.9-0.1-3.3,0.4-4.4,1.6c-0.9,0.9-0.6,1.9,0.3,3c1.7,2.3,1.1,3.5-1.7,3.8
				c-2,0.2-4-0.6-5.5-1.8c-3.9-3-7.8-2.2-11.7-0.5c-3.4,1.5-4.1,4.2-1.7,7.2c1.6,2,3.6,3.4,5.9,4.4c1.2,0.5,1.9,1,0.2,2.3
				c-2.2,1.7-4.1,1.8-6.4,0.6c-3-1.6-6.2-1.5-9.2-0.6c-2.7,0.8-4.1,3.2-3.9,6.3c0,0.4-0.4,0.8-0.8,1.2c-2.6,2.5-9.1,3.1-12.6,1.5
				c-0.7-0.3-2.1-1.6-2.3,0c-0.4,2.6-3,2.3-4.2,3.7c0.8,0.1,1.6,0.1,2.4,0.2c2.9-0.9,5.8-2,8.2,1.1c0.7,0.9,2.2,0.5,3.3,0.5
				c1.7-0.1,3.2,0.3,4.6,1.4c2.1,1.5,4,2.3,6.7,0.5c1.7-1.1,4.8-1.7,6.5,1.2c2.1,0.6,4.5-0.8,6.4,1c1.7-0.4,2.9-1.4,4-2.8
				c1.7-0.5,3.1-0.9,5.1-0.4c2.4,0.7,5.1,1.9,7.7,1.1c4-1.1,7.8-1.1,11.6,0.4c1.7,0.7,3.6,0.5,5.4,0.5c1.6,0,3.6-1,3.4-2.3
				c-0.9-5.7,2.8-4.4,5.9-4.4c1.3,0,2.5-0.7,3.8-1.1c-0.2-0.6-0.7-1.3-0.1-1.8c0.3-0.2,1-0.1,1.4-0.1c1.6-0.1,3.3,0.3,4.9-0.3
				c-1-1.5-3.4,0.2-4.3-1.6c-1.3,0-2.7-0.1-4-0.1c-1.8,2.3-4.4,1.2-6.5,1.2c-4.7,0.1-8.6,2.9-13.2,3.5c-2.8,0.4-5.6-0.7-8.2,0.4
				c0,1.5-0.1,3.1-2.3,3c-3.8-0.3-7.8,1.1-11.4-1.6c-0.8-0.6-2.2-0.2-3.4-0.3c0.3-4.9,0.6-5.2,5.2-6.2c3.5-0.7,7.1-0.9,9.7-4.1
				c1.6-1.9,4.9-0.1,7.1-1.7c1.1-0.6,2.1-1.4,1.9-2.7c-0.3-3.1,1.4-3.7,3.9-3.5c1.3,0.1,2.7,0,4,0.1c2.1,0.1,4.8,1.6,4.9-2.4
				c0-0.5,0.7-0.5,1.2-0.6c3.1-0.7,9.8,2.8,11.2,6c5.6,2.2,10.2-2.5,15.6-2.1c5-5.6,10.5-2,16-1c1.8,0.3,2.9,1.1,2.8,2.8
				c-0.1,1.7-1.1,3.2-3.2,3.3c-2.3,0.1-4.7,0-7,0c-0.7,0-1.4,0-1.8,0.6c-0.5,0.9,0.1,1.6,0.8,2.1c2,1.3,3.1,2.9,1.6,5.3
				c1.9,3.2,4.6,2.2,7.3,1.3c1.7-0.6,0.7-1.1,0.1-1.9c-0.4-0.6-0.3-1.5-0.4-2.3c-0.4-0.3-0.9-0.5-1.2-0.9c-0.4-0.8-2.2-0.9-1.5-2.1
				c0.5-1,1.7-0.6,2.7-0.4c0.8,0.2,1.7,0.5,2.4,0.4c2.6-0.4,5.9-0.6,6.2-3.8c0.3-3.1,1-3.3,3.5-2.1c1.8,0.9,3.8,1.1,5.7,1.6
				c2.7,0.6,5.8,1.2,8-1.2c1.5-1.5,0.7-2.7-0.9-4C585.3,265.3,588.1,264.7,588.9,263.9z M582.7,263.1c-0.4,1.5-2,2.6-2.7,4.4
				c-0.9,2.1-3.6,0.6-4.7,0.9c-6.9,0.5-12.1-1.9-16.7-5.9c-0.9-0.8-1.3-1.5-0.8-2.5c0.6-1.2,1.7-1.9,2.9-1.5
				c2.5,0.9,3.4-0.1,4.6-2.2c1.9-3.3,3.3-3.3,7.8-1.9c2.7,0.9,5.8,0.7,7,4.5C580.4,260.3,583.2,261.2,582.7,263.1z"/>
			<path class="st24" d="M24.2,204.7c4.4,1.9,6.9-0.4,9.2-3.5c1.1-1.5,2.3-1.9,3.7-0.8c3.2,2.6,6.6,2.5,10.3,1.5
				c2.5-0.6,4,1.4,2.7,3.6c-0.7,1.2-1,2.1-0.1,3.1c1.1,1.1,1.2,2.2,0.5,3.6c-0.4,0.8-0.2,2,0.5,2.2c4.1,1,6.7,4.2,10.1,6.2
				c1.8,1.1,3.8,1,3.2,3.9c-0.6,2.8,1.9,3.7,3.7,4.6c1.6,0.8,3.6,0.6,5-1c3.4-4,8-6.7,11.6-10.6c2.2-2.4,4.3-4.1,7.6-1.7
				c0.6,0.4,1.7,0.7,2.4,0.4c4.4-1.5,8.2-0.2,12.1,2.1c1.9,1.1,3.8,1.1,6-0.4c2.8-1.9,6.1-3.7,9.3-4.3c4.4-0.8,9-0.1,13.5-1.9
				c2.3-0.9,4.7-0.9,5.9-3.5c0.8-1.6,2.4-2.2,3.8-1.5c1.5,0.8,4.1,1,3.3,3.9c1.8-0.3,2.5-2.9,4.8-2c2.6-1.3,4.9-3.2,8.2-0.8
				c2.3,1.7,4.8-0.6,4.2-3.5c-0.2-1.2-0.4-2.3-0.3-3.4c0.5-3,2.6-4.4,5.6-4c4.5,0.7,7.6-1.4,8.3-5.7c0.5-3.3,2-5.9,4.7-7.9
				c1.9-1.4,3.9-2.2,6.4-1.4c5.4,1.7,10.4,0.2,14.9-3c2.3-1.6,1.4-4.3,2-6.5c-4.7,0.7-9.4,1.9-14.2,0.2c-1.8-0.7-3.6,0.6-5.2,1.2
				c-4,1.7-8.1,1.7-12.2,1.7c-1.5,0-3,0.1-3.7-1.7c-0.7-1.7,1-2.3,1.7-3.2c0.4-0.5,1.1-0.7,1.6-1.1c-0.3-0.4-0.7-0.8-1-1.1
				c-0.5,0-1.2,0.1-1.4-0.2c-4.6-5.1-10.6-5.7-16.9-5.7c-1.8,0-3.7,0.4-5.4-0.4c-1.5-0.7-4.3-0.2-3.8-2.9c0.4-2,2.6-1.6,4.2-1.7
				c2.1-0.1,4.4,0.3,6.3-1c0.2-0.5,0.6-1.2,0.5-1.3c-2.2-2.5-0.5-3,1.6-3.8c3.2-1.3,6.7-1.4,9.9-2.7c0.8-0.3,1.6-0.3,2.1-1.1
				c-0.5-0.4-1.5-0.8-1.5-1.1c0.6-4.6-2.9-2.9-4.5-2.5c-2.5,0.7-5.2,1.3-7.1,3.2c-1.3,1.4-2.9,1.8-4.5,1.4c-3.1-0.7-6-1.3-9.2-0.1
				c-1.8,0.7-2.8-1.1-3-2.5c-0.7-3.5-2.7-3.8-5.5-2.7c-1.1,0.5-2.3,0.6-3.4,0c-2.3-1.2-4.5-0.7-6.6,0.5c-1.2,0.7-2.5,1.2-3.8,0.7
				c-2.1-0.8-3.6,0.2-4.8,1.6c-2.2,2.7-5,3.3-8,2.1c-1.7-0.7-2.9-0.1-4.2,0.5c0.5,3.4-1.1,5.3-4.3,4.9c-5.5-0.6-10.1,2.3-15.2,3.2
				c-0.7,0.1-1.3,0.5-1.3,1.2c-0.1,2.6-2.9,2.3-4.1,3.7c3.4,0.4,6.5,1.4,8.3,4.6c0.7,1.1,2.3,1.9,0.5,3.7c-1,1.1,0.9,1.8,1.5,2.6
				c2.3,2.9,2.2,3.5-1.2,5c-4.1,1.9-8.4,1.2-12.7,0.8c-4.1-0.4-7.6-2.8-11.8-3.1c-1.9-0.1-3.8-0.7-5.8-0.1c-1.8,0.5-3.5-0.3-5-1.4
				c-6.2-2.4-8.9,2.2-12.1,6c0.1,1.4,0.9,2,2.3,2c1.9,0.1,3.2,1.2,3.6,2.9c0.5,1.8-1.4,2.3-2.2,3.4c-1.9,2.4-4.1,3-6.9,2.7
				c-1.7-0.2-3.2,0.1-4.6,1.3c-1.1,0.9-2.4,1.8-4.1,1.5c-0.8,0.1-1.6,0.2-2.4,0.2c-4.5,0.1-4.5,0.1-5.3,3.9c-3.8,3.3-8,4-13,3.2
				c-3.5-0.6-7.4-1.1-9.6,2.9c0.2,0.3,0.3,0.7,0.5,1c0.7,0,1.4,0.2,2,0c3.7-1.6,6.7-0.3,9.3,2.3c2.3,2.2,4.4,1.7,6.7,0.1
				C20.2,205.6,22,203.7,24.2,204.7z M151.9,183c1.7-2.1,5.3-2.3,7.1-0.2c2.6,3,5.5,3.7,9.2,2.8c1.5-0.4,3.3-0.4,4.9,0.3
				c1.4,0.6,3.6,0.4,3.2,2.9c-0.3,2-1.5,3.4-3.5,3.6c-2,0.2-4,0-5.7,1.1c-0.6-0.2-1.1-0.2-1.6-0.4c-2-0.9-2.8-0.5-3.4,1.8
				c-1.2,4.8-3.3,5.6-8.4,5c-4.3-0.5-8.9-1.5-12.8,1.7c-1.5,1.2-3.5,0.8-5.3,0.9c-2.6,0.1-2.1-2-2.7-3.4c-0.8-2-2.7-1.5-4.3-1.7
				c-1-0.2-2-0.7-2.1-1.8c-0.1-1.2,0.8-1.8,1.8-2.1c1.4-0.4,2.9-0.8,4.3-1.1c0.6-0.1,1.3-0.1,2-0.1c3.8,0.1,4-6.1,8.7-4.9
				C147.4,188.5,149.7,185.7,151.9,183z M104.6,177.9c2.3-1.3,5.6-1.5,5-5.5c-0.1-0.7,0.8-1.6,1.6-1.7c3.6-0.5,6.4-4.3,10.6-2.5
				c1.5,0.7,2.3-1.1,3.5-1.5c3.1-1.2,6-2.5,8.3-5.1c-1.6-1.6-3.5-1.5-4.8-0.2c-1.5,1.5-3,1.2-4.6,1.2c-1.6,0-3.8,0.6-4.1-1.6
				c-0.2-1.1,0.3-2.6,0.5-3.9c0.3-1.9,1.9-1.4,3.2-1.5c2.7-0.2,3.7-3.2,6.4-3.5c1.5-0.2,2.6-0.9,3.5,1.2c1.1,2.3,4.6,1,6.1,3.2
				c0.4,0.6,2.2,0.5,1.9,1.7c-0.2,0.9-1.5,1.2-2.5,1.3c-1.9,0.2-3.6,0.6-4.8,2.1c2.3,1.4,5.2,4.1,4.7,5.8c-1.4,4.7,1.8,3.7,3.9,4.5
				c1,0.4,2.4,0.7,2.3,2.2c0,1.7-1.6,1.4-2.6,1.8c-0.8,0.3-1.8,0.8-2.3,0.5c-3.9-2.1-8,0.9-12.1-0.5c-1.5-0.5-4.1,0-5.1,2.7
				c-0.8,2.1-2.3,3.4-4,0c-1-2.1-3-2.5-5.4-1.1c-2.6,1.5-5.1,3.7-8.6,3c-0.8-0.2-1.8-0.3-2-1.1C102.7,178.2,104,178.2,104.6,177.9z
				 M100.1,188.4c0.3-1.8,2.2-1.1,3.2-0.8c3.2,1.2,5.2-0.2,7.1-2.6c2.4-3,2.5-2.9,5.1,0.3c1.4,1.8,3.2,1.2,4.9,0.6
				c1.9-0.7,3.7-1.5,5.5-2.2c1.2-0.5,2.3-0.2,3,1c0.6,1.1-0.2,2-0.9,2.5c-2.9,2.1-4.4,4.9-4.8,8.5c-0.2,2-1.9,2.6-4.7,2.7
				c-3.3,0.3-6-1.8-9-2.6c-2.6-0.7-4.9-2.5-7.7-3.1C99.1,192.2,99.9,189.9,100.1,188.4z M84.8,192.7c2.5,0.2,4.2,3.1,7.1,2.1
				c2.1-0.7,5-1.1,6.3,0c4.7,4.2,10.4,4,16,4.9c0.9,0.1,1.7,1,2.5,1.5c0.9,0.6,2.4,0.8,2,2.4c-0.4,1.5-1.5,2.2-3,2
				c-3.2-0.4-5.6,3-9,2.1c-0.7-0.2-1,0.6-1.4,1.2c-1.7,2.6-3.9,3.1-6.8,1.9c-1.8-0.8-3.8-1.2-5.5-2.1c-2.3-1.2-4.9-0.6-7.1-1.8
				c-2.1-1.1-3.5,2.5-6.1,1.2c-0.6-0.3-2.1,0.6-3.2-0.2c-2.5-1.8-3.9-0.6-4.9,1.8c-0.4,1.1-1,2.1-1.5,3.1c-0.7,1.3-1.7,2.4-3.1,1.6
				c-1.1-0.7-2.1-1.9-1.4-3.8c1.6-4.2-0.2-6.6-5-7c-1.1-0.1-2.7,0.5-3.1-0.8c-0.3-1.3,0.1-3.4,1.4-3.9c2.7-1,2.5-2.2,1-4
				c-1.2-1.5-0.5-3,0.9-3c5.9,0.1,11.3-1.6,17.1-3.5C79.6,191,85.1,187,84.8,192.7z M48.1,189.7c0.8-2.3,4-1.9,4.8-4.6
				c0.4-1.4,2.7-2,2-4.4c-0.3-1.1,1-2.3,2.7-2.3c1.7,0.1,3.3,0,5.4,0c5.4-1.5,9,3.6,13.9,4.9c1.2,0.3,0.8,1.1,0.2,1.8
				c-1.2,1.4-2.6,2.4-4.7,2.3c-3-0.1-6,0-9,0.1c-4.1,0.1-8,0.8-10.9,4.1c-0.5,0.6-1.2,1.2-1.9,1.5c-1.3,0.5-2.7,0.5-3.6-0.7
				C46,191.1,47.8,190.6,48.1,189.7z"/>
			<path class="st24" d="M121.2,109.5c6.2-4,9.1-3.8,14.1,0.9c2.6,0.1,3.9,3.2,6.7,2.7c3.3-0.6,6.5-1.3,8.5-4.4c1-1.6,1.6-2.2,3.8-1
				c5,2.8,9.6,1.4,13.3-2.9c0.5-0.6,1.2-1.2,1.7-1.8c2.8-2.7,5.7-2.6,8,0.7c1.8,2.7,4,3.3,6.9,2.3c2.3-0.8,4.6-1.8,7-2.6
				c0.7-0.2,1.9-0.9,1.9,0.3c0,2.3,4,4.3,0.6,6.9c-0.8,0.6-0.7,2,0.1,2.7c1.6,1.6,1.3,3.1,0.6,5c-0.7,1.9,0.3,3.7,1.5,5
				c1.5,1.7,3.7,2.1,5.9,2.1c1.2,0,3-0.5,3.3,1.4c0.7,4.7,3.7,5.9,7.9,5.6c1.8-0.1,2.2,0.7,2,2.5c-0.7,4.9,0.8,7.4,5.3,9
				c4.1,1.5,7.1,0.3,9.7-3.7c1.3-2,2-4.5,5.3-4c1.1,0.2,1.7-1.4,2.3-2.4c0.7-1.1,0.8-2.8,2.3-3.1c3.2-0.8,4.7-3.3,6.7-5.6
				c1.5-1.8,3.2-3.3,6.3-1.4c2.3,1.5,5.3,1.7,8.5,1.1c4.3-0.8,9-0.5,12.9,2.8c3.5,2.9,10.3,2.3,13.8-1c0.7-0.7,1.1-2,2.1-1.9
				c5.4,0.3,9.2-5.6,15.1-3.5c1,0.4,2.7-0.3,4.2,0.1c1.6,0.4,3.8,0.9,4.7-0.6c1.6-2.6,3.8-2.3,6.1-2.2c2.9,0.1,5.5-0.5,6-3.8
				c0.4-2.5,3.8-1.7,4.4-4.3c0.2-0.8,2.2,1.3,3.6,1.6c0.6,0.1,1.3,0.4,1.9,0.6c3.1,0.7,5.3,2.1,6.2,5.6c0.8,3.2,4.3,5.3,6.3,4.6
				c3.2-1.1,5.5,0.4,8.1,0.9c4.7,0.8,6,0.3,7.7-4.3c0.8-2.1,2.2-4.2,1.5-6.6c-0.2-0.5-0.1-1.2,0.3-1.3c3.9-1.6,3.3-4.9,3.1-8.1
				c-0.1-2.3,0.9-2.8,3-2.8c1.8,0,3.2,0.5,4.4,1.9c0.8,0.9,1.6,2.3,2.7,2c3.9-1.1,6.3,1.3,9.1,3.2c1.8,1.2,3.7,2,5,3.9
				c1.8,2.8,4.5,4,8,4.1c3.7,0,7.1-1.5,10.9-1.1c3.8,0.3,7.1-1.1,10.2-3.4c1.5-1.2,3-3.5,5.4-1.3c1.6,1.5,4.1-0.1,5.7,2.3
				c1.4,2.2,5.2,2.3,5.8,5.7c0.1,0.3,1.1,0.7,1.7,0.7c3.3-0.1,6.7,0.8,9.8-0.8c1.6-0.8,2.7-0.8,4.3,0.5c2.3,2,5.2,1.7,8,0.4
				c2-1,2.7-2.9,3.3-4.8c0.9-2.5,4.5,0,5.2-2.9c0.7-3,1.9-3.7,4.6-1.6c1.4,1.1,4-0.6,5.4,1.7c1.7,3,4.6,4.5,7.8,5.5
				c1.9-2.2,1-4.1-0.6-6c-1.2-1.3-2.9-2.2-3.6-4c-3.8-1.8-8.3-2-11.4-5.4c-0.6-0.7-1.5-0.5-2.4-0.6c-4-0.1-7.9-0.9-11.9,0.6
				c-2.7,1-6.2,1.4-9-0.9c-1-0.8-2.2-0.7-3.3-0.7c-1,0-2.5,0.2-2.8-0.6c-2.3-4.8-6.8-2.6-10.3-3.7c-2.9-0.9-6.3-1.7-6.5-5.7
				c0.7-1.2,2.4-2,1.6-3.8c-0.8-2-2.6-1.2-3.9-1.1c-6.7,0.2-12.7-1.8-18.5-4.9c-0.9-0.4-2.1-0.7-1.8-2c0.2-0.9,1.2-1,2-1.2
				c4.2-1,8.4-2,12.2-4.6c2.2-1.5,4.2-2.6,3.3-5.6c-0.5-1.8,3.2-3,0.8-4.5c-1.2-0.8-3.2-0.3-4.9-0.2c-7.7,0.4-15.4-0.5-23.2,2.2
				c-6.4,2.2-13.6,2.7-20.6,1.2c-1.1-0.2-3-0.1-3.1-2c-0.1-1.4,0.7-2.5,1.8-3.4c0.4-0.3,0.8-0.5,1.3-0.8c1.5-0.7,2.8-1.6,3.9-2.9
				c-1.4-1-3.1-0.4-4.6-0.5c-2.2-0.2-4.1-0.7-3.8-3.3c0.2-1.8-1.2-2.2-2.1-2.2c-4.4,0.1-8.2-1.7-12-3.5c-2.3-1-4.8-1.3-7.3-0.9
				c-3.2,0.4-6.2-0.8-9.3-1c-1.2-0.1-2.7-0.2-2.5-1.7c0.2-1.5,0.4-3.2,2.8-3.4c3.4-0.2,6.9-0.6,10.2-1.7c1.6-0.5,3.3-0.7,0.8-2.6
				c-1.9-1.4-2-2.5,0.6-3.9c3.2-1.7,6.5-2.1,9.9-2.7c1-0.2,2.2,0.2,2.9-0.5c1.6-1.8,5.2-1.1,5.7-3.4c0.4-1.6-2.1-3.5-0.8-5.9
				c0.5-0.9-1-1.3-1.7-1c-1.1,0.4-2,1.1-3,1.7c-0.6,1.3-1.8,1.1-2.9,1.2c-4.3,2.5-9.4,3-13.5,5.9c-0.1,0.1-0.3,0.1-0.5,0
				c-5.6-1.3-11.2-2.2-17-1.1c-1.9,0.3-3-1-3.1-3c-0.3-3.7-1.9-4.8-5.6-4.2c-2.8,0.5-5.6,0.7-8.4-0.2c-2.5-0.8-4.6-0.7-7.1,0.7
				c-2,1.1-5.2,2.8-7,1.4c-3.5-2.7-5.1,0.2-6.3,1.8c-3.9,5.4-8.7,3.9-13.7,2.5c-0.3,0-0.7,0-1,0c-2.7,0.5-5.7,0.6-4.1,4.9
				c0.6,1.6-0.8,2.7-2.5,3c-4.8,0.9-9.6,2.7-14.6,2c-1.1-0.2-2.7-0.5-3.3,0.5c-2.4,4-5.8,3.7-9.5,2.6c-0.9-0.3-3-0.8-1.3,1.7
				c0.9,1.3,0.6,3.3-1.1,3.8c-3.8,1.3-1.3,2.3,0.1,3.1c1.3,0.7,2.9,0.8,4.2,1.4c3.5,1.5,6.2,5.6,4.7,8.2c-1.8,3,0,4,1.7,5.5
				c0.4,0.3,0.7,0.7,1.1,1.1c2.6,2.9,2.2,4.4-1.4,5.6c-2,0.7-4.2,1.7-6.1,1.8c-5,0.3-9.8,2-15.2-0.5c-3.6-1.6-7.7-3.1-11.8-4.1
				c-8.3-2-17.4,1.5-25.2-3.6c-1.2-0.7-2.3,0-2.7,1.8c-0.8,3.6-3.3,5.9-6.9,6.9c-3.9,1.1-4,1.7-1.2,4.9c3.1-2.2,5,0.2,6.7,2
				c1.4,1.4-0.2,4.5-2.1,6.4c-3.2,3.4-7.1,4.3-11.5,3.8c-2.3-0.3-4.4-0.3-6.1,2.2c-0.9,1.4-3,2-5,1.6c-1.7,0.1-3.5,0.2-5,1
				c-1.9,0.1-3.8-0.1-5.7-0.1c-2.4-0.1-1.3,1.3-0.4,2.2c0,1,0.6,2.2-0.7,2.9c-4.3,4.4-10.4,2.8-15.5,4.8c-0.4,0.1-1-0.2-1.4-0.4
				c-4-2.3-8.4-1.3-12.6-1c-2.3,0.2-4.3,1.8-5,4.3C118.7,106.9,119,108.8,121.2,109.5z M304.6,85.9c-3.8,1.5-4.6,5.8-4.3,8.2
				c0.5,4.4-2.3,4.2-4.5,5.1c-0.9,0.4-2,0.3-2.9,0.4c-1.5,0-2.8-0.5-4.2-1.2c-2.7-1.4-5.3-3.4-8.7-3c-0.9,0.1-2.1-0.4-2.7-1.1
				c-2-2.1-4.5-2.5-7.1-2.9c-3.5-0.5-3.9-1.3-2.9-4.8c1.3-4.5,1.4-4.6,5.6-2.8c3,1.3,5.9,0.3,7.7-2.4c0.5-0.8,1.2-1.6,1.8-2.3
				c1.2-1.3,2.4-3.1,4.6-2.4c2.3,0.7,1.3,2.8,1.4,4.3c0.1,1.8,0.4,2,2.5,2.2c4.2,0.3,7.2-1.5,10.1-3.8c0.9-0.7,1.7-1.7,3-1.6
				c1.8,0.1,3.8-0.7,5,1.3c1.1,2-0.6,3-1.6,4.3C306.5,84.2,305.9,85.4,304.6,85.9z M342,78.3c1.9-4,5.2-4.8,9-3.5
				c1.6,0.6,3.1,1.4,4,2.9c1.7,2.7,3.5,2.9,6.6,2.3c5.3-1.1,10.9-1.3,16.2,0.3c4.1,1.2,4.2,2.3,1.9,5.8c-2.4,3.6-5.2,5.5-9.7,4.2
				c-3.6-0.3-7.4,1.7-10.9-0.7c-0.5-0.3-1.7,0.3-1.4,0.8c1.9,2.9-1.7,4.6-1.5,7.2c0.2,2.5-1.8,3.9-4.3,3.8
				c-5.5-0.3-11.1,0.6-16.5-0.8c-2.3-0.6-4.2,0.3-6.1,1.5c-6.1,3.8-8.9,3.5-13.8-1.5c-0.9-0.9-1.5-2.1-3.1-2.2
				c-2.3-0.2-4.6-1.6-4.3-3.8c0.3-2.6,3-3.7,5.6-4.1c2.2-0.3,4.3-0.2,6.5-1.4c2.5-1.2,4.4-1.7,4.5-5c0.1-1.6,2-1.8,3.6-1.2
				c1.6,0.5,3.3,3,4.1,2.1C335.2,82.1,340,82.5,342,78.3z M297.3,36.7c5.9,0.9,10-3.6,15.1-4.8c2.1-0.5,3.6-0.7,2,2.1
				c-0.7,1.2-0.2,1.5,0.8,1.4c0.6-0.1,1.2-0.5,1.9-0.6c1.2-0.2,3.3-0.7,3.1,1.1c-0.2,1.8,1.4,4.9-1.6,5.4c-4.2,0.8-8.1,2.9-12.6,2.1
				c-4.5,1.7-6.2-2.8-9.3-4.4C295,38.2,296.2,36.5,297.3,36.7z M284.9,57.5c2.9,0.3,5.6-0.4,8-2.1c0.4-0.3,1-0.8,1.3-0.7
				c3.6,1.7,6.7-1.4,10.2-1.1c2.8-0.4,4.2-3,6.6-4.3c2.1-1.2,4.1-2,6.6-1.9c2.1,0.1,4.2-0.1,3.9,3c-0.1,0.7,0.1,1.5,0.7,1.7
				c3.5,1.3,2.6,3.3,0.8,5.3c-1.5,1.8-0.8,2.1,1.1,2.1c2.8,0,5.6-0.6,8,1.8c1.9,1.9,1.9,3.2-0.4,4.6c-3.1,1.9-6.6,1.5-9.9,1.1
				c-2-0.2-3.8-0.7-5.8,0.2c-1.2,0.6-3.1,0.8-3.9,0.2c-3.4-2.8-7.1,0.6-10.6-1c-1.3-0.6-2.5,1.6-3.5,2.8c-0.6,0.8-1.8,1.8-2.3,0.4
				c-1.3-3.6-4.3-1.5-6.3-2.3c-3.3,1.8-6.7,3.7-10,5.5c-2.3,1.2-4.9,0.7-7.3,0.6c-2-0.1-1.9-1.6-1-2.9c1.2-1.6,2.6-2.9,4.8-3.3
				c1.1-0.2,2.2-0.7,3.3-0.9c1.2-0.2,1.6-1.2,1.7-2.2c0.1-0.9-0.8-1.4-1.6-1.6c-0.9-0.2-2.3,0.2-2.5-1.1c-0.2-1.5,1.1-2.4,2.4-2.8
				C281,58.1,282.8,57.2,284.9,57.5z M267.5,47.5c1.4,0,2.6-0.2,3-1.9c0.2-1,1.1-1.1,2-0.9c1.2,2.4,2.3-0.3,3.5-0.2
				c1.5,0.1,3.1-0.2,3.9,1.4c0.9,1.7,0.4,3-1,4.4c-4.2,4.3-6.8,4.8-12.1,2.2c-1.6-0.8-2.4-1.9-2.3-3.4
				C264.6,47,266.3,47.5,267.5,47.5z M243.3,86.7c0.2,0,0.7,0.6,0.9,1c2.8,5.3,5.3,6.8,11,6.8c3.1,0,6.3,0,9.4,0
				c1.4,0,2.7,0.1,2.6,2c0.2,1.7,1.3,2,2.8,2c5.2,0,10,2.3,15.2,2.2c2.5,0,5,1.5,7.3,2.9c1.5,0.9,2.1,2.1,1.7,3.8
				c-0.4,1.5-1.5,2.1-3,2.1c-5.3,0.2-9.7,4.2-15.3,3.1c-0.4-0.1-1.2,0.3-1.2,0.6c-1.3,5.8-6,4.5-9.5,3.9c-3.1-0.5-6.5-1.2-9.3-3.2
				c-1.2-0.8-2.8-1.3-4.2-1.3c-2.2-0.1-4.2-0.3-6-1.9c-0.4-0.4-1.3-1.2-2.1-0.3c-4.3,4.5-9.3,3.6-14,1.4c-2.4-1.1-2.8-0.6-3.1,1.6
				c-0.5,3.4-1.1,6.7-3.6,9.5c-1.7,1.8-3.6,2.8-5.6,2.3c-2.4-0.6-3.1-2.8-2.8-5.2c0.1-0.5-0.1-1.1,0.1-1.5c2.2-4.1,0.9-8.1,0-12.1
				c-4.1,0-8.2,0.1-12.3,0.1c-1.2,0-2.4,0-2.6-1.6c-0.2-1.5-0.1-2.9,1.6-3.7c2-1.1,4.2-0.6,6.3-0.7c2.2-1.4,3.8-3.1,3.1-6
				c-1.6,0-3,0-3-2.2c0-1.8,0.6-2.5,2.5-2.9c2.9-0.7,5.8-1.5,8.7-0.2c2.2,0.9,4.5,0.3,5.5-1.2c2.5-3.7,5.4-2.1,8.4-1.5
				c0.1-0.5,0.5-0.8,1-0.9C236.8,84.6,239.8,87.4,243.3,86.7z M190.6,86.8c0.6-0.6,1.1-1.6,1.8-1.7c4.7-0.7,5.6-5.3,8.4-8
				c0.6-0.5,0.5-1.1,0.5-1.8c0-4.3,1.4-6.6,4.8-5.6c4.1,1.1,7.8-1.2,11.7,0c2.3,0.7,5.1,0.3,5.8,3.6c0.2,1,1.2,1.3,2,1.1
				c2.6-0.5,4.4,1.1,6.5,2.1c3.1,1.4,3.2,2.9,0.1,4.7c-3.3,2-7.3,1.7-11,2.2c-6.3,0.5-12.8-0.4-18.8,2.2c-1.7,0.7-3,2.5-4.6,3.7
				c-1,0.8-2.2,1.5-3.3,2.2c-1.5,0.9-3.2,1.6-4.4-0.2C188.8,89.8,189.3,88.1,190.6,86.8z"/>
			<path class="st24" d="M445.3,269c6.7-0.8,11.5-6.6,10.7-13c-0.1-1-0.8-1.7,0.6-2.4c4-2.1,8.5-3,12.3-1.4
				c4.6,1.9,8.6,2.9,13.2,0.7c0.7-0.3,1.6-0.2,2.5-0.3c5.5-0.4,7.9-3.1,7.7-8.6c0-0.8-0.8-1.7,0.2-2.2c0.9-0.4,2.3-0.4,2.8,0.4
				c2,3.4,5.2,2.2,8.1,2.5c2.2-0.2,5.5,1,6.6-0.7c2.8-4.4,6.9-2.9,10.6-3.4c3.6-0.5,6.5-2.2,8.2-5.7c0.6-1.3,0.9-2.7-0.4-3.6
				c-1.7-1.1-2.3-2.8-3.3-4.3c-2.3-3.4-9.2-5.1-11.9-2.4c-2.1,2.2-4.7,3.5-7,5.2c-2.3,1.6-8.2,2.8-10.9,3c-4.5,0.4-7.6-1.7-10.6-4.4
				c-1.7-1.6-4.5-3.1-5.7-2.4c-3.1,2.1-6,0.3-8.9,0.6c-2.2,0.2-4.4,0.5-6,2c-3.9,3.5-7.5,7.3-12,10.2c-1.7,1.1-2.6,1.8-4.6,1.1
				c-1.6-0.6-3.1-1.2-4.5-2.1c-2.7-1.7-5.4-2-7.6,0.5c-1.8,1.9-4.4,1.1-4.8,0.2c-1.7-4.1-4.1-3.5-8-3.5c-6.8,0-8.5,0.9-7.3,7.8
				c0.4,2.1,0.4,4.2-2.7,3.9c-2-0.2-2.9,0.6-3.6,2.5c-0.7,2.1-3,3.2-3.1,5.9c-0.2,2.9-4.2,1.4-5.8,3.4c-0.8,1-2.3,1.7-2.5,3
				c-0.2,2.1-1.7,2.2-3.1,2.7c-1.6,0.6-3.1,1.2-4.6,1.8c-0.8,0.3-1.7,1.3-1.3,1.9c1.6,2.1,2.2,5.8,3.9,6.4c3.4,1.1,7.1,3.6,11.2,0.9
				c2.4-1.6,5.2-2.4,8.2-2.8c4-0.6,7.1-3.4,8.5-7.5c0.8-2.2,4-4.1,5.9-2.8c1.6,1,4.6,1.3,3.3,5.2c-1.6,4.8-0.1,6.4,4.9,7.4
				c3.2,0.6,5.9-0.5,7.9-3C443.2,270.3,443.7,269.2,445.3,269z"/>
			<path class="st24" d="M370.3,155.4c1.3-0.5,2.6-1.1,4.1-1.1c1.1-3.2,1.5-7,6.2-7.2c0.7,0,1.5-0.8,1.9-1.5
				c1.6-2.3,3.5-3.8,6.5-3.3c1.4,0.2,2.5-0.6,3.5-1.6c0.7-0.7,1.5-1.4,2.6-1.4c4.4,0.2,8-2.7,12.3-3.3c1.9-0.2,4.3-2,3.7-4.6
				c-0.4-2-2.7-2.1-4.6-2.2c-0.5,0-1,0-1.5,0c-1.8,0-3.7,0.2-4.7-1.9c-0.5-1.1-1.6-1.1-2.6-1.1c-2.3,0-3.2-1.1-3.4-3.3
				c-0.2-2.2-1.8-3.8-3.7-4.3c-2-0.5-3.1,1.4-4.2,3c-0.4,0.6-0.9,1.1-1.1,1.7c-0.6,3.4-3.5,3.2-5.9,3.8c-1.5,0.3-2.2-0.2-1.6-1.9
				c1.1-3-1.3-3.4-3.2-3.8c-3.1-0.7-5.8,1.1-7.5,3.2c-2.4,3-5.1,4.6-8.8,5.3c-2.3,0.4-5.7,2.2-6.8,1.6c-4.5-2.3-10,0.8-14.1-2.9
				c-0.4-0.4-1.6-0.4-1.8,0.2c-1.7,3.3-4.8,2.1-7.4,2.8c-2,0.5-5.6,1-3,4.8c0.5,0.7,0,0.9-0.4,0.9c-5.3,0.1-6.5,6-10.7,7.7
				c-1.1,0.5-2.3,1.7-1.7,3.3c0.6,1.7,2.3,1.1,3.5,1c2.8-0.3,5.8-1.9,8.2-1.2c4.7,1.4,7.9-0.6,11.1-3.3c0.9-0.7,1.7-1.8,3-1.1
				c1.4,0.7,0.8,2,0.8,3.1c0.3,4.1,1.7,5.3,5.7,4.4c1.7-0.4,3.3-1.4,5-2.2c1.2-0.5,2.7-1.8,3.6-1.5c3.8,1.5,7.1,0,10.5-1.1
				c1.3-0.4,3.5-0.4,3.1,1.9C366.8,151.6,368.9,153.3,370.3,155.4z"/>
			<path class="st24" d="M334.4,182.7c0.2,0,0.4,0,0.5-0.1c4.8-4.3,10.6-4.6,16.5-4.1c0.4-0.6,0.8-1,1.5-1c2.6,0,3.5-1,2.6-3.6
				c-0.4-1,0-2.2,0-3.4c-2.3,1-4-0.4-5.9-1.4c-4-2.2-8.1-3-11.9,0.5c-0.7,0.6-1.5,1-2.3,0.6c-1.1-0.5-0.6-1.3-0.3-2.1
				c0.9-2.4-1.1-3.4-2.5-3.3c-5.4,0.2-10.1-1.8-14.9-3.6c-3.2-1.2-7.1,0.3-9.9-2.5c-0.7-0.7-1.9-0.1-2.6,0.7
				c-2.9,3.2-6.7,2.7-10.4,2.5c-1.3,0-2.7-0.8-3.9-0.4c-3.1,1.1-6.1,0.4-9.2,0c-1.3-0.2-3.2-0.9-4,1c-1,2.6-2.6,1.7-4.5,1.4
				c-4.1-0.7-8.2-1-12.3-0.5c-3.2,0.5-5.3,3.3-8.5,3.9c-2.5,0.2-4.9,0-7.3-0.7c-1.5-0.4-3-0.9-4.8-0.8c-4,0.4-7.7,3.2-12.1,1.7
				c-1.6-0.5-2.7,1-2.9,2.7c3.4-1,6.4,0.1,9,2.2c1,0.8,2,1,3.1,1.2c4,0.6,7.8-1.6,12-1c1.3,0.2,3-2.1,3-4.2c1.3-0.1,2.8-0.2,3.5,1.2
				c1.5,2.7,3.9,2,6,1.5c4.4-1.2,8.8-1.6,13.3-1.6c0.8,0,1.6,0.2,2.2,0.9c3.8-1.8,7.8-1.9,11.9-2c3.7-0.1,7.3-1.7,11,0.1
				c0.4,0.2,0.8,0.6,1.1,0.9c1.1,0.6,2.3,1.3,3.6,1.1c3.3-0.5,5.9,1,8.3,3c5.5,0.7,10.5,3.7,16.3,3c0.9-0.1,2.6,0.6,1.9,1.4
				C328.2,182.2,333.3,181.2,334.4,182.7z"/>
			<path class="st24" d="M196.1,158.1c-0.4,0.3-0.9,0.4-1.4,0.5c-4.3,0.9-2.6,5.7-5,7.8c-0.2,0.2-0.3,0.5-0.5,0.8
				c2.2,0.7,4.5,0.1,6.7,0.4c0.2,0,0.3,0,0.5,0c3.9,2.1,7.9-0.3,11.9,0.1c2.9-1.4,5.9-2.8,9.2-3.1c2.7-0.2,5.2-0.8,7.2-2.8
				c1.3-1.3,2.9-2.9,2.3-4.6c-0.7-2-3-2.7-5-2.5c-5.1,0.5-9.7-1.2-14.5-2.8c-3.1-1-4.2-1.2-0.9-3.6c1.5-1.1,3-3.3,2.4-5.2
				c-0.7-2.3-3.2-3.2-5.6-3.5c-0.8-0.1-1.7,0-2.5,0c-2.3-0.1-5.5,1.2-4.8-3.4c0.1-0.9-1.3-1.4-2.2-1.8c-1.6-0.8-2.9-1.5-1.7-3.7
				c0.4-0.8,0.4-2.4-0.6-2.6c-3.2-0.5-7.2-2.2-9.4-0.4c-2.6,2.1-6.7,3.1-7.7,7.1c0.8,1.2,2.7,1.2,3,2.8c0.7,0.7,1.3,1.4,2,2.1
				c2.3,0.1,3.7,1.5,3.9,3.7c0.2,2.1,1.4,2.2,3,2.3c5.7,0.4,6.1,0.9,6,7c1,1.2,2.4-0.4,3.6,0.7c0.8,0.7,2.2,0.9,2.3,2.3
				C198.1,156.7,197,157.4,196.1,158.1z"/>
			<path class="st24" d="M251.2,154.3c-2.2,0.9-4.5,1.9-4.4,4.6c0,2.1,3.3,3,6.8,1.9c1.4-0.4,2.9-0.2,4.2-1.3
				c3.6-2.9,7.6-4.9,12.4-3.1c3.3,1.2,6.6,3.7,10,0c0.4-0.4,1.6-0.1,3.1-0.1c1.1-0.1,3.4,0.7,4.5-1.1c1.4-2.4,3.2-2.9,5.8-2.9
				c1.4,0,2.9-0.6,4.3-1.2c2.4-1.2,4.2-4.9,3.6-7.1c-0.5-1.9-3.7-3.7-6.5-3.5c-3.2,0.2-6.2,1.5-8.8,3.2c-2,1.4-3.2,1.9-4.6-0.6
				c-1.5-2.6-4.3-3.4-7-2.4c-2.1,0.8-2.9,0-4-1.5c-1.9-2.5-4.4-4-7.7-3.8c-2.4,0.2-3.9,1.1-3,3.8c1,2.9,0.4,4.2-2.9,3.4
				c-0.6-0.2-1.3-0.1-2,0c-2,0.3-3.6,1.6-3.9,3.4c-0.2,1.4,1.5,2.5,3.2,2.5c2.6,0,1.5,1.6,1.1,2.6
				C254.6,152.9,252.8,153.7,251.2,154.3z"/>
			<path class="st24" d="M165,125.2c1.5-0.5,4-0.6,3.3-3.4c-0.7-2.8-2.9-2.2-4.8-2.3c-0.5,0-1-0.1-1.5,0c-2.1,0.3-4.3,1.5-5.3-2
				c-0.4-1.4-2-0.9-2.9,0.1c-1.8,2.1-3.4,4.5-6.2,1.1c-0.5-0.6-2-0.5-2.7,0.3c-0.6,0.7-0.6,1.7,0.1,2.3c1.8,1.7,2.6,3.2,0.2,5.1
				c-0.6,0.5-0.1,1.4,0.5,1.6c3.3,0.8,6.1,2.2,8.1,5c0.2,0.3,0.9,0.3,1.7,0.5c2.8-1.3,6-2.4,8.1-5
				C164.1,127.8,162.8,125.9,165,125.2z"/>
			<path class="st24" d="M426.4,134.4c-2.8,0.4-5.3,0.6-6.2,3.9c-0.3,1.3-1.2,1.9-2.6,1.9c1.1,1.5,2.2,3.1,4.2,1.3
				c1.8-1.6,3.6-1.2,5.6-0.5c2.4,0.8,4.2,0.1,4.9-2.5c0.6-2.6,1.7-2.6,3.2-0.7c0.5,0.6,1.2,1.1,1.8,1.6c0.8,0.1,1.7,0,2.4,0.3
				c2.8,1.3,2.5-0.6,2.5-2.2C437.2,135.8,432.1,133.7,426.4,134.4z"/>
			<path class="st24" d="M250.1,201.5c3.1,0,6.2,0,9.3,0c0.6-1.1,1.6-1.1,2.6-0.9c3.7,0.6,6.7-0.5,9.5-2.9c1-0.8,2-1.6,3.9-1.4
				c3.3,0.4,6.3-2.9,7.1-6.7c0-0.7-0.1-1.3-0.1-2c0-0.7-0.1-1.4-0.8-1.6c-0.8-0.3-1.5,0.3-1.6,0.8c-1.4,5.2-5.5,4.8-9.5,4.7
				c-6.6-3.4-13.8-4.6-21.1-4.9c-1.3,2.3-2.8,4.3-6,4c-0.4,0.9-1.2,1.8-1,3c5,0.4,5,0.4,4.9,6C247.4,201.3,248.6,201.5,250.1,201.5z
				"/>
		</g>
		<path class="st25" d="M308.3,287.5c0.1-0.6,0.1-1.6,0.8-1.6c4.2-0.1,8.8-2.1,12.3,2.1c0.7,0.9,1.7,1.5,2.9,1.6
			c0.4,1.8,3.8,2.4,2.3,4.9c-1.3,2-3.6,1-5.6,1.1c-4.2,0.2-6.2-3.4-9.3-5.2C310.5,289.6,309.8,288.1,308.3,287.5z"/>
		<path class="st26" d="M330.4,220.4c3.4-0.2,6.9,0.6,10.3-0.9c1.1-0.5,2.3,0,3.3,0.7c3.2,2.1,6.7,2.5,10.4,2.2
			c0.1,2.2-1.2,4.3-0.2,6.6c0.4,1-0.9,2.5-2,2c-3-1.3-5.6-0.1-8.2,1c-0.1,0-0.4-0.4-0.7-0.6c-2.7-2.1-5.7-0.7-8.6-1
			c-3.6-0.4-5.2,2-6.5,4.9c-0.6,1.3-4,0.5-4.7-1.3c-1.9-4.8-5.6-6.5-10.5-6.7c-3.4-0.1-5.5-3.5-8.8-3.9c-0.2,0-0.5-0.9-0.4-1.3
			c0.9-3.1,6.2-4,8.7-2c3.9,3,8.6,2.8,13.1,1.6C327.2,221.3,328.6,220.3,330.4,220.4z"/>
		<g>
			<path class="st27" d="M446.2,211c-0.9-0.6-2.1-1-3.1-1.4c-3.4-1.5-7.1-1-10.7-1.1c-1-1.7-3.4-0.3-4.4-1.9c-2.2-3.9-6-3.1-9.3-2.9
				c-4.2,0.3-6.6-0.7-8.5-4.3c-0.6-1.1-1.5-1.5-2.7-1.7c-7.8-1.5-14.8,3.3-22.4,2.6c-0.3,0-0.6,0.2-0.9,0.3c-2.5,0.7-3.7,1.9-1,3.9
				c1.1,0.8,1.5,1.8,1,3c-0.5,1.5-1.9,1.1-3,1.1c-1.6,0-3,0.4-4.2,1.4c-1.7,1.4-1.4,2.8,0.7,3.6c2.3,0.9,4.7,1.6,7.2,0.3
				c0.9-0.4,1.9-0.5,2.9,0.1c-1.6,2.2,2.3,4,0.4,6.3c-1.1,1.2-0.8,2.8-0.8,4.3c0,1.8,1.1,2.6,2.6,3.3c1.5,0.7,2.8-0.1,3.5-1.1
				c1.3-1.8,3.2-3.5,2.9-6.1c-0.2-2.8,1.2-3.9,3.6-2.6c3.3,1.7,6.3,1.1,9.3-0.8c0.8-0.5,1.4-0.3,2.3-0.1c4.3,1.2,8.6,2.5,13,3.2
				c2.7,0.4,6,1.2,8.2-0.5c1.9-1.5,3.7-1.1,5.5-1.4c2.4-1,4.8-2,7.3-2.8c1.1-0.4,2.3-0.6,2.5-2C448.3,212.3,447.1,211.6,446.2,211z"
				/>
			<g>
				<path class="st27" d="M312.4,31.9c-5.1,1.2-9.2,5.7-15.1,4.8c-1.1-0.2-2.3,1.6-0.7,2.4c3.1,1.6,4.8,6.1,9.3,4.4
					c4.5,0.8,8.4-1.4,12.6-2.1c3.1-0.6,1.4-3.6,1.6-5.4c0.2-1.8-1.8-1.3-3.1-1.1c-0.6,0.1-1.2,0.6-1.9,0.6c-1.1,0.1-1.5-0.2-0.8-1.4
					C316,31.2,314.5,31.4,312.4,31.9z"/>
				<path class="st27" d="M295.7,69.6c0.5,1.4,1.7,0.3,2.3-0.4c1-1.3,2.2-3.4,3.5-2.8c3.5,1.6,7.2-1.9,10.6,1
					c0.8,0.7,2.6,0.4,3.9-0.2c1.9-0.9,3.8-0.4,5.8-0.2c3.3,0.4,6.8,0.8,9.9-1.1c2.3-1.4,2.2-2.7,0.4-4.6c-2.3-2.3-5.2-1.7-8-1.8
					c-1.9,0-2.6-0.3-1.1-2.1c1.8-2,2.7-4-0.8-5.3c-0.6-0.2-0.8-1.1-0.7-1.7c0.3-3.1-1.8-2.9-3.9-3c-2.4-0.1-4.5,0.7-6.6,1.9
					c-2.3,1.3-3.7,3.9-6.6,4.3c-3.5-0.4-6.6,2.8-10.2,1.1c-0.3-0.1-0.8,0.4-1.3,0.7c-2.4,1.6-5.1,2.3-8,2.1
					c-2.1-0.2-3.9,0.6-5.8,1.2c-1.2,0.4-2.5,1.3-2.4,2.8c0.1,1.3,1.6,0.9,2.5,1.1c0.9,0.2,1.7,0.6,1.6,1.6c-0.1,1-0.5,2-1.7,2.2
					c-1.2,0.2-2.2,0.6-3.3,0.9c-2.2,0.4-3.6,1.7-4.8,3.3c-0.9,1.2-1,2.8,1,2.9c2.4,0.1,5,0.7,7.3-0.6c3.4-1.8,6.7-3.7,10-5.5
					C291.4,68.1,294.4,66,295.7,69.6z"/>
				<path class="st27" d="M266.9,52.4c5.3,2.6,7.9,2.1,12.1-2.2c1.4-1.4,1.9-2.7,1-4.4c-0.8-1.6-2.5-1.3-3.9-1.4
					c-1.2-0.1-2.3,2.6-3.5,0.2c-0.9-0.2-1.8,0-2,0.9c-0.4,1.7-1.5,1.9-3,1.9c-1.2,0-3-0.5-3,1.5C264.5,50.5,265.3,51.7,266.9,52.4z"
					/>
				<path class="st27" d="M217.2,125.2c2,0.5,3.9-0.5,5.6-2.3c2.6-2.8,3.2-6.1,3.6-9.5c0.3-2.1,0.7-2.7,3.1-1.6
					c4.7,2.2,9.7,3.1,14-1.4c0.9-0.9,1.7-0.1,2.1,0.3c1.8,1.6,3.8,1.8,6,1.9c1.4,0,3,0.5,4.2,1.3c2.8,2,6.2,2.6,9.3,3.2
					c3.5,0.6,8.2,2,9.5-3.9c0.1-0.3,0.9-0.7,1.2-0.6c5.5,1.1,10-2.9,15.3-3.1c1.5-0.1,2.6-0.6,3-2.1c0.4-1.6-0.2-2.9-1.7-3.8
					c-2.3-1.3-4.8-2.9-7.3-2.9c-5.2,0-10-2.3-15.2-2.2c-1.5,0-2.6-0.3-2.8-2c0.2-2-1.2-2-2.6-2c-3.1,0-6.3,0-9.4,0
					c-5.7,0-8.3-1.5-11-6.8c-0.2-0.4-0.7-1.1-0.9-1c-3.5,0.8-6.5-2.1-9.9-1.1c-0.5,0.1-0.9,0.4-1,0.9c-3-0.7-5.9-2.3-8.4,1.5
					c-1,1.5-3.3,2.1-5.5,1.2c-2.9-1.2-5.8-0.4-8.7,0.2c-1.8,0.4-2.5,1.1-2.5,2.9c0,2.2,1.5,2.2,3,2.2c0.7,2.9-0.9,4.6-3.1,6
					c-2.1,0.1-4.2-0.4-6.3,0.7c-1.7,0.9-1.8,2.2-1.6,3.7c0.2,1.5,1.4,1.6,2.6,1.6c4.1,0,8.2-0.1,12.3-0.1c0-0.2,0-0.4,0-0.6
					c0,0.2,0,0.4,0,0.6c1,4,2.2,8.1,0,12.1c-0.2,0.4,0,1-0.1,1.5C214.1,122.4,214.8,124.6,217.2,125.2z"/>
				<path class="st27" d="M481.5,101.5c-1.1-1.2-2.5-2-3.3-3.6c-3-6-5-6.5-10.7-3.1c-1.7,1-3.6,2.4-5.4,0.6c-2.2-2.3-3.9-1.5-6,0
					c-1.3,0.9-2.9,2.6-4.3,1.5c-2.6-2-6.3-2.2-8.2-5.3c5-1.6,9.7-3.6,14-6.8c4.7-3.4,4.7-5-0.1-8.7c2.8-7.8,2.8-7.8-3.1-10.7
					c-1.8-1.8-4.1-0.6-6.1-0.9c-1.3-0.2-3.1,0.5-3.8-0.5c-2.2-3.4-5.5-2.6-8.5-2.5c-2.4,0.1-4.2-0.2-5.3-2.6
					c-1.2-2.5-3.4-3.7-6.1-3.4c-8.7,0.7-17.3-2.2-26.1-1c-1.7,0.2-3.4,0.3-3.9-2c1.8-1.4,3.3-2.9,3.9-5.3c0.4-1.9,1.7-2.8,3.9-3
					c3.8-0.4,6.6-2.9,9.5-5c1.3-0.9,2-2.3,1.3-3.9c-0.6-1.4-1.7-2-3.2-2c-2.3,0.1-4.7-0.4-6.9,0.4c-1.2,0.5-2.9,1.4-3.5-0.1
					c-0.5-1.2-2-2.9-0.2-4.5c1.7-1.5,0.4-2.5-0.5-3.7c-1.8-2.5-4.4-2.4-6.7-1.8c-1.9,0.5-3.3,1.2-4.8-0.5c-1.3-1.5-1.6-3.1-1.2-4.9
					c0.2-1.2,0.6-2.6-0.7-3c-3.5-1.2-5.4-3.9-7.5-6.6c-1-1.3-2.9-2.4-4.3-2c-2.6,0.7-4.9-0.9-7.3-0.2c-5.2-2.9-5.3-2.9-9.3,1.4
					c-1.1,1.2-2.4,2.6-4,2.7c-2.5,0.1-4.2,1.6-6,2.9c-1.7,0.1-3.6-0.4-4.9,0.4c-4.1,2.3-5.4-0.2-6.7-3.2c-0.1-0.2-0.1-0.3-0.2-0.5
					c-2.7-4.8-6.3-6-11.5-4.1c-1.5,0.5-2.9,2.3-4.6,1.3c-2.5-1.5-4.3-0.7-6.3,0.9c-1,0.8-3.3,1-3.3-0.5c0.2-3.7-3.3-4.9-4.3-7.6
					c-2.4,2.7-6.7,3.8-7.1,8.3c-3.3,0.8-5.3-1.8-7.8-3.2c-1.1-0.6-1.7-2.1-2.4,0.6c-1.2,5.2-1.5,5.2-6.8,4.8c-0.3,0-0.7,0-1,0.1
					c-1-0.4-2.3,0.1-3-1.1c-2.3-3.1-3-3-2.8-1.5c0.3,3.6-4,3.3-4.5,6c-0.1,0.8-1.2,0.5-1.6,0c-3-4.1-6.1-3.6-9.4-0.4
					c-1.2,1.2-2.1,1.1-2.7-0.8c-2.2-6.2-5.4-6.8-10-2.2c-2.2,2.2-1,4.9-1.1,7.4c-0.2,3.5-0.6,3.8-3.7,2.1c-3.1-1.7-5.1-1.2-6.9,0.5
					c-1.7,1.7,0.2,4-1.6,5.7c-1.7,1.6-4.4-0.1-5.8,2c-0.2,0.3-0.4,0.5-0.6,0.8c-0.6,0.7-1.5,1.1-2.2,0.6c-2.8-2-3.6,0.8-5.1,2
					c-3.8-1-7.8-2.1-11.4,0.4c-2.6,1.8-4.3,1.7-6.9-0.5c-4.1-3.4-9.1-1.7-11.2,3.2c-0.9,2.1-0.1,4.3-0.7,6.3c-0.7,2.8,0.2,4.8,3,5.7
					c-0.8,0.9-1.9,1.5-3.1,1.4c-3.8-0.3-7.5,0.4-11.3-0.5c-4-1-6.1,1.4-5.2,5.3c0.2,1,0.5,1.9,0.9,2.8c1.8,4.2,1.9,4.2-2.6,4.4
					c-1.5,0.1-3-0.1-4.2,1c-1.1,1-2.6,0.9-3.8,0.4c-5-2.3-8.9-0.5-12.5,3c-3.9,2.7-4,2.8-1.4,6.3c0.7,0.9,1,2.4,1.6,2.9
					c2.2,1.7,1.6,2.8-0.5,3.8c-2.8,1.4-5.6,2.7-3,6.6c0.6,0.9-0.5,1.8-0.8,2.7c-1.3,4.2-0.7,5.1,3.2,7.6c1.4,0.9,4,0.2,4,2.9
					c1.3-0.7,0.7-1.9,0.7-2.9c-0.9-1-2-2.3,0.4-2.2c1.9,0,3.8,0.2,5.7,0.1c1.6-0.8,3.3-1,5-1c2,0.4,4-0.2,5-1.6
					c1.6-2.5,3.8-2.5,6.1-2.2c4.5,0.5,8.3-0.3,11.5-3.8c1.9-2,3.5-5,2.1-6.4c-1.7-1.7-3.7-4.2-6.7-2c-2.8-3.3-2.7-3.8,1.2-4.9
					c3.6-1,6.1-3.3,6.9-6.9c0.4-1.8,1.5-2.6,2.7-1.8c7.9,5.1,16.9,1.6,25.2,3.6c4.1,1,8.2,2.4,11.8,4.1c5.4,2.5,10.2,0.8,15.2,0.5
					c1.9-0.1,4.1-1.1,6.1-1.8c3.7-1.2,4-2.7,1.4-5.6c-0.3-0.4-0.7-0.7-1.1-1.1c-1.7-1.4-3.5-2.4-1.7-5.5c1.5-2.6-1.3-6.8-4.7-8.2
					c-1.4-0.6-2.9-0.7-4.2-1.4c-1.4-0.8-3.9-1.8-0.1-3.1c1.6-0.6,2-2.5,1.1-3.8c-1.7-2.4,0.4-1.9,1.3-1.7c3.8,1.1,7.1,1.4,9.5-2.6
					c0.6-1,2.2-0.7,3.3-0.5c5.1,0.7,9.8-1.1,14.6-2c1.7-0.3,3.1-1.5,2.5-3c-1.6-4.3,1.4-4.4,4.1-4.9c0.3-0.1,0.7,0,1,0
					c4.9,1.3,9.8,2.9,13.7-2.5c1.1-1.6,2.8-4.5,6.3-1.8c1.8,1.4,4.9-0.3,7-1.4c2.5-1.4,4.6-1.5,7.1-0.7c2.8,0.9,5.6,0.6,8.4,0.2
					c3.6-0.6,5.3,0.5,5.6,4.2c0.2,2,1.2,3.4,3.1,3c5.8-1.1,11.4-0.2,17,1.1c0.2,0,0.4,0.1,0.5,0c4.1-2.9,9.2-3.5,13.5-5.9
					c1.1-0.1,2.3,0.2,2.9-1.2c1-0.6,1.9-1.3,3-1.7c0.7-0.3,2.2,0.1,1.7,1c-1.2,2.4,1.2,4.3,0.8,5.9c-0.5,2.3-4,1.7-5.7,3.4
					c-0.7,0.7-1.9,0.3-2.9,0.5c-3.4,0.7-6.7,1.1-9.9,2.7c-2.6,1.4-2.5,2.5-0.6,3.9c2.5,1.9,0.8,2.1-0.8,2.6
					c-3.3,1.1-6.8,1.5-10.2,1.7c-2.5,0.1-2.6,1.9-2.8,3.4c-0.2,1.5,1.3,1.6,2.5,1.7c3.1,0.3,6.1,1.5,9.3,1c2.5-0.3,5-0.1,7.3,0.9
					c3.8,1.8,7.6,3.6,12,3.5c0.8,0,2.2,0.4,2.1,2.2c-0.3,2.6,1.7,3.2,3.8,3.3c1.5,0.1,3.2-0.5,4.6,0.5c-1.1,1.2-2.4,2.2-3.9,2.9
					c-0.5,0.2-0.9,0.4-1.3,0.8c-1.1,0.9-1.8,2-1.8,3.4c0.1,1.8,1.9,1.7,3.1,2c7,1.5,14.2,1,20.6-1.2c7.8-2.7,15.4-1.9,23.2-2.2
					c1.7-0.1,3.7-0.5,4.9,0.2c2.4,1.6-1.4,2.7-0.8,4.5c0.9,3-1,4-3.3,5.6c-3.8,2.6-7.9,3.6-12.2,4.6c-0.8,0.2-1.8,0.4-2,1.2
					c-0.3,1.3,0.9,1.5,1.8,2c5.8,3,11.9,5,18.5,4.9c1.3,0,3.1-0.8,3.9,1.1c0.7,1.8-0.9,2.6-1.6,3.8c0.2,4.1,3.6,4.8,6.5,5.7
					c3.5,1.1,8-1.1,10.3,3.7c0.4,0.8,1.8,0.5,2.8,0.6c1.2,0,2.3-0.1,3.3,0.7c2.8,2.2,6.3,1.9,9,0.9c4.1-1.5,8-0.8,11.9-0.6
					c0.8,0,1.7-0.1,2.4,0.6c3,3.4,7.6,3.6,11.4,5.4C485.3,103.8,482.9,103,481.5,101.5z M443.5,91.6
					C443.5,91.6,443.5,91.6,443.5,91.6L443.5,91.6C443.5,91.6,443.5,91.6,443.5,91.6z"/>
				<path class="st27" d="M359.2,89.7c3.5,2.3,7.4,0.3,10.9,0.7c4.5,1.3,7.3-0.6,9.7-4.2c2.3-3.5,2.2-4.6-1.9-5.8
					c-5.3-1.6-10.9-1.4-16.2-0.3c-3.1,0.6-5,0.4-6.6-2.3c-0.9-1.4-2.4-2.3-4-2.9c-3.8-1.4-7.1-0.5-9,3.5c-2,4.2-6.8,3.7-9.5,6.7
					c-0.8,0.9-2.6-1.6-4.1-2.1c-1.7-0.6-3.6-0.4-3.6,1.2c-0.1,3.3-2,3.8-4.5,5c-2.3,1.1-4.3,1.1-6.5,1.4c-2.6,0.3-5.2,1.5-5.6,4.1
					c-0.3,2.2,1.9,3.7,4.3,3.8c1.6,0.1,2.3,1.3,3.1,2.2c4.9,5,7.7,5.3,13.8,1.5c1.9-1.2,3.8-2.1,6.1-1.5c5.5,1.5,11,0.5,16.5,0.8
					c2.4,0.2,4.5-1.2,4.3-3.8c-0.2-2.6,3.4-4.3,1.5-7.2C357.4,90,358.7,89.3,359.2,89.7z"/>
				<path class="st27" d="M562,268.4c-5.4-1-11-4.6-16,1c-5.3-0.4-10,4.2-15.6,2.1c-1.5-3.2-8.1-6.7-11.2-6
					c-0.5,0.1-1.1,0.1-1.2,0.6c-0.1,4-2.8,2.5-4.9,2.4c-1.3-0.1-2.7,0-4-0.1c-2.5-0.2-4.2,0.4-3.9,3.5c0.1,1.3-0.8,2.1-1.9,2.7
					c-2.1,1.6-5.4-0.2-7.1,1.7c-2.7,3.2-6.3,3.4-9.7,4.1c-4.6,1-4.9,1.2-5.2,6.2c1.1,0.1,2.6-0.3,3.4,0.3c3.6,2.7,7.6,1.3,11.4,1.6
					c2.2,0.2,2.2-1.4,2.3-3c2.7-1.1,5.4-0.1,8.2-0.4c4.6-0.6,8.5-3.4,13.2-3.5c2.1,0,4.7,1.1,6.5-1.2c1.3,0,2.7,0.1,4,0.1
					c3.9-0.4,7.8,0.7,11.6-0.8c4.4-1.7,7.4,2.6,11.4,2.8c0.7,0,1.3,0,2,0c1.5-2.4,0.4-4-1.6-5.3c-0.7-0.5-1.3-1.1-0.8-2.1
					c0.3-0.6,1.1-0.6,1.8-0.6c2.3,0,4.7,0.1,7,0c2-0.1,3-1.6,3.2-3.3C565,269.5,563.8,268.7,562,268.4z"/>
				<path class="st27" d="M579.9,258.9c-1.2-3.7-4.2-3.6-7-4.5c-4.5-1.4-5.9-1.4-7.8,1.9c-1.2,2.2-2.2,3.2-4.6,2.2
					c-1.1-0.4-2.3,0.3-2.9,1.5c-0.5,1-0.1,1.7,0.8,2.5c4.6,4,9.8,6.4,16.7,5.9c1.2-0.3,3.9,1.2,4.7-0.9c0.7-1.8,2.3-2.9,2.7-4.4
					C583.2,261.2,580.4,260.3,579.9,258.9z"/>
				<path class="st27" d="M354,302.7c-3.2-0.3-6.3-1.8-9.6-1.2c-4.4,2.9-9.2,3.6-14.2,2.7c-0.5-0.1-1.2-0.7-1.5-1.3
					c-1.8-3.5-6.1-2.8-8.6-5c-0.8-0.7-1.4,0.1-1.7,1c-0.9,2.3-2.6,1.9-4,0.8c-2.1-1.5-4.6-1.6-7-2.3c-1.3-0.3-2.7-0.1-3.5,1.2
					c-0.9,1.4,0,2.4,0.8,3.5c1.5,2,0.9,3.8-1.5,4c-3.5,0.3-7-0.1-8.8,3.9c-0.2,0.4-1.5,0.2-2.4,0.2c-1.3,0-2.7,0.1-4,0
					c-2.1-0.1-3.7,0.9-4.4,2.7c-0.9,2.3,1.5,2.5,2.7,3.4c0.8,0.2,1.6,0.4,2.4,0.6c4.1,1.2,8.1,2.4,12.3-0.3c2-1.3,4.9-1.5,7.6-0.4
					c2,0.8,4.2,1.7,4.9-1.8c0.2-1.1,1.1-1,1.9-0.7c1.9,0.8,3.9,0.3,5.9,0.4c2.6-1.7,5.1-3.1,8.5-2.1c2.2,0.6,4.8,0.7,6.9,0
					c3.9-1.3,6.9,0.3,10,2c0.3,0.2,0.5,0.4,0.8,0.6c1.1,0.5,2.3,0.8,3.2-0.1c1-0.9,0.6-2.1,0.1-3.2c-1.7-4.2-1.7-4.2,3-4.2
					c0.8,0,1.7,0,2.5,0.1C358.1,304.7,356.5,302.9,354,302.7z"/>
				<path class="st27" d="M374.8,295.7c-0.7-0.5-1.3-0.9-1.4-1.8c-0.3-1.8-1.6-2.6-3.2-2.3c-3.8,0.6-3.5-1.5-2.9-4
					c-4.1-1.4-6.3-0.3-6.8,3.8c-0.3,2.3-0.5,3.2-3.1,2.4c-1.2-0.4-3.9-1.5-3.9,1.8c1.2,0.9,2.4,1.7,3.5,2.8c4.2,4,9.4,4.9,15,5.4
					c3.6,0.3,3.5-2.9,5.1-4.2C378.3,298.3,376.2,296.5,374.8,295.7z"/>
				<path class="st27" d="M488.9,207.2c0.8-3.9,3.8-6,6.8-6.5c3.2-0.6,7-2.2,9.6-0.9c3.8,1.8,7.4,1.2,11.1,1.6
					c2.1,3.6,5,1.9,7.8,1.2c2.5-0.6,4-1.9,4.2-4.7c0.2-2.9-1.1-4.8-3.7-5.7c-2.6-0.9-5.3-1.8-8.1-1.8c-1,0-2.3,0.3-2.8-0.6
					c-2.5-5.2-7.1-4.3-11.5-4.4c-2-1.3-4.2-2.4-5.8-4.4c-1.8-2.2-3.8-4-7.1-3.9c-1.5,0-3.6-0.8-3.8-2.6c-0.4-2.8-2.6-3.2-4.4-4.2
					c-2.7-1.3-5.7-1.4-8.6-1.9c-3.1-0.5-4.1-2.4-2.4-5c2.2-3.6,1.4-5.4-2.5-6.1c-1.4-0.3-3.5-0.4-4.2-1.1c-2.8-3.1-6.3,0.2-8.8-1.3
					c-3.7-2.2-5.8-0.5-7.9,2.3c-0.1,0.2-0.7,0.3-0.9,0.2c-3.4-1.7-4.5,1.2-6.3,2.9c-1.9,1.8-3.3,4.7-7.2,3.4
					c-2.2-0.7-4.9,0.5-6.8,2.3c-2.5,2.2-2.5,3.1,0.6,4.5c1.9,0.8,2,1.2,1.1,3.2c-2.1,4.7,0,7.7,5.2,7.9c1,0,2,0,3-0.1
					c6.6-0.8,13.1-3.8,19.8-0.2c0.5,0.3,1.5-0.3,2.3-0.5c4.6-1.1,7.9,1.6,11.2,4c1,0.7,1,1.8,0.4,2.6c-2.4,3.3-1.8,7.6-4.5,11
					c-2.8,3.4,0.6,8.6,5,8.1c1.9-0.2,3.2,0.2,4.9,1.1c2.9,1.6,6.4,2.3,9.7,2.9C486.2,210.8,488.4,209.6,488.9,207.2z"/>
				<path class="st27" d="M587.8,205.3c-1.2-1.5-2.8-3-4.6-1.8c-2.9,1.9-5.5,2.7-8.7,1.1c-0.8-0.4-1.9,0.4-2.8,0.7
					c-3.6,1-6.7,0.2-9.1-2.7c1.4-0.9,2.7-1.8,4.2-2.4c2.6-1,5.3-2.1,7.1-4.3c0.7-0.9,2.4-2.1,0.7-3.3c-1.8-1.3-1.3-2.9-1.3-4.4
					c-0.1-4.6-0.9-5.5-5.4-5.6c-2.5-0.1-5.2,0.7-6.7-2.6c-0.5-1.2-2.2-1.2-3.6-0.9c-1.4,0.3-2.8,1.2-4.3,0.5
					c-1.3-4.4-5.3-4.7-8.7-4.9c-5.8-0.4-11.6,0-17.4,0c-1-0.4-2.8,0-3.1-1.1c-0.5-1.7,1.6-0.9,2.3-1.6c0.7-0.7,2.2-1.2,2.2-1.8
					c0-4.6,3.8-5.1,6.6-6.7c2.5,0.2,4-1.5,3.9-3.5c-0.1-2.4-2.6-2.1-4.4-2.1c-0.8,0-1.8-0.2-2.5,0.1c-2.8,1.2-2.9-0.4-3.1-2.5
					c-0.3-5.1-1.6-6.4-6.3-5.6c-2.4,0.4-3.6-0.2-3.8-2.5c-0.3-3-2.2-4.3-4.9-4.8c-1.7-4.4-6.1-4.1-9.4-4.7c-2-0.4-4.6-2.8-6.5-0.6
					c-2.5,2.9-6.1,3.7-9,5.8c-2.6,1.8-5.5,1.1-8.1,0.8c-2.6-0.2-1.9-3.3-2.8-5.1c-4.9-2.4-10-2.9-15.3-1.8c-1.1,0.2-2-0.2-2.5-1
					c-0.6-1-1.1-2-2.4-2.3c-2.2-1.9-3.6-0.2-4.9,1.3c-2.3,2.6-5.2,3-7.7,0.9c-3.2-2.6-3-0.2-3.4,1.8c-0.1,1.6,0.2,3.6-2.5,2.2
					c-0.7-0.3-1.6-0.2-2.4-0.3c-0.6-0.5-1.3-1-1.8-1.6c-1.6-1.9-2.6-1.9-3.2,0.7c-0.6,2.7-2.5,3.3-4.9,2.5c-2-0.7-3.8-1-5.6,0.5
					c-2,1.8-3.1,0.2-4.2-1.3c-3.2-2.5-6.4-2.1-7.3,1.4c-0.9,3.4-2.9,4.3-6,4c-3.3-0.8-4.4,1.5-5.5,3.8c-1.3,2.7-2.7,4.8-6.4,5.2
					c-2,0.2-4.2,0.3-6.3,0.8c-4.1,1-8.1,1.8-11.8-1.1c-1.5,0-2.8,0.6-4.1,1.1c-2.5,3-4.3,6.7-7.5,9.2c-0.6,0.5-0.4,1.2-0.2,1.9
					c-0.1,0.3-0.2,0.6-0.3,1c-0.5,0.1-0.9,0.4-1,0.9c-2.3-0.2-4.3,0.5-5.9,2.2c0,1.1-0.3,2.4,0,3.4c0.9,2.6,0,3.6-2.6,3.6
					c-0.7,0-1.2,0.4-1.5,1c-6-0.5-11.7-0.2-16.5,4.1c-0.1,0.1-0.3,0.1-0.5,0.1c-1-1.5-6.1-0.5-2.7-4.7c0.6-0.8-1-1.5-1.9-1.4
					c-5.8,0.7-10.8-2.4-16.3-3c-2.4-2-5-3.5-8.3-3c-1.4,0.2-2.5-0.5-3.6-1.1c-0.4-0.3-0.7-0.7-1.1-0.9c-3.6-1.8-7.3-0.2-11-0.1
					c-4.1,0.1-8.1,0.2-11.9,2c-0.5-0.7-1.3-0.9-2.2-0.9c-4.5,0-8.9,0.4-13.3,1.6c-2.1,0.6-4.5,1.3-6-1.5c-0.7-1.3-2.2-1.2-3.5-1.2
					c0,2.2-1.7,4.4-3,4.2c-4.2-0.7-7.9,1.6-12,1c-1.1-0.2-2.1-0.3-3.1-1.2c-2.6-2.1-5.6-3.2-9-2.2c-0.5,0.4-1,0.8-1.6,1.2
					c-4.9,3.2-10.2,2.8-13.2-1c-0.7-1-1.5-1.9-2.2-2.9c-3.9-0.4-7.9,2-11.9-0.1c-0.2,0-0.3,0-0.5,0c-2.2-0.2-4.5,0.4-6.7-0.4
					c0.2-0.3,0.3-0.6,0.5-0.8c2.4-2.1,0.8-6.9,5-7.8c0.5-0.1,1-0.2,1.4-0.5c0.9-0.7,2-1.3,2-2.6c0-1.4-1.5-1.6-2.3-2.3
					c-1.1-1.1-2.6,0.5-3.6-0.7c0.1-6.1-0.3-6.6-6-7c-1.6-0.1-2.8-0.2-3-2.3c-0.2-2.2-1.6-3.5-3.9-3.7c-0.7-0.7-1.3-1.4-2-2.1
					c-0.3-1.7-2.3-1.6-3-2.8c-2.3,0.1-4.8-0.1-6.8-1.2c-2.4-1.3-4.4-0.6-5.6,1.2c-1.7,2.5-4.6,3.1-6.8,4.9c-2.4,2.1-5.6,0.9-7.5-2.1
					c-2.4-3.8-4.4-4.7-8.6-3.6c-1.3,0.3-2.5,0.2-3.7,0.3c-3.4,0.1-5.8-2.2-8.8-2.7c-0.3,0.6-1.3,0.7-1.5,1.1c-2.5,4-5.4,4.7-9.3,1.8
					c-1.3-1-1.2,0.4-1.2,1.1c0,3.5-2,3.3-4.3,2.4c-0.9-0.4-1.8-1.5-2.7-1c-3.6,2.3-7.8,1.4-11.4,2.7c-2.5,0.9-3.3,0.2-4.2-1.3
					c-1.8-2.8-3.3-2-4.8,0.2c-0.8,0.5-0.7,1.4-0.8,2.1c-0.6,4-0.6,4-4.9,3.1c-1.7-0.3-4-0.4-4,1.6c0,4-3.2,4.5-5.4,5.1
					c-2.7,0.8-5.5,1.8-8.6,1.4c-1.6-0.2-3.3,0-4.4,1.6c-1.7,0.2-3.2,0-4.5-1.4c-1-1.1-2.2-0.8-3.6-0.4c-3,0.9-3.3,3-3.5,5.7
					c-0.1,2.1,2,4.8,0.1,6.1c-1.9,1.3-4.8,0.4-7.3,0.2c-0.6,0-1.2-0.6-1.8-0.6c-1.9,0-3.2,1.9-2.6,3.7c0.3,0.9,0.7,1.9,1.2,2.7
					c0.7,1.3,0.2,1.9-1,2c-3.9,0.6-7.3,3.1-11.6,2.3c-2.3-0.4-4.3,1.3-5.1,3.6c-0.8,2.3,2,3.4,2.1,4.9c0.1,1.7-3.1,2.1-3.7,4.2
					c0,0.2,0,0.3,0,0.5c0.6,3.6-0.7,8.1,4.5,9.6c0.2,0.1,0.3,0.6,0.4,0.9c0.8-3.8,0.8-3.8,5.3-3.9c0.8,0,1.6-0.1,2.4-0.2
					c1.6,0.3,3-0.5,4.1-1.5c1.4-1.2,3-1.5,4.6-1.3c2.8,0.3,5-0.3,6.9-2.7c0.9-1.1,2.7-1.6,2.2-3.4c-0.5-1.7-1.8-2.8-3.6-2.9
					c-1.4,0-2.2-0.7-2.3-2c3.2-3.7,5.9-8.4,12.1-6c1.5,1.1,3.2,2,5,1.4c2-0.6,3.8,0,5.8,0.1c4.2,0.3,7.7,2.7,11.8,3.1
					c4.3,0.5,8.6,1.1,12.7-0.8c3.4-1.6,3.5-2.2,1.2-5c-0.6-0.8-2.6-1.5-1.5-2.6c1.8-1.8,0.1-2.6-0.5-3.7c-1.8-3.2-4.9-4.2-8.3-4.6
					c1.2-1.4,4-1.1,4.1-3.7c0-0.7,0.6-1.1,1.3-1.2c5.1-0.9,9.7-3.8,15.2-3.2c3.2,0.4,4.9-1.5,4.3-4.9c1.4-0.6,2.6-1.1,4.2-0.5
					c3,1.2,5.8,0.7,8-2.1c1.2-1.4,2.7-2.4,4.8-1.6c1.3,0.5,2.6,0,3.8-0.7c2.1-1.2,4.3-1.6,6.6-0.5c1.1,0.5,2.2,0.4,3.4,0
					c2.8-1.1,4.8-0.8,5.5,2.7c0.3,1.4,1.2,3.2,3,2.5c3.2-1.2,6.1-0.6,9.2,0.1c1.6,0.4,3.2,0,4.5-1.4c1.9-2,4.6-2.6,7.1-3.2
					c1.6-0.4,5.1-2.1,4.5,2.5c0,0.3,1,0.8,1.5,1.1c-0.5,0.8-1.3,0.8-2.1,1.1c-3.2,1.2-6.7,1.4-9.9,2.7c-2.1,0.9-3.8,1.3-1.6,3.8
					c0.1,0.2-0.3,0.9-0.5,1.3c-1.9,1.4-4.1,0.9-6.3,1c-1.6,0-3.9-0.3-4.2,1.7c-0.5,2.7,2.4,2.2,3.8,2.9c1.7,0.8,3.6,0.4,5.4,0.4
					c6.3,0,12.3,0.6,16.9,5.7c0.2,0.3,1,0.1,1.4,0.2c0.3,0.4,0.7,0.8,1,1.1c-0.5,0.4-1.2,0.6-1.6,1.1c-0.8,0.9-2.4,1.4-1.7,3.2
					c0.7,1.8,2.2,1.7,3.7,1.7c4.2,0.1,8.2,0,12.2-1.7c1.6-0.7,3.4-1.9,5.2-1.2c4.8,1.8,9.5,0.5,14.2-0.2c-0.6,2.2,0.3,4.9-2,6.5
					c-4.5,3.2-9.5,4.7-14.9,3c-2.6-0.8-4.5,0-6.4,1.4c-2.6,2-4.1,4.6-4.7,7.9c-0.7,4.3-3.8,6.3-8.3,5.7c-3.1-0.5-5.2,1-5.6,4
					c-0.2,1.1,0,2.3,0.3,3.4c0.6,3-2,5.2-4.2,3.5c-3.3-2.4-5.6-0.6-8.2,0.8c-2.3-0.9-3,1.8-4.8,2c-0.7,2.6,0,4.9,1.7,7
					c1.6,1,1.4,2.2,0.2,3.2c-2.4,2-2.8,4-0.2,6.1c0.8,0.7,1.1,1.6,1.2,2.6c0.1,3.2,2.1,4.2,4.9,4.2c4-0.8,8.1-1.6,12.2-1.2
					c2.2,0.2,2.9-1,2.9-3c1.2,0,2.2,0.3,3.3,0.6c4.5,1.2,6.4-0.3,6.5-4.9c0-1.2-0.6-2.2-1.2-3.1c-0.8-1.4-0.5-2.4,0.2-3.6
					c1.6,0.2,2.8-0.3,4-1.5c3.5-3.4,3.6-3.4,8.3-2.4c2.3,0.5,4.5,0.7,6.8,1c3,0.4,6.4,0.1,9.1,1.8c4,2.6,8.2,3.1,12.7,3.2
					c4.1,0.1,7.1-0.7,8-5.1c2,4.9,1.6,6-2.8,8.6c-0.5,0.3-0.8,1-1.2,1.5c-0.8,0.2-2,0.9-2.3,0.6c-2.5-2.3-4.7-1.3-7.2,0
					c-0.9,0.5-2.3,0.2-3.4,0.4c-5.3,1-10.6,1.9-15.9,3.1c-2.2,0.5-3.2,2.6-2.9,4.6c0.2,1.9,2.3,2.1,3.9,2.3c1,0.1,2,0,3-0.1
					c0.6-0.1,1.8-0.3,1.5,0.2c-1.7,2.8,3.6,4.9,0.6,7.9c-0.9,0.9-0.9,3.3,0.5,4.6c0.9,0.8,2.3,0.7,3.3,0.2c5.4-2.7,12-1.4,17.1-5.3
					c0.6-0.4,1.6-0.5,2.4-0.4c2.4,0,4.9-0.3,6.1-2.6c1.3-2.4-1.3-3.4-2.5-4.8c-1-1.2-1.7-2.6,0.6-2.5c2.6,0.1,3.8-1.5,5.2-3.2
					c0.9-0.4,1-1.1,1-1.9c-0.1-2,1-1.5,2-1c2.1,2.1,5.5,2,7.3,4.4c1.1,1.5,1.1,3.6,3.2,4.7c1.9,1,3.9,2.2,5.5,3.2
					c2.2,1.2,5.1,3.5,8.2,2.5c2.8-0.9,4.8,0.1,6.8,1.7c1.2,1,2.5,2,4,1.3c2.1-1,3.8-0.3,5.7,0.2c5,1.2,5.6,0.8,6.4-4.3
					c0.1-0.7,0.3-1.3,1-1.6c3.5,1.7,7.1,3.2,10.4,5.1c2.7,1.6,5.3,0.1,7.5-0.5c3.5-1,6.4-0.3,9.6,0.5c2.5,0.7,4.2,1.7,3.5,4.7
					c-0.2,0.8,0.2,1.6,1,2.1c-2.5,4.3-6.8,3.7-10.4,3.1c-3.4-0.6-6.8,0.2-10.1-1c-0.8-0.3-1.7,0.3-1.9,1.2c-0.2,1,0.7,1.3,1.5,1.6
					c1.9,0.9,4.3,0.4,5.9,2c0.1,1.6-1,2.8-0.4,4.7c0.8,2.3-1.1,4.3-2.9,3.3c-3.2-1.7-5.7,0.8-6.4,2.3c-1.6,3.5-3.2,2.5-5.3,1.1
					c-1-0.6-1.8-1.5-3-1.5c0.4-2.3,1.5-4.4,0.9-6.8c-0.9-3.7-6.4-2.5-7.1-6.5c-0.1-0.3-1.3-0.7-1.8-0.6c-4.2,1.5-9.1-1.4-13.1,2
					c-1.3,0-2.5-0.4-3.7-1c-2.4-1.2-4.9-2.7-7.7-3c-0.8-0.1-1.7-0.2-2.2,0.7c-0.4,0.7,0.1,1.3,0.6,1.7c1.7,1.3,1.3,2.4,0.3,4.1
					c-2.2,3.6-1.1,5.3,3.3,5.5c1.5,0.1,3-0.1,4.3-1c0,2.2-0.9,4.6,1.5,6.2c0.2,0.1-0.3,1.2-0.4,1.8c-1.9,4.9-1.5,5.5,3.3,5.5
					c0.8,0,1.6,0.4,2.4,0.4c2.3,0.1,3.6-1.3,4.3-3.4c0.3-1-0.5-2.7,0.8-3.1c1.6-0.5,3.2,1.1,3.6,2.1c1.4,3.4,4.7,3.5,6.9,3.2
					c3.3-0.4,6.5,0.1,9.7,0.3c2.7,1.8,5.5,3.1,8.8,3.9c2.1,0.5,3.8-1.5,5.7-0.5c3.1,1.6,6.2,1,9.5,0.7c3.1-0.3,5-1.4,5-4.7
					c0-2.7,1.1-1.5,2.3-0.7c2,1.4,3.1,3.8,5.7,4.4c2.1,0.1,4.5,2.4,6-1c1.8-0.1,3.6-0.2,5,1.5c1.5,1.8,3.8,1.8,5.7,2.8
					c2.6,1.4,2.1-0.9,2.2-2.2c-3.1-0.8-4.7-2.6-4.9-6c-0.2-2.8-1.5-4.8-4.8-5.3c-4.3-0.6-4.7-2-2.5-5.9c0.5-0.7,0.9-1.3,1.4-2
					c0-1.3-0.1-2.7,0-4c0.2-3.5-0.9-5.6-4.8-6.2c-3.6-0.6-3.6-1.5-0.9-4.2c1-1,1.8-2.2,1.6-3.5c-0.6-3.6,1.3-3.1,3.9-3.2
					c3.4-0.2,6.8-0.9,10.2,0.1c4.4,1.1,7.8,5.3,12.9,4.2c0.1,0,0.4,0.1,0.4,0.2c1,3.8,4.9,2.4,7.3,4c1.9,1.3,5,1.3,7.4-0.4
					c3.7-0.3,7,0.7,10,2.9c1.1,0,2.3,0.4,3-0.9c-1.4-1.3-1.9-3-1.8-4.8c0.2-3.2-1.8-4.8-4.4-5.8c-1.5-0.6-3.1-1-4.6-1.5
					c-0.1-1-0.2-2-0.3-3c1.5-0.9,2.5-2.3,3.4-3.8c-0.1-0.8-0.1-1.6-0.2-2.5c-0.2-7.1-2.7-9.6-10-9.7c0.3-5.4-0.1-6.5-4.4-6.7
					c-2.9-0.2-5.7-1.4-8.7-0.4c-1.6,0.5-3.7,0.2-3.9-1.9c-0.4-4.7-3.8-5.1-7.2-5.9c-3.2-1.5-2.9-1.3-0.7-3.5
					c1.4-1.3,2.8-1.4,4.4-1.6c3.9-0.4,7.8-1,11.5-2.6c1.6-0.7,3.1-1.6,5.1-0.8c2,0.7,3-1.1,3.5-2.7c0.6-1.8-0.3-2.8-2.2-3.1
					c-0.8-0.1-1.6-0.6-2.2-1.1c-2-1.4-1.8-2.5,0.5-3.6c2.2-1.1,4.4-2.1,5.1-4.8c0.3-1,1.1-1.1,1.9-1.2c2.6,1.6,5.4,2.2,8.5,2
					c3.3-0.1,6.6,0,9.9,0c1.1,0,2.2-0.2,3.3,0.7c3.5,2.9,10.9,4.7,15,3.7c0.1,0,0.2-0.2,0.3-0.4c2.1,0,4.2,0.2,6-1.1
					c3.5-1.6,4.3-4,1.5-5.4c-2.3-1.2-1.9-2.1-1.6-4.1c0.4-2.7,0.1-5.5-3.8-5.5c-0.4-0.5-0.8-1.3-1.3-1.4c-2.9-0.6-2.1-1.5-1.4-3.9
					c1-3.6,4.3-1.7,5.7-3.6c3.7-1.9,7.5-3.7,11.9-3c1,0.2,2,0,3,0c2.9,0.1,4.7-1,3.9-4.1c-0.7-2.5,1.2-1.7,2.2-2c0.7,0,1.3,0,2,0
					c4.4,0.5,8.6,0.5,11.4-3.8c0.4-0.5,1.2-1.2,1.6-0.8c3.5,2.8,6-0.6,9-1.4c0.8,0,1.7,0.1,2.5,0c4.7-0.6,9.5-1.4,12.8,3.4
					c0.2,0.3,0.8,0.5,1.3,0.6c6.3,2,12.7,5.2,18.9-0.2c0.2-0.2,0.6-0.4,0.9-0.4c3-0.2,5.9-0.4,8.1-3c0.3-0.4,1.8-0.2,1.7,0.1
					c-0.8,2,1.4,4.7-0.5,5.9c-1.9,1.2-3.8,3.2-6.6,2.6c-2.2-0.4-4.2,0.6-6.3,1.2c-1,0.3-2,1.2-1.4,2.2c2.3,3.7-0.9,3.4-2.6,3.5
					c-2.4,0.1-4.6,0.7-6.7,1.6c-1.1,0.4-3,0.1-2.8,2.1c0.2,1.8,2,1.6,3.1,1.9c3.7,1,7.6,0.3,11.4,0.5c1.5,0.1,3.1-0.5,4.3,0.7
					c3,2.9,9,0.6,10.6,6c0,0.1,0.3,0.1,0.5,0.2c4.8,0.5,1.8,1.8,0.4,3.1c-2.4,2.3-2.1,3.4,1.1,4.3c5.6,1.6,11,0.3,16.3-1.4
					c3.1-0.8,6.1-1.8,9.4-0.1c1.2,0.6,2.9,0.2,4.4-0.2c2.4-0.5,4.7-1.6,7.2-1.6c-0.6,4.5-1.5,8.7-6.4,10.6c-0.5,0.2-1,0.2-1.4,0.4
					c-1.6,0.9-2.2,2.4-2.1,4.1c0.1,2,1.8,1.4,2.9,1.9c2.7,1.2,5.5,0.8,8.3,0.9c1.4,0,3.2,0.2,2.5,2c-2,4.4,1.4,4.9,4,6.3
					c2,1.1,4.2,0.4,6.3,0.7c3.6,4.4,8.6,4.3,13.5,3.6c4.6-0.6,9-1.8,13.1,1.8c1,0.9,2.4,2.8,4.6,2.3
					C591.1,210.6,589.7,207.8,587.8,205.3z M275.4,196.2c-1.9-0.2-2.9,0.6-3.9,1.4c-2.8,2.4-5.8,3.5-9.5,2.9c-1-0.1-2-0.1-2.6,0.9
					c-3.1,0-6.2,0-9.3,0c-1.5,0-2.6-0.2-2.7-2c0-5.6,0-5.6-4.9-6c-0.2-1.2,0.5-2,1-3c3.1,0.3,4.6-1.8,6-4c7.3,0.3,14.5,1.5,21.1,4.9
					c4,0.1,8.1,0.5,9.5-4.7c0.1-0.5,0.8-1.1,1.6-0.8c0.7,0.3,0.8,1,0.8,1.6c0,0.7,0.1,1.3,0.1,2
					C281.7,193.2,278.7,196.5,275.4,196.2z M343.9,220.3c3.2,2.1,6.7,2.5,10.4,2.2c0.1,2.2-1.2,4.3-0.2,6.6c0.4,1-0.9,2.5-2,2
					c-3-1.3-5.6-0.1-8.2,1c-0.1,0-0.4-0.4-0.7-0.6c-2.7-2.1-5.7-0.7-8.6-1c-3.6-0.4-5.2,2-6.5,4.9c-0.6,1.3-4,0.5-4.7-1.3
					c-1.9-4.8-5.6-6.5-10.5-6.7c-3.4-0.1-5.5-3.5-8.8-3.9c-0.2,0-0.5-0.9-0.4-1.3c0.9-3.1,6.2-4,8.7-2c3.9,3,8.6,2.8,13.1,1.6
					c1.6-0.4,3-1.4,4.7-1.3c3.4-0.2,6.9,0.6,10.3-0.9C341.7,219.1,342.9,219.6,343.9,220.3z"/>
			</g>
			<path class="st27" d="M116.7,201.1c-0.8-0.5-1.6-1.3-2.5-1.5c-5.5-0.9-11.3-0.7-16-4.9c-1.3-1.1-4.2-0.7-6.3,0
				c-3,1-4.6-1.9-7.1-2.1c0.4-5.7-5.1-1.7-6.5-4.4c-5.8,1.9-11.2,3.6-17.1,3.5c-1.4,0-2.1,1.5-0.9,3c1.5,1.8,1.7,3-1,4
				c-1.4,0.5-1.7,2.6-1.4,3.9c0.3,1.4,2,0.7,3.1,0.8c4.8,0.4,6.6,2.8,5,7c-0.7,1.9,0.2,3.1,1.4,3.8c1.4,0.8,2.5-0.3,3.1-1.6
				c0.5-1,1.1-2.1,1.5-3.1c1-2.4,2.3-3.6,4.9-1.8c1.1,0.8,2.6-0.1,3.2,0.2c2.6,1.4,4-2.3,6.1-1.2c2.3,1.2,4.9,0.6,7.1,1.8
				c1.7,0.9,3.7,1.4,5.5,2.1c2.8,1.2,5.1,0.7,6.8-1.9c0.4-0.6,0.7-1.4,1.4-1.2c3.4,0.9,5.7-2.5,9-2.1c1.5,0.2,2.6-0.5,3-2
				C119.1,201.9,117.7,201.7,116.7,201.1z"/>
			<path class="st27" d="M162.2,194.8c0.6-2.3,1.4-2.8,3.4-1.8c0.4,0.2,0.9,0.3,1.6,0.4c1.7-1,3.7-0.8,5.7-1.1
				c2-0.2,3.2-1.6,3.5-3.6c0.4-2.5-1.9-2.3-3.2-2.9c-1.6-0.7-3.4-0.7-4.9-0.3c-3.7,0.9-6.6,0.2-9.2-2.8c-1.8-2.1-5.4-1.9-7.1,0.2
				c-2.3,2.8-4.5,5.5-8.5,4.6c-4.7-1.2-4.9,5-8.7,4.9c-0.7,0-1.3-0.1-2,0.1c-1.4,0.3-2.9,0.7-4.3,1.1c-1,0.3-1.9,0.9-1.8,2.1
				c0.1,1.1,1,1.6,2.1,1.8c1.6,0.2,3.5-0.3,4.3,1.7c0.6,1.4,0.1,3.5,2.7,3.4c1.8-0.1,3.8,0.3,5.3-0.9c3.9-3.2,8.5-2.3,12.8-1.7
				C158.9,200.5,161,199.7,162.2,194.8z"/>
			<path class="st27" d="M128.2,175.8c4.1,1.4,8.2-1.6,12.1,0.5c0.5,0.3,1.6-0.2,2.3-0.5c1-0.4,2.5-0.2,2.6-1.8
				c0-1.5-1.3-1.8-2.3-2.2c-2.1-0.8-5.4,0.2-3.9-4.5c0.5-1.7-2.4-4.4-4.7-5.8c1.2-1.5,3-2,4.8-2.1c1-0.1,2.3-0.5,2.5-1.3
				c0.3-1.2-1.5-1.1-1.9-1.7c-1.6-2.2-5-0.9-6.1-3.2c-1-2.1-2-1.3-3.5-1.2c-2.7,0.3-3.8,3.3-6.4,3.5c-1.2,0.1-2.9-0.4-3.2,1.5
				c-0.2,1.3-0.7,2.8-0.5,3.9c0.3,2.2,2.5,1.6,4.1,1.6c1.6,0,3.1,0.3,4.6-1.2c1.3-1.3,3.3-1.4,4.8,0.2c-2.2,2.6-5.2,3.9-8.3,5.1
				c-1.2,0.5-1.9,2.2-3.5,1.5c-4.2-1.8-7,2-10.6,2.5c-0.8,0.1-1.7,1-1.6,1.7c0.6,4-2.6,4.3-5,5.5c-0.6,0.3-1.8,0.4-1.5,1.5
				c0.2,0.9,1.2,1,2,1.1c3.5,0.7,6-1.5,8.6-3c2.5-1.4,4.4-1,5.4,1.1c1.7,3.3,3.2,2.1,4,0C124.1,175.8,126.7,175.3,128.2,175.8z"/>
		</g>
	</g>
</g>
</svg>
