<svg version="1.1" xmlns="http://www.w3.org/2000/svg" xmlns:xlink="http://www.w3.org/1999/xlink" x="0px" y="0px"
	 viewBox="0 0 30 46" style="enable-background:new 0 0 30 46;" xml:space="preserve">
<style type="text/css">
	.st0{fill:#5D5D5B;}
	.st1{fill:#9D9D99;}
	.st2{fill:#CBCBCB;}
	.st3{fill:#FF0000;}
	.st4{fill:#FFA100;}
	.st5{fill:#FFFF00;}
</style>
<rect x="8.5" y="8" class="st0" width="13.2" height="36.2"/>
<rect x="21.1" y="4" class="st1" width="9" height="42"/>
<rect x="0" y="4" class="st1" width="9" height="42"/>
<rect x="7.1" y="20" class="st2" width="16.1" height="16.1"/>
<rect x="14.1" y="4" width="1.9" height="16"/>
<polygon class="st3" points="22.1,3.1 22.1,2.2 21.1,2.2 21.1,0 20.2,0 20.2,3.1 19.1,3.1 19.1,5.9 18,5.9 18,6.9 11.1,6.9 11.1,6 
	10,6 10,5 10,4 7.8,4 7.8,5 8.9,5 8.9,6.9 7,6.9 7,6 7,4.9 4.9,4.9 4.9,6 6,6 6,9 7,9 7,7.8 8.9,7.8 8.9,6.9 10,6.9 11.1,6.9 
	11.1,7.9 10.1,7.9 10.1,9 18,9 18,7.9 20,7.9 20,6.9 20,5.9 20.2,5.9 21.1,5.9 21.1,4.9 22.1,4.9 22.1,4 23.1,4 23.1,3.1 "/>
<polygon class="st4" points="8.9,6.9 8.9,7.8 7.8,7.8 7.8,9 10.1,9 10.1,7.9 11.1,7.9 11.1,6.9 "/>
<g>
	<rect x="10.1" y="0" class="st4" width="1.1" height="1"/>
	<polygon class="st4" points="13.1,1.9 13.1,0.9 11.1,0.9 11.1,1.9 11.1,3 8.2,3 8.2,1.9 7.1,1.9 7.1,4 8.2,4 10,4 10,6 11.1,6 
		11.1,5 12.1,5 12.1,4 13.1,4 13.1,3 14,3 14,1.9 	"/>
</g>
<polygon class="st4" points="19.2,1 19.2,0 18.2,0 18.2,4 17.2,4 17.2,5 16.2,5 16.2,4 16.2,3 15.1,3 15.1,4 14.1,4 14.1,5 13.2,5 
	13.2,5.9 12.2,5.9 12.2,6.9 14.1,6.9 14.1,5.9 19.2,5.9 19.2,5 19.2,4 19.2,3.1 20.2,3.1 20.2,1 "/>
<polygon class="st5" points="18,6.9 14.1,6.9 14.1,5.9 18,5.9 "/>
<g>
	<polygon class="st5" points="17.2,0.9 17.2,1.9 15.2,1.9 15.2,0.9 14.1,0.9 14.1,0 13.1,0 13.1,1.9 14,1.9 14,3 13.1,3 13.1,4 
		12.1,4 12.1,4.9 11.1,4.9 11.1,6.9 12.2,6.9 12.2,5.9 13.2,5.9 13.2,5 14.1,5 14.1,4 15.1,4 15.1,3 16.2,3 16.2,5 17.2,5 17.2,4 
		18.2,4 18.2,2.9 18.2,1.9 18.2,0.9 	"/>
	<rect x="16.2" y="0" class="st5" width="1" height="0.9"/>
</g>
<polygon class="st4" points="23.9,6.9 20,6.9 20,5.9 23.9,5.9 "/>
<g>
	<rect x="3.2" y="0" class="st3" width="2" height="1"/>
	<rect x="5.2" y="1" class="st3" width="3" height="1"/>
	<polygon class="st3" points="10.2,0.9 10.2,0 9.2,0 9.2,2 8.2,2 8.2,3 11.1,3 11.1,2 11.1,0.9 	"/>
</g>
<rect x="12" y="0" class="st3" width="1.1" height="1"/>
</svg>
